<svg width="38" height="38" viewBox="0 0 38 38" fill="none" xmlns="http://www.w3.org/2000/svg">
<path d="M33.25 7.9165C33.25 10.5399 26.8701 12.6665 19 12.6665C11.1299 12.6665 4.75 10.5399 4.75 7.9165M33.25 7.9165C33.25 5.29315 26.8701 3.1665 19 3.1665C11.1299 3.1665 4.75 5.29315 4.75 7.9165M33.25 7.9165V30.0832C33.25 32.7115 26.9167 34.8332 19 34.8332C11.0833 34.8332 4.75 32.7115 4.75 30.0832V7.9165M33.25 18.9998C33.25 21.6282 26.9167 23.7498 19 23.7498C11.0833 23.7498 4.75 21.6282 4.75 18.9998" stroke="white" stroke-width="2" stroke-linecap="round" stroke-linejoin="round"/>
</svg>
