<svg xmlns="http://www.w3.org/2000/svg" width="38" height="12" viewBox="0 0 38 12" fill="none"><path d="M19.2733 10.1305C22.1468 9.70216 24.0562 7.71099 23.5382 5.68313C23.0202 3.65527 20.2709 2.35862 17.3974 2.78699C14.524 3.21536 12.6145 5.20653 13.1325 7.23439C13.6505 9.26226 16.3999 10.5589 19.2733 10.1305Z" fill="url(#paint0_linear_1129_3371)"></path><path d="M13.3785 7.02457L14.3306 6.82099L14.8451 6.25617L14.766 4.47179L13.8139 4.67239C13.3552 5.4207 13.2156 6.24379 13.3785 7.02457Z" fill="url(#paint1_linear_1129_3371)"></path><path d="M14.4724 8.5537C14.7528 8.89089 15.102 9.1973 15.5222 9.46022C15.9424 9.72313 16.4005 9.92151 16.8794 10.0609L17.8743 9.85103L17.8033 9.44932L15.745 8.28374L15.4673 8.34386L14.4724 8.5537Z" fill="url(#paint2_linear_1129_3371)"></path><path d="M20.7292 10.0511C20.6164 10.0559 20.5293 10.0381 20.4444 10.0051C20.4343 10.0031 20.4255 10.0002 20.4166 9.99728L19.957 10.1995L19.004 10.4003C19.2622 10.3861 19.5213 10.3546 19.7751 10.3087L19.7664 10.3118L19.8101 10.3024C19.8601 10.2932 19.9087 10.2818 19.9575 10.2719L20.9343 10.0681L20.6931 10.0643C20.7056 10.0601 20.7168 10.0553 20.7292 10.0511Z" fill="url(#paint3_linear_1129_3371)"></path><path d="M15.8507 3.16744L14.918 3.36435C14.918 3.36435 15.6568 2.86948 16.5282 2.67697L17.5561 2.4563L15.8495 3.16683L15.8507 3.16744Z" fill="url(#paint4_linear_1129_3371)"></path><path d="M20.223 9.96909C23.0965 9.54072 25.0059 7.54955 24.4879 5.52169C23.9699 3.49382 21.2206 2.19718 18.3471 2.62555C15.4737 3.05392 13.5642 5.04509 14.0822 7.07295C14.6002 9.10082 17.3496 10.3975 20.223 9.96909Z" fill="url(#paint5_linear_1129_3371)"></path><path d="M17.2797 8.29505C15.9268 7.45006 15.7252 5.86651 16.8309 4.76581C17.9354 3.66447 19.9365 3.45618 21.2906 4.3003C22.6435 5.1453 22.8451 6.72885 21.7393 7.82955C20.6349 8.93089 18.6338 9.13918 17.2797 8.29505Z" fill="url(#paint6_radial_1129_3371)" style="mix-blend-mode: multiply;"></path><path d="M19.7714 8.20134C21.2613 7.97923 22.2513 6.9467 21.9827 5.8951C21.714 4.84351 20.2885 4.17108 18.7986 4.39319C17.3087 4.6153 16.3187 5.64783 16.5873 6.69943C16.856 7.75102 18.2815 8.42345 19.7714 8.20134Z" fill="url(#paint7_linear_1129_3371)"></path><path d="M20.5186 3.75643L21.9154 4.6304C22.1903 4.80267 22.5942 4.76023 22.8194 4.53634L23.1553 4.20184C22.8766 3.86708 22.5297 3.56289 22.1121 3.30188C21.6945 3.04087 21.2394 2.84393 20.7622 2.70647L20.4263 3.04097C20.2011 3.26486 20.2425 3.58506 20.5174 3.75733L20.5186 3.75643Z" fill="url(#paint8_linear_1129_3371)"></path><path d="M18.0497 8.83908L16.6529 7.96511C16.3781 7.79284 15.9741 7.83528 15.7489 8.05917L15.413 8.39367C15.6917 8.72843 16.0387 9.03262 16.4563 9.29363C16.8738 9.55464 17.329 9.75158 17.8061 9.88903L18.142 9.55454C18.3672 9.33064 18.3259 9.01045 18.051 8.83818L18.0497 8.83908Z" fill="url(#paint9_linear_1129_3371)"></path><path d="M21.7147 8.71868L20.0819 9.2287C19.7611 9.32941 19.595 9.61515 19.7113 9.86649L19.8844 10.2429C20.8816 10.1887 21.8643 9.89207 22.6787 9.36997L22.5055 8.99359C22.388 8.74162 22.0343 8.61883 21.7147 8.71868Z" fill="url(#paint10_linear_1129_3371)"></path><path d="M16.8549 3.87739L18.4864 3.36674C18.8072 3.26603 18.9733 2.98028 18.857 2.72895L18.6839 2.35257C17.6867 2.40677 16.704 2.70337 15.8896 3.22547L16.0628 3.60185C16.1803 3.85381 16.534 3.97661 16.8536 3.87676L16.8549 3.87739Z" fill="url(#paint11_linear_1129_3371)"></path><path d="M15.554 6.47784L15.8116 5.09603C15.862 4.82444 15.6274 4.57853 15.2868 4.54715L14.7778 4.49953C14.317 5.25218 14.175 6.08037 14.339 6.86508L14.8468 6.91207C15.1873 6.94345 15.5036 6.74944 15.554 6.47784Z" fill="url(#paint12_linear_1129_3371)"></path><path d="M24.2318 5.73029L23.7241 5.6833C23.3835 5.65192 23.0672 5.84593 23.0168 6.11752L22.7592 7.49934C22.7089 7.77093 22.9434 8.01684 23.284 8.04822L23.793 8.09584C24.2539 7.34319 24.3958 6.515 24.2318 5.73029Z" fill="url(#paint13_linear_1129_3371)"></path><path d="M17.7711 7.80378C16.7498 7.16671 16.5993 5.972 17.4333 5.14131C18.2672 4.31062 19.7753 4.15315 20.7967 4.79022C21.8181 5.42728 21.9685 6.622 21.1346 7.45268C20.3006 8.28337 18.7925 8.44084 17.7711 7.80378Z" fill="url(#paint14_radial_1129_3371)" style="mix-blend-mode: multiply;"></path><path d="M21.0224 7.38255C20.2368 8.16403 18.8237 8.31168 17.8643 7.71255C16.9048 7.11341 16.7625 5.99425 17.5468 5.21213C18.3323 4.43065 19.7454 4.283 20.7049 4.88214C21.6644 5.48127 21.8066 6.60043 21.0224 7.38255Z" fill="url(#paint15_linear_1129_3371)"></path><path d="M19.3274 8.0762L19.3588 8.32606C19.5511 8.33118 19.743 8.31817 19.9332 8.28942L19.9019 8.04258C19.713 8.07348 19.5185 8.08522 19.3261 8.07707L19.3274 8.0762Z" fill="url(#paint16_linear_1129_3371)"></path><path d="M17.8239 7.48752L17.6205 7.68934C17.6877 7.74219 17.76 7.79301 17.8361 7.84115C17.9123 7.8893 17.9922 7.9317 18.0733 7.97168L18.2767 7.76986C18.1956 7.73142 18.1157 7.68902 18.0396 7.64087C17.9635 7.59273 17.8924 7.54102 17.8265 7.48728L17.8239 7.48752Z" fill="url(#paint17_linear_1129_3371)"></path><path d="M17.0616 6.30084L16.7491 6.33368C16.7552 6.48609 16.7856 6.63696 16.8349 6.78374L17.1499 6.75066C17.0968 6.605 17.0665 6.45413 17.0603 6.30171L17.0616 6.30084Z" fill="url(#paint18_linear_1129_3371)"></path><path d="M20.8685 7.72118L21.1092 7.87206C21.2234 7.79206 21.3324 7.70215 21.4311 7.60429C21.4543 7.58202 21.475 7.5585 21.4969 7.5356L21.2587 7.38745C21.238 7.41097 21.2161 7.43387 21.1929 7.45615C21.0929 7.55486 20.9839 7.64328 20.866 7.72142L20.8685 7.72118Z" fill="url(#paint19_linear_1129_3371)"></path><path d="M20.7467 5.10781L20.9501 4.906C20.8829 4.85315 20.8106 4.80233 20.7344 4.75418C20.6583 4.70603 20.5784 4.66363 20.4973 4.62366L20.2939 4.82547C20.375 4.86391 20.4548 4.90631 20.531 4.95446C20.6071 5.00261 20.6782 5.05432 20.7441 5.10806L20.7467 5.10781Z" fill="url(#paint20_linear_1129_3371)"></path><path d="M17.4686 5.06664L17.2288 4.91754C17.2041 4.93933 17.182 4.96089 17.1587 4.98331C17.0592 5.08179 16.9738 5.18716 16.9009 5.29432L17.1434 5.44617C17.2137 5.33775 17.2966 5.23262 17.3973 5.13327C17.4207 5.11085 17.444 5.08844 17.4674 5.06751L17.4686 5.06664Z" fill="url(#paint21_linear_1129_3371)"></path><path d="M21.5254 6.49645L21.8392 6.4635C21.8508 6.31151 21.8408 6.15932 21.8093 6.00994L21.4981 6.04265C21.5308 6.19116 21.5395 6.34422 21.5229 6.49669L21.5254 6.49645Z" fill="url(#paint22_linear_1129_3371)"></path><path d="M18.9872 4.50862L18.9561 4.26327C18.7653 4.2732 18.5749 4.30115 18.39 4.34513L18.4212 4.59348C18.6048 4.54587 18.7952 4.51792 18.986 4.5095L18.9872 4.50862Z" fill="url(#paint23_linear_1129_3371)"></path><path d="M19.7714 8.20134C21.2613 7.97923 22.2513 6.9467 21.9827 5.8951C21.714 4.84351 20.2885 4.17108 18.7986 4.39319C17.3087 4.6153 16.3187 5.64783 16.5873 6.69943C16.856 7.75102 18.2815 8.42345 19.7714 8.20134Z" fill="url(#paint24_radial_1129_3371)" style="mix-blend-mode: multiply;"></path><path opacity="0.7" d="M19.5384 10.1626C19.5384 10.1626 19.477 10.1654 19.3619 10.1702C19.2456 10.1744 19.0779 10.1758 18.8652 10.167C18.6537 10.1573 18.3997 10.1342 18.1207 10.0868C17.843 10.04 17.5391 9.96826 17.2369 9.8644C16.9334 9.76142 16.6266 9.6283 16.3382 9.46374C16.3018 9.44282 16.2668 9.42254 16.2316 9.40074C16.2134 9.39028 16.1966 9.38046 16.177 9.36784L16.1262 9.33382C16.0585 9.28846 15.992 9.24222 15.923 9.1947C15.8878 9.17138 15.8552 9.14782 15.8201 9.1245C15.7849 9.10118 15.7573 9.07257 15.7246 9.04749C15.6631 8.99469 15.6016 8.94189 15.5375 8.88781C15.5074 8.86096 15.4721 8.8346 15.4445 8.806C15.4169 8.7774 15.3893 8.74879 15.3629 8.71931C15.3077 8.6621 15.2524 8.60338 15.1972 8.54465C15.1406 8.48681 15.0993 8.42143 15.0503 8.35982C15.0027 8.29733 14.9524 8.23509 14.9072 8.17084C14.8684 8.10522 14.8283 8.03897 14.7882 7.97271C14.7481 7.90646 14.7042 7.84133 14.6768 7.77082C14.6182 7.63246 14.5418 7.49731 14.5048 7.35309L14.4379 7.14013C14.4182 7.0689 14.4086 6.99518 14.394 6.92347C14.3832 6.85064 14.3634 6.77941 14.3577 6.70609C14.3533 6.63341 14.3476 6.56009 14.3431 6.4874L14.3365 6.37915C14.3343 6.34357 14.3398 6.30574 14.3401 6.26991C14.3447 6.19715 14.3479 6.12526 14.3525 6.05249C14.3532 5.98085 14.3705 5.90839 14.3815 5.83729C14.3951 5.76596 14.4073 5.6955 14.4196 5.62504C14.457 5.48444 14.4995 5.34639 14.5434 5.21202C14.6053 5.07748 14.6557 4.9463 14.7216 4.81975C14.7583 4.75687 14.7939 4.69487 14.8307 4.63351C14.8478 4.60295 14.8663 4.57303 14.8834 4.54247C14.9006 4.51191 14.919 4.48199 14.9413 4.45399C15.0292 4.33829 15.107 4.22508 15.1939 4.11938C15.2885 4.016 15.3807 3.91589 15.4679 3.82234C15.5602 3.72983 15.6579 3.64443 15.7519 3.56623C15.9412 3.40895 16.1248 3.28038 16.2847 3.17918C16.446 3.07862 16.5798 3.00502 16.6759 2.95633C16.7693 2.90787 16.8225 2.88304 16.8225 2.88304C16.8225 2.88304 16.7706 2.90851 16.6797 2.95824C16.5876 3.00734 16.4551 3.08309 16.2977 3.18557C16.1416 3.28869 15.9632 3.41829 15.7803 3.57724C15.6889 3.65672 15.5977 3.74228 15.5079 3.83454C15.4245 3.92849 15.3349 4.02835 15.2428 4.1315C15.1585 4.23695 15.0846 4.34904 15.0004 4.46361C14.9781 4.49162 14.961 4.52218 14.9451 4.55186C14.9292 4.58154 14.9121 4.61209 14.8949 4.64265C14.8607 4.70377 14.8264 4.76489 14.7922 4.82753C14.7301 4.95296 14.6822 5.08389 14.6242 5.21732C14.5854 5.3512 14.5403 5.48797 14.5054 5.62681C14.4944 5.69639 14.4808 5.76621 14.4698 5.8373C14.4589 5.90839 14.4415 5.97933 14.442 6.0501C14.4374 6.12135 14.4354 6.19235 14.4321 6.26424C14.4318 6.30006 14.4263 6.33637 14.4285 6.37195L14.4364 6.47933C14.4421 6.55113 14.4477 6.62293 14.4522 6.69561C14.4578 6.76741 14.4776 6.83864 14.4897 6.9106C14.5043 6.98231 14.5138 7.05451 14.5348 7.12486L14.6029 7.33542C14.6386 7.47748 14.7137 7.61199 14.7697 7.74908C14.7971 7.81806 14.8397 7.88256 14.8772 7.94905C14.9161 8.01467 14.9549 8.08028 14.9937 8.1459C15.0375 8.20951 15.0865 8.27112 15.1329 8.33297C15.1818 8.39458 15.2218 8.4578 15.2771 8.51652C15.3311 8.57461 15.3863 8.63182 15.4403 8.6899C15.4679 8.71851 15.4942 8.74647 15.5205 8.77595C15.5482 8.80456 15.5808 8.82964 15.6109 8.85648C15.7365 8.96032 15.8455 9.06954 15.9861 9.1613C16.0526 9.20906 16.1204 9.25594 16.1856 9.30155L16.2351 9.33645L16.2871 9.36807C16.3222 9.38987 16.3573 9.41015 16.3911 9.43131C16.6719 9.5966 16.971 9.73045 17.2681 9.83631C17.5665 9.94129 17.8603 10.017 18.1343 10.068C18.4082 10.1189 18.6586 10.1462 18.8675 10.1592C19.0778 10.1712 19.2468 10.172 19.3606 10.1695C19.4758 10.1662 19.5384 10.1641 19.5384 10.1641L19.5384 10.1626Z" fill="url(#paint25_radial_1129_3371)" style="mix-blend-mode: lighten;"></path><defs><linearGradient id="paint0_linear_1129_3371" x1="22.4987" y1="-1.0436" x2="21.0986" y2="15.0918" gradientUnits="userSpaceOnUse"><stop stop-color="#0C7C4E"></stop><stop offset="0.76" stop-color="#1B5336"></stop></linearGradient><linearGradient id="paint1_linear_1129_3371" x1="22.3567" y1="3.89707" x2="12.8016" y2="7.68682" gradientUnits="userSpaceOnUse"><stop stop-color="#F6EBF8"></stop><stop offset="0.31" stop-color="#F1E8F7"></stop><stop offset="0.65" stop-color="#E4E2F4"></stop><stop offset="1" stop-color="#CFD7F0"></stop></linearGradient><linearGradient id="paint2_linear_1129_3371" x1="20.1557" y1="6.73535" x2="17.6323" y2="11.0637" gradientUnits="userSpaceOnUse"><stop stop-color="#F6EBF8"></stop><stop offset="0.31" stop-color="#F1E8F7"></stop><stop offset="0.65" stop-color="#E4E2F4"></stop><stop offset="1" stop-color="#CFD7F0"></stop></linearGradient><linearGradient id="paint3_linear_1129_3371" x1="23.6628" y1="6.98697" x2="22.9549" y2="8.94219" gradientUnits="userSpaceOnUse"><stop stop-color="#F6EBF8"></stop><stop offset="0.31" stop-color="#F1E8F7"></stop><stop offset="0.65" stop-color="#E4E2F4"></stop><stop offset="1" stop-color="#CFD7F0"></stop></linearGradient><linearGradient id="paint4_linear_1129_3371" x1="22.4068" y1="2.61787" x2="16.0696" y2="1.92017" gradientUnits="userSpaceOnUse"><stop stop-color="#F6EBF8"></stop><stop offset="0.31" stop-color="#F1E8F7"></stop><stop offset="0.65" stop-color="#E4E2F4"></stop><stop offset="1" stop-color="#CFD7F0"></stop></linearGradient><linearGradient id="paint5_linear_1129_3371" x1="21.2995" y1="7.66028" x2="25.4483" y2="16.7867" gradientUnits="userSpaceOnUse"><stop stop-color="#0C7C4E"></stop><stop offset="0.76" stop-color="#1B5336"></stop></linearGradient><radialGradient id="paint6_radial_1129_3371" cx="0" cy="0" r="1" gradientUnits="userSpaceOnUse" gradientTransform="translate(19.3836 6.28194) rotate(77.4399) scale(2.66029 3.37021)"><stop offset="0.82" stop-color="white"></stop><stop offset="0.84" stop-color="#F6F8F7"></stop><stop offset="0.86" stop-color="#DFE7E3"></stop><stop offset="0.9" stop-color="#B9CAC1"></stop><stop offset="0.93" stop-color="#84A293"></stop><stop offset="0.98" stop-color="#427058"></stop><stop offset="1" stop-color="#1B5336"></stop></radialGradient><linearGradient id="paint7_linear_1129_3371" x1="31.9787" y1="1.46862" x2="18.7184" y2="16.8687" gradientUnits="userSpaceOnUse"><stop stop-color="#0C7C4E"></stop><stop offset="0.76" stop-color="#1B5336"></stop></linearGradient><linearGradient id="paint8_linear_1129_3371" x1="23.3888" y1="2.38189" x2="21.8029" y2="6.07899" gradientUnits="userSpaceOnUse"><stop stop-color="#F6EBF8"></stop><stop offset="0.31" stop-color="#F1E8F7"></stop><stop offset="0.65" stop-color="#E4E2F4"></stop><stop offset="1" stop-color="#CFD7F0"></stop></linearGradient><linearGradient id="paint9_linear_1129_3371" x1="17.6914" y1="8.1039" x2="16.4772" y2="11.8436" gradientUnits="userSpaceOnUse"><stop stop-color="#F6EBF8"></stop><stop offset="0.31" stop-color="#F1E8F7"></stop><stop offset="0.65" stop-color="#E4E2F4"></stop><stop offset="1" stop-color="#CFD7F0"></stop></linearGradient><linearGradient id="paint10_linear_1129_3371" x1="20.8761" y1="8.8826" x2="21.5953" y2="11.9347" gradientUnits="userSpaceOnUse"><stop stop-color="#F6EBF8"></stop><stop offset="0.31" stop-color="#F1E8F7"></stop><stop offset="0.65" stop-color="#E4E2F4"></stop><stop offset="1" stop-color="#CFD7F0"></stop></linearGradient><linearGradient id="paint11_linear_1129_3371" x1="16.3589" y1="2.75598" x2="17.7791" y2="4.18084" gradientUnits="userSpaceOnUse"><stop stop-color="#F6EBF8"></stop><stop offset="0.31" stop-color="#F1E8F7"></stop><stop offset="0.65" stop-color="#E4E2F4"></stop><stop offset="1" stop-color="#CFD7F0"></stop></linearGradient><linearGradient id="paint12_linear_1129_3371" x1="15.4892" y1="4.2817" x2="15.3236" y2="10.2624" gradientUnits="userSpaceOnUse"><stop stop-color="#F6EBF8"></stop><stop offset="0.31" stop-color="#F1E8F7"></stop><stop offset="0.65" stop-color="#E4E2F4"></stop><stop offset="1" stop-color="#CFD7F0"></stop></linearGradient><linearGradient id="paint13_linear_1129_3371" x1="22.5025" y1="6.51655" x2="23.934" y2="7.95338" gradientUnits="userSpaceOnUse"><stop stop-color="#F6EBF8"></stop><stop offset="0.31" stop-color="#F1E8F7"></stop><stop offset="0.65" stop-color="#E4E2F4"></stop><stop offset="1" stop-color="#CFD7F0"></stop></linearGradient><radialGradient id="paint14_radial_1129_3371" cx="0" cy="0" r="1" gradientUnits="userSpaceOnUse" gradientTransform="translate(19.3834 6.28) rotate(77.4399) scale(2.00638 2.5418)"><stop offset="0.49" stop-color="#1B5336"></stop><stop offset="0.62" stop-color="#1D5437"></stop><stop offset="0.68" stop-color="#245A3E"></stop><stop offset="0.73" stop-color="#31644A"></stop><stop offset="0.77" stop-color="#44725A"></stop><stop offset="0.81" stop-color="#5C846F"></stop><stop offset="0.84" stop-color="#799A89"></stop><stop offset="0.87" stop-color="#9DB5A8"></stop><stop offset="0.9" stop-color="#C6D4CC"></stop><stop offset="0.93" stop-color="#F2F5F4"></stop><stop offset="0.94" stop-color="white"></stop></radialGradient><linearGradient id="paint15_linear_1129_3371" x1="21.6399" y1="5.20067" x2="16.7043" y2="10.9968" gradientUnits="userSpaceOnUse"><stop stop-color="#0C7C4E"></stop><stop offset="0.76" stop-color="#1B5336"></stop></linearGradient><linearGradient id="paint16_linear_1129_3371" x1="19.3147" y1="8.08852" x2="19.7228" y2="8.49819" gradientUnits="userSpaceOnUse"><stop stop-color="#F6EBF8"></stop><stop offset="0.31" stop-color="#F1E8F7"></stop><stop offset="0.65" stop-color="#E4E2F4"></stop><stop offset="1" stop-color="#CFD7F0"></stop></linearGradient><linearGradient id="paint17_linear_1129_3371" x1="17.6651" y1="7.64436" x2="18.0313" y2="8.01179" gradientUnits="userSpaceOnUse"><stop stop-color="#F6EBF8"></stop><stop offset="0.31" stop-color="#F1E8F7"></stop><stop offset="0.65" stop-color="#E4E2F4"></stop><stop offset="1" stop-color="#CFD7F0"></stop></linearGradient><linearGradient id="paint18_linear_1129_3371" x1="16.6358" y1="6.44659" x2="17.0441" y2="6.85648" gradientUnits="userSpaceOnUse"><stop stop-color="#F6EBF8"></stop><stop offset="0.31" stop-color="#F1E8F7"></stop><stop offset="0.65" stop-color="#E4E2F4"></stop><stop offset="1" stop-color="#CFD7F0"></stop></linearGradient><linearGradient id="paint19_linear_1129_3371" x1="21.0105" y1="7.57726" x2="21.2328" y2="7.80025" gradientUnits="userSpaceOnUse"><stop stop-color="#F6EBF8"></stop><stop offset="0.31" stop-color="#F1E8F7"></stop><stop offset="0.65" stop-color="#E4E2F4"></stop><stop offset="1" stop-color="#CFD7F0"></stop></linearGradient><linearGradient id="paint20_linear_1129_3371" x1="20.3385" y1="4.78012" x2="20.7047" y2="5.14755" gradientUnits="userSpaceOnUse"><stop stop-color="#F6EBF8"></stop><stop offset="0.31" stop-color="#F1E8F7"></stop><stop offset="0.65" stop-color="#E4E2F4"></stop><stop offset="1" stop-color="#CFD7F0"></stop></linearGradient><linearGradient id="paint21_linear_1129_3371" x1="17.0132" y1="5.1289" x2="17.2369" y2="5.35343" gradientUnits="userSpaceOnUse"><stop stop-color="#F6EBF8"></stop><stop offset="0.31" stop-color="#F1E8F7"></stop><stop offset="0.65" stop-color="#E4E2F4"></stop><stop offset="1" stop-color="#CFD7F0"></stop></linearGradient><linearGradient id="paint22_linear_1129_3371" x1="21.375" y1="6.16453" x2="21.7554" y2="6.54639" gradientUnits="userSpaceOnUse"><stop stop-color="#F6EBF8"></stop><stop offset="0.31" stop-color="#F1E8F7"></stop><stop offset="0.65" stop-color="#E4E2F4"></stop><stop offset="1" stop-color="#CFD7F0"></stop></linearGradient><linearGradient id="paint23_linear_1129_3371" x1="18.3936" y1="4.33988" x2="18.7731" y2="4.72076" gradientUnits="userSpaceOnUse"><stop stop-color="#F6EBF8"></stop><stop offset="0.31" stop-color="#F1E8F7"></stop><stop offset="0.65" stop-color="#E4E2F4"></stop><stop offset="1" stop-color="#CFD7F0"></stop></linearGradient><radialGradient id="paint24_radial_1129_3371" cx="0" cy="0" r="1" gradientUnits="userSpaceOnUse" gradientTransform="translate(19.4348 6.274) rotate(75.8382) scale(2.00058 2.83766)"><stop offset="0.82" stop-color="white"></stop><stop offset="0.84" stop-color="#F6F8F7"></stop><stop offset="0.86" stop-color="#DFE7E3"></stop><stop offset="0.9" stop-color="#B9CAC1"></stop><stop offset="0.93" stop-color="#84A293"></stop><stop offset="0.98" stop-color="#427058"></stop><stop offset="1" stop-color="#1B5336"></stop></radialGradient><radialGradient id="paint25_radial_1129_3371" cx="0" cy="0" r="1" gradientUnits="userSpaceOnUse" gradientTransform="translate(15.0689 6.50441) rotate(16.9226) scale(6.48883 5.05524)"><stop stop-color="white"></stop><stop offset="0.04" stop-color="white" stop-opacity="0.94"></stop><stop offset="0.21" stop-color="white" stop-opacity="0.66"></stop><stop offset="0.38" stop-color="white" stop-opacity="0.42"></stop><stop offset="0.53" stop-color="white" stop-opacity="0.24"></stop><stop offset="0.67" stop-color="white" stop-opacity="0.11"></stop><stop offset="0.78" stop-color="white" stop-opacity="0.03"></stop><stop offset="0.85" stop-color="white" stop-opacity="0"></stop></radialGradient></defs></svg>