<svg xmlns="http://www.w3.org/2000/svg" width="27" height="14" viewBox="0 0 27 14" fill="none"><path d="M10.7931 8.05136C14.0258 10.5084 17.7534 11.8834 19.119 11.1225C20.4847 10.3616 18.9711 7.75302 15.7385 5.29602C12.5058 2.83902 8.7782 1.46403 7.41258 2.2249C6.04697 2.98576 7.56049 5.59436 10.7931 8.05136Z" fill="url(#paint0_linear_1129_3348)"></path><path d="M11.9841 7.38747C13.6601 8.66136 15.5925 9.37439 16.3002 8.98006C17.0079 8.58573 16.223 7.23337 14.547 5.95948C12.871 4.68559 10.9386 3.97256 10.2309 4.36689C9.52313 4.76121 10.3081 6.11358 11.9841 7.38747Z" fill="url(#paint1_linear_1129_3348)"></path><path d="M16.5827 9.37032L15.4892 9.66777C15.2745 9.72624 15.4041 10.0878 15.7791 10.4748L16.3396 11.0545C16.8002 11.1448 17.2048 11.1528 17.531 11.063C17.8582 10.9748 18.082 10.7952 18.2121 10.5438L17.6517 9.9641C17.2767 9.57706 16.7978 9.31029 16.5831 9.36876L16.5827 9.37032Z" fill="url(#paint2_linear_1129_3348)"></path><path d="M9.94728 3.97847L11.0408 3.68102C11.2555 3.62255 11.1259 3.26101 10.7509 2.87396L10.1905 2.2943C9.72985 2.204 9.3252 2.19598 8.99904 2.2858C8.67181 2.37398 8.44804 2.55357 8.31788 2.80503L8.87835 3.38469C9.25331 3.77173 9.73224 4.0385 9.9469 3.98003L9.94728 3.97847Z" fill="url(#paint3_linear_1129_3348)"></path><path d="M8.99906 6.2831L8.20517 4.72865C8.04878 4.42271 7.69953 4.07384 7.42354 3.94797L7.01296 3.76073C7.20123 4.4992 7.66562 5.42465 8.37135 6.42171L8.78298 6.60902C9.05897 6.7349 9.15545 6.58904 8.99906 6.2831Z" fill="url(#paint4_linear_1129_3348)"></path><path d="M17.5338 7.06549L18.3277 8.61993C18.4841 8.92587 18.8333 9.27475 19.1093 9.40062L19.5199 9.58786C19.3316 8.84938 18.8672 7.92394 18.1615 6.92688L17.7499 6.73956C17.4739 6.61369 17.3774 6.75955 17.5338 7.06549Z" fill="url(#paint5_linear_1129_3348)"></path><path d="M14.0063 4.15664L15.9621 5.57968C16.3474 5.86014 16.6528 5.9007 16.6454 5.67287L16.6348 5.33188C15.5213 4.31523 14.3515 3.47149 13.2873 2.89687L13.297 3.23635C13.3031 3.4641 13.6209 3.87619 14.0054 4.15513L14.0063 4.15664Z" fill="url(#paint6_linear_1129_3348)"></path><path d="M13.2448 10.4501L13.2352 10.1106C13.2291 9.88288 12.9112 9.47079 12.5268 9.19185L10.571 7.76881C10.1856 7.48836 9.88159 7.44788 9.8877 7.67562L9.89832 8.01661C11.0117 9.03326 12.1816 9.877 13.2458 10.4516L13.2448 10.4501Z" fill="url(#paint7_linear_1129_3348)"></path><path d="M11.6664 7.0042C10.4447 5.65945 10.1704 4.4223 11.054 4.23944C11.9375 4.05658 13.6444 4.99913 14.8653 6.34243C16.087 7.68719 16.3613 8.92433 15.4777 9.10719C14.5942 9.29005 12.8873 8.3475 11.6664 7.0042Z" fill="url(#paint8_radial_1129_3348)" style="mix-blend-mode: multiply;"></path><path d="M12.14 7.30048C13.6114 8.41884 15.308 9.04478 15.9294 8.69854C16.5508 8.35231 15.8618 7.16501 14.3904 6.04665C12.919 4.92828 11.2224 4.30235 10.601 4.64858C9.97959 4.99482 10.6686 6.18211 12.14 7.30048Z" fill="url(#paint9_linear_1129_3348)"></path><path d="M10.3943 5.22475L10.0771 5.03513C10.0979 5.16941 10.1408 5.3192 10.2063 5.48172L10.5202 5.66971C10.4547 5.50719 10.4118 5.35741 10.3952 5.22621L10.3943 5.22475Z" fill="url(#paint10_linear_1129_3348)"></path><path d="M11.6443 4.7726L11.3136 4.42952C11.2462 4.43308 11.1829 4.44304 11.1242 4.45789C11.0664 4.47433 11.0146 4.49576 10.9686 4.52215L11.2993 4.86523C11.3429 4.83716 11.3937 4.81413 11.4514 4.79769C11.5092 4.78124 11.5735 4.77288 11.6433 4.771L11.6443 4.7726Z" fill="url(#paint11_linear_1129_3348)"></path><path d="M13.6772 5.28343L13.584 5.0186C13.3701 4.88705 13.1622 4.77502 12.9634 4.68121L13.0572 4.94902C13.2545 5.03832 13.4623 5.15036 13.6772 5.28343Z" fill="url(#paint12_linear_1129_3348)"></path><path d="M10.7004 6.48778L10.5377 6.53375C10.6593 6.68718 10.7909 6.8441 10.9332 7.00175C10.9651 7.03742 10.9982 7.07318 11.0325 7.10901L11.1916 7.06279C11.1585 7.02704 11.1254 6.99128 11.0924 6.95553C10.9491 6.79642 10.8175 6.63951 10.6995 6.48633L10.7004 6.48778Z" fill="url(#paint13_linear_1129_3348)"></path><path d="M14.8873 8.5747L15.218 8.91778C15.2854 8.91422 15.3487 8.90426 15.4074 8.88941C15.4652 8.87296 15.517 8.85155 15.563 8.82516L15.2323 8.48207C15.1887 8.51015 15.1379 8.53317 15.0802 8.54962C15.0224 8.56607 14.9581 8.57443 14.8883 8.5763L14.8873 8.5747Z" fill="url(#paint14_linear_1129_3348)"></path><path d="M15.5664 6.55755L15.7323 6.51037C15.6991 6.47396 15.6671 6.43762 15.6317 6.39963C15.4834 6.23868 15.3289 6.083 15.174 5.93442L15.0044 5.98134C15.1621 6.12869 15.3166 6.28437 15.4649 6.44532C15.4981 6.48174 15.5322 6.51964 15.5655 6.55606L15.5664 6.55755Z" fill="url(#paint15_linear_1129_3348)"></path><path d="M12.5392 7.91277L12.6306 8.17622C12.8431 8.32048 13.0507 8.44705 13.2508 8.55578L13.16 8.29525C12.9596 8.18795 12.751 8.05987 12.5379 7.91268L12.5392 7.91277Z" fill="url(#paint16_linear_1129_3348)"></path><path d="M16.1949 7.96698L16.4958 8.15128C16.4575 8.00727 16.3969 7.84799 16.3171 7.68051L16.013 7.49463C16.0968 7.66513 16.1574 7.82441 16.1957 7.96842L16.1949 7.96698Z" fill="url(#paint17_linear_1129_3348)"></path><path d="M11.9841 7.38747C13.6601 8.66136 15.5925 9.37439 16.3002 8.98006C17.0079 8.58573 16.223 7.23337 14.547 5.95948C12.871 4.68559 10.9386 3.97256 10.2309 4.36689C9.52313 4.76121 10.3081 6.11358 11.9841 7.38747Z" fill="url(#paint18_radial_1129_3348)" style="mix-blend-mode: multiply;"></path><path d="M10.3967 3.51768C11.5398 3.28068 13.7582 4.50499 15.3405 6.24494C16.9228 7.98488 17.2789 9.59327 16.1358 9.83027C14.9927 10.0673 12.7744 8.84297 11.1921 7.10302C9.60975 5.36307 9.25362 3.75467 10.3967 3.51768Z" fill="url(#paint19_radial_1129_3348)" style="mix-blend-mode: multiply;"></path><defs><linearGradient id="paint0_linear_1129_3348" x1="20.2046" y1="9.88997" x2="-10.6934" y2="6.74562" gradientUnits="userSpaceOnUse"><stop stop-color="#E50656"></stop><stop offset="0.76" stop-color="#99002E"></stop></linearGradient><linearGradient id="paint1_linear_1129_3348" x1="22.8184" y1="12.3965" x2="6.69189" y2="1.68678" gradientUnits="userSpaceOnUse"><stop stop-color="#E50656"></stop><stop offset="0.76" stop-color="#99002E"></stop></linearGradient><linearGradient id="paint2_linear_1129_3348" x1="16.8009" y1="10.1749" x2="14.504" y2="13.4218" gradientUnits="userSpaceOnUse"><stop stop-color="#F6EBF8"></stop><stop offset="0.31" stop-color="#F1E8F7"></stop><stop offset="0.65" stop-color="#E4E2F4"></stop><stop offset="1" stop-color="#CFD7F0"></stop></linearGradient><linearGradient id="paint3_linear_1129_3348" x1="8.78536" y1="2.4277" x2="1.45669" y2="2.13797" gradientUnits="userSpaceOnUse"><stop stop-color="#F6EBF8"></stop><stop offset="0.31" stop-color="#F1E8F7"></stop><stop offset="0.65" stop-color="#E4E2F4"></stop><stop offset="1" stop-color="#CFD7F0"></stop></linearGradient><linearGradient id="paint4_linear_1129_3348" x1="7.679" y1="5.09738" x2="4.13505" y2="6.36599" gradientUnits="userSpaceOnUse"><stop stop-color="#F6EBF8"></stop><stop offset="0.31" stop-color="#F1E8F7"></stop><stop offset="0.65" stop-color="#E4E2F4"></stop><stop offset="1" stop-color="#CFD7F0"></stop></linearGradient><linearGradient id="paint5_linear_1129_3348" x1="18.9141" y1="7.70234" x2="18.1069" y2="8.47303" gradientUnits="userSpaceOnUse"><stop stop-color="#F6EBF8"></stop><stop offset="0.31" stop-color="#F1E8F7"></stop><stop offset="0.65" stop-color="#E4E2F4"></stop><stop offset="1" stop-color="#CFD7F0"></stop></linearGradient><linearGradient id="paint6_linear_1129_3348" x1="15.2659" y1="4.02727" x2="14.6011" y2="4.73191" gradientUnits="userSpaceOnUse"><stop stop-color="#F6EBF8"></stop><stop offset="0.31" stop-color="#F1E8F7"></stop><stop offset="0.65" stop-color="#E4E2F4"></stop><stop offset="1" stop-color="#CFD7F0"></stop></linearGradient><linearGradient id="paint7_linear_1129_3348" x1="11.909" y1="8.49505" x2="10.2708" y2="10.4182" gradientUnits="userSpaceOnUse"><stop stop-color="#F6EBF8"></stop><stop offset="0.31" stop-color="#F1E8F7"></stop><stop offset="0.65" stop-color="#E4E2F4"></stop><stop offset="1" stop-color="#CFD7F0"></stop></linearGradient><radialGradient id="paint8_radial_1129_3348" cx="0" cy="0" r="1" gradientUnits="userSpaceOnUse" gradientTransform="translate(13.5737 6.94738) rotate(145.107) scale(1.34866 3.32002)"><stop offset="0.84" stop-color="#820026"></stop><stop offset="0.87" stop-color="#A2425E"></stop><stop offset="0.91" stop-color="#C28496"></stop><stop offset="0.94" stop-color="#DCB9C3"></stop><stop offset="0.97" stop-color="#EFDFE3"></stop><stop offset="0.99" stop-color="#FAF6F7"></stop><stop offset="1" stop-color="white"></stop></radialGradient><linearGradient id="paint9_linear_1129_3348" x1="15.8468" y1="7.86426" x2="2.57137" y2="6.50304" gradientUnits="userSpaceOnUse"><stop stop-color="#E50656"></stop><stop offset="0.76" stop-color="#99002E"></stop></linearGradient><linearGradient id="paint10_linear_1129_3348" x1="10.4155" y1="5.23145" x2="10.1956" y2="5.45755" gradientUnits="userSpaceOnUse"><stop stop-color="#F6EBF8"></stop><stop offset="0.31" stop-color="#F1E8F7"></stop><stop offset="0.65" stop-color="#E4E2F4"></stop><stop offset="1" stop-color="#CFD7F0"></stop></linearGradient><linearGradient id="paint11_linear_1129_3348" x1="11.4339" y1="4.52445" x2="11.2102" y2="4.76874" gradientUnits="userSpaceOnUse"><stop stop-color="#F6EBF8"></stop><stop offset="0.31" stop-color="#F1E8F7"></stop><stop offset="0.65" stop-color="#E4E2F4"></stop><stop offset="1" stop-color="#CFD7F0"></stop></linearGradient><linearGradient id="paint12_linear_1129_3348" x1="13.4361" y1="4.86577" x2="13.2252" y2="5.09158" gradientUnits="userSpaceOnUse"><stop stop-color="#F6EBF8"></stop><stop offset="0.31" stop-color="#F1E8F7"></stop><stop offset="0.65" stop-color="#E4E2F4"></stop><stop offset="1" stop-color="#CFD7F0"></stop></linearGradient><linearGradient id="paint13_linear_1129_3348" x1="10.9473" y1="6.71466" x2="10.7982" y2="6.86752" gradientUnits="userSpaceOnUse"><stop stop-color="#F6EBF8"></stop><stop offset="0.31" stop-color="#F1E8F7"></stop><stop offset="0.65" stop-color="#E4E2F4"></stop><stop offset="1" stop-color="#CFD7F0"></stop></linearGradient><linearGradient id="paint14_linear_1129_3348" x1="15.3511" y1="8.57541" x2="15.1268" y2="8.82044" gradientUnits="userSpaceOnUse"><stop stop-color="#F6EBF8"></stop><stop offset="0.31" stop-color="#F1E8F7"></stop><stop offset="0.65" stop-color="#E4E2F4"></stop><stop offset="1" stop-color="#CFD7F0"></stop></linearGradient><linearGradient id="paint15_linear_1129_3348" x1="15.4405" y1="6.17399" x2="15.3166" y2="6.30361" gradientUnits="userSpaceOnUse"><stop stop-color="#F6EBF8"></stop><stop offset="0.31" stop-color="#F1E8F7"></stop><stop offset="0.65" stop-color="#E4E2F4"></stop><stop offset="1" stop-color="#CFD7F0"></stop></linearGradient><linearGradient id="paint16_linear_1129_3348" x1="13.0004" y1="8.12933" x2="12.8101" y2="8.33082" gradientUnits="userSpaceOnUse"><stop stop-color="#F6EBF8"></stop><stop offset="0.31" stop-color="#F1E8F7"></stop><stop offset="0.65" stop-color="#E4E2F4"></stop><stop offset="1" stop-color="#CFD7F0"></stop></linearGradient><linearGradient id="paint17_linear_1129_3348" x1="16.36" y1="7.70914" x2="16.1559" y2="7.91441" gradientUnits="userSpaceOnUse"><stop stop-color="#F6EBF8"></stop><stop offset="0.31" stop-color="#F1E8F7"></stop><stop offset="0.65" stop-color="#E4E2F4"></stop><stop offset="1" stop-color="#CFD7F0"></stop></linearGradient><radialGradient id="paint18_radial_1129_3348" cx="0" cy="0" r="1" gradientUnits="userSpaceOnUse" gradientTransform="translate(12.8513 6.33609) rotate(153.279) scale(1.57439 3.58044)"><stop offset="0.85" stop-color="white"></stop><stop offset="0.86" stop-color="#FAF6F7"></stop><stop offset="0.88" stop-color="#EFDFE3"></stop><stop offset="0.91" stop-color="#DCB9C3"></stop><stop offset="0.94" stop-color="#C28496"></stop><stop offset="0.97" stop-color="#A2425E"></stop><stop offset="1" stop-color="#820026"></stop></radialGradient><radialGradient id="paint19_radial_1129_3348" cx="0" cy="0" r="1" gradientUnits="userSpaceOnUse" gradientTransform="translate(12.6875 6.10634) rotate(145.107) scale(2.01338 4.74394)"><stop offset="0.82" stop-color="white"></stop><stop offset="0.83" stop-color="#FAF6F7"></stop><stop offset="0.86" stop-color="#EFDFE3"></stop><stop offset="0.89" stop-color="#DCB9C3"></stop><stop offset="0.93" stop-color="#C28496"></stop><stop offset="0.96" stop-color="#A2425E"></stop><stop offset="1" stop-color="#820026"></stop></radialGradient></defs></svg>