<svg width="14" height="14" viewBox="0 0 14 14" fill="none" xmlns="http://www.w3.org/2000/svg">
<rect width="14" height="14" rx="3.56146" transform="matrix(1 0 0 -1 0 14)" fill="white"/>
<path d="M4.35156 7.29551C4.35156 8.63112 4.35156 9.29893 4.76459 9.71392C5.17811 10.1289 5.84298 10.1289 7.17369 10.1289H8.58476C9.91498 10.1289 10.5803 10.1289 10.9934 9.71392C11.4069 9.29893 11.4069 8.63112 11.4069 7.29551V4.93394C11.4069 3.59832 11.4069 2.93052 10.9934 2.51553C10.5803 2.10054 9.91498 2.10054 8.58476 2.10054H7.17369C5.84298 2.10054 5.17811 2.10054 4.76459 2.51553C4.35107 2.93052 4.35156 3.59832 4.35156 4.93394V7.29551Z" fill="#444951"/>
<path opacity="0.5" d="M3.16016 11.3281C2.58594 10.7544 2.58594 9.83033 2.58594 7.98272V7.00281C2.58594 5.1552 2.58594 4.23115 3.16016 3.65742C3.46246 3.35462 3.86226 3.21156 4.44384 3.14394C4.34977 3.5555 4.34977 4.12189 4.34977 4.93717V7.29826C4.34977 8.63387 4.34977 9.30167 4.7628 9.71666C5.17632 10.1317 5.84118 10.1317 7.1719 10.1317H8.58296C9.39236 10.1317 9.95483 10.1317 10.3654 10.0386C10.2978 10.6231 10.1547 11.0243 9.85096 11.3281C9.27722 11.9023 8.35317 11.9023 6.50556 11.9023C4.65795 11.9023 3.7339 11.9023 3.16016 11.3281Z" fill="#444951"/>
</svg>
