<svg width="21" height="21" viewBox="0 0 21 21" fill="none" xmlns="http://www.w3.org/2000/svg">
<path d="M15.7552 10.965H12.9C10.7586 10.965 9.67499 9.7524 9.67499 7.353V4.8848C9.67499 4.0076 9.77819 2.752 10.6898 2.064C11.4552 1.4964 12.556 1.4534 14.1814 1.9264C16.3142 2.5456 18.0944 4.3258 18.7136 6.4586C19.1866 8.0754 19.1436 9.1848 18.576 9.9416C17.888 10.8618 16.6324 10.965 15.7552 10.965ZM12.2808 2.8896C11.9282 2.8896 11.653 2.9584 11.4724 3.096C11.137 3.3454 10.9736 3.9302 10.9736 4.8848V7.3616C10.9736 9.288 11.7132 9.6836 12.9086 9.6836H15.7638C16.7098 9.6836 17.2946 9.5202 17.5526 9.1848C17.8536 8.7892 17.8278 7.998 17.4924 6.837C16.9936 5.1428 15.5316 3.6722 13.8374 3.182C13.201 2.9842 12.685 2.8896 12.2808 2.8896Z" fill="white"/>
<path d="M9.52023 19.565C9.06443 19.565 8.60003 19.5306 8.13563 19.4532C4.61823 18.8856 1.75443 16.0304 1.18683 12.513C0.455826 7.9894 3.37123 3.7238 7.83463 2.8122C8.18723 2.7434 8.52263 2.967 8.60003 3.311C8.66883 3.6636 8.44523 3.999 8.10123 4.0764C4.32583 4.8504 1.84903 8.4624 2.47683 12.3066C2.95843 15.2822 5.37503 17.6988 8.35063 18.1804C12.212 18.7996 15.8154 16.3142 16.5808 12.5216C16.6496 12.169 16.9936 11.9454 17.3376 12.0142C17.6902 12.083 17.9138 12.427 17.845 12.771C17.028 16.7872 13.5192 19.565 9.52023 19.565Z" fill="white"/>
</svg>
