<svg width="118" height="100" viewBox="0 0 118 100" fill="none" xmlns="http://www.w3.org/2000/svg">
<g clip-path="url(#clip0_5610_1607)">
<path d="M80.1296 48.8258C79.6921 37.7966 70.6176 28.8695 59.5789 28.6032C53.7337 28.4653 48.4213 30.7006 44.5261 34.4151C44.7544 38.3293 46.0908 47.3324 53.163 55.4462C55.9643 58.6565 59.6645 61.7289 64.5537 64.2923C64.5537 64.2923 48.5639 62.466 40.5405 39.5991C40.5358 39.6039 40.5358 39.6086 40.531 39.6134C40.0554 40.4885 39.8604 41.4825 39.9318 42.4765C40.3408 47.8746 43.4322 57.6482 58.8655 65.605C58.8655 65.605 52.6208 65.6764 46.3096 59.465L41.1018 52.5878C40.0745 50.8043 39.1042 48.7782 38.2196 46.4716C38.2196 46.4763 38.2149 46.4858 38.2149 46.4906C38.0151 47.8413 38.1245 49.2158 38.4907 50.5284C39.6226 54.5663 42.1291 59.9121 47.6651 63.988H47.6698C48.8065 64.8298 50.0716 65.6098 51.4746 66.3184L42.2765 62.4375C46.1241 67.5027 52.2118 70.77 59.0652 70.77C70.5653 70.77 79.9251 61.5529 80.1439 50.0909V49.9815C80.1486 49.601 80.1439 49.2158 80.1296 48.8258Z" fill="url(#paint0_linear_5610_1607)"/>
<path d="M59.1648 23.8419C67.8112 23.8419 75.8013 28.1746 80.5383 35.4275L81.0995 36.2884H114.063L106.007 48.302L105.298 49.3626L106.007 50.4232L114.063 62.4369H81.0995L80.5383 63.2978C75.7966 70.5507 67.8065 74.8834 59.1648 74.8834C50.5231 74.8834 42.5283 70.5507 37.7913 63.2978L37.2301 62.4369H4.26135L12.318 50.4232L13.0267 49.3626L12.318 48.302L4.26135 36.2884H37.2253L37.7865 35.4275C42.5283 28.1746 50.5184 23.8419 59.16 23.8419M59.1648 21.9395C49.5481 21.9395 41.0919 26.8952 36.198 34.3859H0.694336L10.7343 49.3626L0.694336 64.3393H36.198C41.0919 71.8301 49.5481 76.7858 59.1648 76.7858C68.7815 76.7858 77.2377 71.8301 82.1316 64.3393H117.635L107.595 49.3626L117.635 34.3859H82.1316C77.2377 26.8952 68.7815 21.9395 59.1648 21.9395Z" fill="black"/>
<path d="M116.65 67.3452H84.6471V69.2476H96.618C89.2319 83.1732 75.0209 91.7578 59.1643 91.7578C43.3078 91.7578 29.092 83.1732 21.7107 69.2476H33.0776V67.3452H1.0791V69.2476H19.58C23.166 76.3769 28.6069 82.4123 35.3557 86.7212C42.4612 91.2585 50.6939 93.6555 59.1691 93.6555C67.6443 93.6555 75.8722 91.2585 82.9777 86.7212C89.7265 82.4123 95.1674 76.3769 98.7534 69.2476H116.65V67.3452Z" fill="url(#paint1_linear_5610_1607)"/>
<path d="M99.0483 30.0911C91.6812 14.8718 76.1005 5.06494 59.1643 5.06494C42.2282 5.06494 26.6474 14.8718 19.2804 30.0911H1.0791V31.9935H33.0823V30.0911H21.4016C28.6069 15.9943 43.2697 6.96735 59.1691 6.96735C75.0684 6.96735 89.7265 15.9943 96.9366 30.0911H84.6518V31.9935H116.655V30.0911H99.053H99.0483Z" fill="url(#paint2_linear_5610_1607)"/>
<path d="M18.2077 51.9741V45.7515H19.897V50.6129H22.4128V51.9741H18.2077ZM24.785 45.7515V51.9741H23.0957V45.7515H24.785ZM31.395 48.085H29.6814C29.6692 47.9432 29.6368 47.8146 29.5842 47.6991C29.5335 47.5837 29.4626 47.4844 29.3715 47.4014C29.2823 47.3163 29.174 47.2515 29.0464 47.2069C28.9187 47.1603 28.7739 47.137 28.6119 47.137C28.3283 47.137 28.0883 47.2059 27.8918 47.3436C27.6973 47.4814 27.5495 47.6789 27.4482 47.9361C27.3489 48.1934 27.2993 48.5023 27.2993 48.8628C27.2993 49.2436 27.3499 49.5627 27.4512 49.8199C27.5545 50.0751 27.7034 50.2676 27.8979 50.3972C28.0923 50.5248 28.3263 50.5886 28.5997 50.5886C28.7557 50.5886 28.8955 50.5694 29.019 50.5309C29.1426 50.4904 29.2499 50.4327 29.3411 50.3577C29.4322 50.2828 29.5062 50.1926 29.5629 50.0873C29.6216 49.9799 29.6611 49.8594 29.6814 49.7257L31.395 49.7379C31.3748 50.0012 31.3008 50.2696 31.1732 50.543C31.0456 50.8145 30.8643 51.0656 30.6294 51.2966C30.3964 51.5255 30.1078 51.7098 29.7634 51.8495C29.4191 51.9893 29.019 52.0592 28.5633 52.0592C27.992 52.0592 27.4796 51.9366 27.0258 51.6916C26.5741 51.4465 26.2166 51.0859 25.9533 50.6099C25.692 50.1339 25.5613 49.5515 25.5613 48.8628C25.5613 48.1701 25.695 47.5867 25.9624 47.1127C26.2298 46.6367 26.5903 46.2772 27.0441 46.0341C27.4978 45.789 28.0042 45.6664 28.5633 45.6664C28.9562 45.6664 29.3178 45.7201 29.648 45.8275C29.9781 45.9348 30.2678 46.0918 30.5169 46.2984C30.7661 46.503 30.9666 46.7552 31.1185 47.055C31.2705 47.3548 31.3626 47.6981 31.395 48.085Z" fill="black"/>
<path d="M84.1713 48.4487C83.7552 48.4487 83.385 48.3812 83.0607 48.246C82.7382 48.1091 82.4851 47.9227 82.3013 47.6867C82.1176 47.4507 82.0257 47.1831 82.0257 46.8841C82.0257 46.6535 82.078 46.4418 82.1824 46.2491C82.2887 46.0545 82.4329 45.8933 82.6148 45.7653C82.7968 45.6356 83.0003 45.5528 83.2255 45.5167V45.4789C82.9301 45.4195 82.6905 45.2762 82.5067 45.0492C82.323 44.8204 82.2311 44.5547 82.2311 44.2521C82.2311 43.9656 82.3149 43.7107 82.4824 43.4873C82.6499 43.2621 82.8796 43.0856 83.1715 42.9577C83.4651 42.828 83.7984 42.7631 84.1713 42.7631C84.5442 42.7631 84.8766 42.828 85.1685 42.9577C85.4621 43.0874 85.6927 43.2648 85.8603 43.49C86.0278 43.7134 86.1125 43.9674 86.1143 44.2521C86.1125 44.5565 86.0188 44.8222 85.8332 45.0492C85.6477 45.2762 85.4099 45.4195 85.1198 45.4789V45.5167C85.3414 45.5528 85.5423 45.6356 85.7224 45.7653C85.9044 45.8933 86.0485 46.0545 86.1548 46.2491C86.2629 46.4418 86.3178 46.6535 86.3196 46.8841C86.3178 47.1831 86.2251 47.4507 86.0413 47.6867C85.8575 47.9227 85.6035 48.1091 85.2793 48.246C84.9568 48.3812 84.5875 48.4487 84.1713 48.4487ZM84.1713 47.5894C84.3569 47.5894 84.519 47.5561 84.6577 47.4894C84.7965 47.4209 84.9045 47.3273 84.982 47.2084C85.0613 47.0877 85.1009 46.9489 85.1009 46.7922C85.1009 46.6319 85.0604 46.4905 84.9793 46.368C84.8982 46.2436 84.7883 46.1464 84.6496 46.0761C84.5109 46.004 84.3515 45.968 84.1713 45.968C83.993 45.968 83.8335 46.004 83.693 46.0761C83.5525 46.1464 83.4417 46.2436 83.3606 46.368C83.2814 46.4905 83.2417 46.6319 83.2417 46.7922C83.2417 46.9489 83.2805 47.0877 83.3579 47.2084C83.4354 47.3273 83.5444 47.4209 83.6849 47.4894C83.8254 47.5561 83.9876 47.5894 84.1713 47.5894ZM84.1713 45.1168C84.3263 45.1168 84.4641 45.0853 84.5848 45.0222C84.7055 44.9592 84.8001 44.8718 84.8685 44.7601C84.937 44.6484 84.9712 44.5196 84.9712 44.3737C84.9712 44.2295 84.937 44.1034 84.8685 43.9953C84.8001 43.8855 84.7064 43.7999 84.5875 43.7386C84.4686 43.6756 84.3299 43.6441 84.1713 43.6441C84.0146 43.6441 83.8759 43.6756 83.7552 43.7386C83.6345 43.7999 83.5399 43.8855 83.4714 43.9953C83.4048 44.1034 83.3714 44.2295 83.3714 44.3737C83.3714 44.5196 83.4057 44.6484 83.4741 44.7601C83.5426 44.8718 83.6372 44.9592 83.7579 45.0222C83.8786 45.0853 84.0164 45.1168 84.1713 45.1168ZM89.3077 48.4946C88.8429 48.4928 88.443 48.3785 88.1079 48.1515C87.7746 47.9245 87.5179 47.5957 87.3377 47.1651C87.1594 46.7346 87.0711 46.2166 87.0729 45.6113C87.0729 45.0078 87.1621 44.4935 87.3404 44.0683C87.5206 43.6432 87.7773 43.3198 88.1106 43.0982C88.4457 42.8748 88.8447 42.7631 89.3077 42.7631C89.7707 42.7631 90.1688 42.8748 90.5021 43.0982C90.8372 43.3216 91.0948 43.6459 91.2749 44.071C91.4551 44.4944 91.5443 45.0078 91.5425 45.6113C91.5425 46.2184 91.4524 46.7373 91.2722 47.1678C91.0939 47.5984 90.8381 47.9272 90.5048 48.1542C90.1715 48.3812 89.7725 48.4946 89.3077 48.4946ZM89.3077 47.5245C89.6248 47.5245 89.8779 47.3651 90.067 47.0462C90.2562 46.7274 90.3499 46.2491 90.3481 45.6113C90.3481 45.1916 90.3048 44.8421 90.2184 44.5628C90.1337 44.2836 90.013 44.0737 89.8563 43.9332C89.7013 43.7927 89.5185 43.7224 89.3077 43.7224C88.9924 43.7224 88.7402 43.8801 88.551 44.1953C88.3619 44.5106 88.2664 44.9826 88.2646 45.6113C88.2646 46.0365 88.3069 46.3914 88.3916 46.676C88.4781 46.9589 88.5997 47.1714 88.7564 47.3138C88.9132 47.4543 89.0969 47.5245 89.3077 47.5245ZM92.293 47.4002V46.4787L94.6035 42.8388H95.398V44.1143H94.9278L93.4712 46.4193V46.4625H96.7545V47.4002H92.293ZM94.9494 48.373V47.1192L94.971 46.7111V42.8388H96.0681V48.373H94.9494ZM99.5987 48.4487C99.1825 48.4487 98.8123 48.3812 98.488 48.246C98.1655 48.1091 97.9124 47.9227 97.7287 47.6867C97.5449 47.4507 97.453 47.1831 97.453 46.8841C97.453 46.6535 97.5053 46.4418 97.6098 46.2491C97.7161 46.0545 97.8602 45.8933 98.0421 45.7653C98.2241 45.6356 98.4277 45.5528 98.6529 45.5167V45.4789C98.3574 45.4195 98.1178 45.2762 97.934 45.0492C97.7503 44.8204 97.6584 44.5547 97.6584 44.2521C97.6584 43.9656 97.7422 43.7107 97.9097 43.4873C98.0773 43.2621 98.307 43.0856 98.5988 42.9577C98.8925 42.828 99.2257 42.7631 99.5987 42.7631C99.9716 42.7631 100.304 42.828 100.596 42.9577C100.889 43.0874 101.12 43.2648 101.288 43.49C101.455 43.7134 101.54 43.9674 101.542 44.2521C101.54 44.5565 101.446 44.8222 101.261 45.0492C101.075 45.2762 100.837 45.4195 100.547 45.4789V45.5167C100.769 45.5528 100.97 45.6356 101.15 45.7653C101.332 45.8933 101.476 46.0545 101.582 46.2491C101.69 46.4418 101.745 46.6535 101.747 46.8841C101.745 47.1831 101.652 47.4507 101.469 47.6867C101.285 47.9227 101.031 48.1091 100.707 48.246C100.384 48.3812 100.015 48.4487 99.5987 48.4487ZM99.5987 47.5894C99.7842 47.5894 99.9463 47.5561 100.085 47.4894C100.224 47.4209 100.332 47.3273 100.409 47.2084C100.489 47.0877 100.528 46.9489 100.528 46.7922C100.528 46.6319 100.488 46.4905 100.407 46.368C100.326 46.2436 100.216 46.1464 100.077 46.0761C99.9382 46.004 99.7788 45.968 99.5987 45.968C99.4203 45.968 99.2609 46.004 99.1203 46.0761C98.9798 46.1464 98.869 46.2436 98.788 46.368C98.7087 46.4905 98.6691 46.6319 98.6691 46.7922C98.6691 46.9489 98.7078 47.0877 98.7853 47.2084C98.8627 47.3273 98.9717 47.4209 99.1122 47.4894C99.2528 47.5561 99.4149 47.5894 99.5987 47.5894ZM99.5987 45.1168C99.7536 45.1168 99.8914 45.0853 100.012 45.0222C100.133 44.9592 100.227 44.8718 100.296 44.7601C100.364 44.6484 100.399 44.5196 100.399 44.3737C100.399 44.2295 100.364 44.1034 100.296 43.9953C100.227 43.8855 100.134 43.7999 100.015 43.7386C99.8959 43.6756 99.7572 43.6441 99.5987 43.6441C99.4419 43.6441 99.3032 43.6756 99.1825 43.7386C99.0618 43.7999 98.9672 43.8855 98.8988 43.9953C98.8321 44.1034 98.7988 44.2295 98.7988 44.3737C98.7988 44.5196 98.833 44.6484 98.9015 44.7601C98.9699 44.8718 99.0645 44.9592 99.1852 45.0222C99.3059 45.0853 99.4437 45.1168 99.5987 45.1168ZM104.986 42.5794L103.203 49.2053H102.211L103.995 42.5794H104.986Z" fill="black"/>
<path d="M88.651 50.4481H89.8076V54.307C89.8076 54.6637 89.7274 54.9736 89.5671 55.2366C89.4085 55.4996 89.1878 55.7023 88.905 55.8446C88.6222 55.9869 88.2934 56.0581 87.9187 56.0581C87.5854 56.0581 87.2827 55.9995 87.0107 55.8824C86.7405 55.7635 86.5261 55.5834 86.3676 55.342C86.209 55.0988 86.1307 54.7934 86.1325 54.4259H87.2971C87.3007 54.5718 87.3305 54.697 87.3863 54.8015C87.444 54.9042 87.5223 54.9835 87.6214 55.0393C87.7223 55.0934 87.8412 55.1204 87.9781 55.1204C88.1222 55.1204 88.2438 55.0898 88.3429 55.0285C88.4438 54.9655 88.5204 54.8736 88.5726 54.7529C88.6249 54.6322 88.651 54.4836 88.651 54.307V50.4481ZM91.7289 55.9824H90.475L92.3855 50.4481H93.8934L95.8012 55.9824H94.5474L93.1611 51.7128H93.1179L91.7289 55.9824ZM91.6505 53.8071H94.6122V54.7205H91.6505V53.8071ZM96.4079 55.9824V55.2879L99.1696 51.4129H96.4025V50.4481H100.64V51.1426L97.8752 55.0177H100.645V55.9824H96.4079Z" fill="black"/>
<path d="M35.1039 26.7137L34.3166 27.4777L32.1439 22.8384L33.0907 21.9195L37.6611 24.2322L36.8738 24.9962L33.4015 23.1599L33.3744 23.1863L35.1039 26.7137ZM33.7292 25.3955L35.5889 23.5907L36.1455 24.1643L34.2857 25.969L33.7292 25.3955Z" fill="black"/>
<path d="M38.324 17.7617L41.1772 21.6744L40.4627 22.1955L36.9647 20.9741L36.936 20.995L38.7318 23.4577L37.9045 24.0609L35.0514 20.1482L35.7774 19.6188L39.2606 20.848L39.295 20.8229L37.5006 18.3622L38.324 17.7617Z" fill="black"/>
<path d="M39.5387 17.9908L39.1342 17.2499L42.625 15.3442L43.0295 16.0851L41.7282 16.7955L43.6441 20.305L42.7558 20.7899L40.84 17.2804L39.5387 17.9908Z" fill="black"/>
<path d="M44.2758 14.6484L46.2253 19.0811L45.2881 19.4933L43.3386 15.0605L44.2758 14.6484Z" fill="black"/>
<path d="M46.8375 18.8012L45.2457 14.2278L46.2127 13.8913L47.5269 17.6675L49.4876 16.9851L49.7651 17.7823L46.8375 18.8012Z" fill="black"/>
<path d="M50.1062 17.6924L48.9947 12.9792L49.9912 12.7442L50.9089 16.6358L52.9295 16.1593L53.1233 16.9809L50.1062 17.6924Z" fill="black"/>
<path d="M53.4676 16.9124L52.8883 12.1047L54.7851 11.8762C55.1498 11.8323 55.4688 11.8645 55.7423 11.9728C56.0155 12.0796 56.2343 12.2478 56.3985 12.4773C56.564 12.705 56.666 12.9785 56.7045 13.2978C56.743 13.617 56.7081 13.907 56.5997 14.1678C56.4914 14.4285 56.3148 14.6427 56.0699 14.8103C55.8265 14.9778 55.5201 15.0838 55.1508 15.1283L53.9418 15.2739L53.8436 14.4593L54.8883 14.3335C55.0839 14.3099 55.2411 14.2568 55.3597 14.1743C55.4798 14.0899 55.5638 13.9838 55.6119 13.8557C55.6614 13.7259 55.6766 13.582 55.6575 13.4239C55.6383 13.2643 55.5894 13.1289 55.5109 13.0176C55.4338 12.9047 55.3271 12.8231 55.1909 12.7728C55.0544 12.721 54.8876 12.7069 54.6904 12.7307L54.0049 12.8133L54.4841 16.79L53.4676 16.9124Z" fill="black"/>
<path d="M57.4332 16.4489L57.4839 11.6067L58.5077 11.6174L58.4868 13.6153L60.5651 13.6371L60.586 11.6392L61.6074 11.6499L61.5567 16.4921L60.5353 16.4814L60.5562 14.4811L58.4779 14.4594L58.457 16.4596L57.4332 16.4489Z" fill="black"/>
<path d="M66.9005 14.8289C66.8183 15.3505 66.6494 15.7787 66.394 16.1134C66.1401 16.4484 65.8282 16.6857 65.4583 16.8252C65.0903 16.9635 64.6952 16.9993 64.2732 16.9328C63.8482 16.8658 63.4819 16.7091 63.1744 16.4627C62.867 16.2164 62.644 15.8948 62.5055 15.4979C62.367 15.1011 62.3388 14.6426 62.4208 14.1225C62.503 13.6009 62.6711 13.1726 62.925 12.8376C63.1789 12.5026 63.4898 12.266 63.8579 12.1278C64.2263 11.988 64.623 11.9516 65.0481 12.0186C65.47 12.0851 65.8347 12.2416 66.1422 12.4879C66.4514 12.733 66.6753 13.0539 66.8138 13.4508C66.9539 13.8479 66.9828 14.3072 66.9005 14.8289ZM65.8752 14.6672C65.9285 14.3293 65.9228 14.0364 65.8582 13.7884C65.7951 13.5407 65.6819 13.3425 65.5186 13.1939C65.3554 13.0453 65.1515 12.9517 64.907 12.9131C64.6626 12.8746 64.4398 12.9009 64.2387 12.9921C64.0376 13.0833 63.8682 13.2369 63.7304 13.4529C63.5941 13.6692 63.4994 13.9463 63.4461 14.2842C63.3928 14.6221 63.3977 14.9149 63.4608 15.1626C63.5255 15.4106 63.6394 15.6089 63.8027 15.7575C63.966 15.9061 64.1698 15.9997 64.4143 16.0382C64.6588 16.0768 64.8815 16.0505 65.0826 15.9593C65.2837 15.8681 65.4524 15.7144 65.5886 15.4981C65.7264 15.282 65.8219 15.0051 65.8752 14.6672Z" fill="black"/>
<path d="M72.3087 13.9314L70.8727 18.556L70.0282 18.2938L68.92 14.7583L68.8861 14.7478L67.9823 17.6585L67.0045 17.3549L68.4405 12.7303L69.2986 12.9967L70.3917 16.525L70.4324 16.5376L71.3355 13.6292L72.3087 13.9314Z" fill="black"/>
<path d="M71.4788 18.8147L73.4915 14.4103L76.4593 15.7666L76.1085 16.5344L74.0719 15.6036L73.5923 16.6531L75.4762 17.5141L75.1253 18.2818L73.2414 17.4209L72.7608 18.4725L74.806 19.4071L74.4552 20.1749L71.4788 18.8147Z" fill="black"/>
<path d="M82.0557 19.2362L79.3569 23.2569L78.6227 22.7641L78.572 19.0593L78.5426 19.0395L76.844 21.5702L75.9939 20.9996L78.6926 16.9788L79.4387 17.4796L79.4769 21.1732L79.5123 21.1969L81.2095 18.6682L82.0557 19.2362Z" fill="black"/>
<path d="M80.2222 24.0961C80.1017 23.997 80.0333 23.8692 80.017 23.7129C80.003 23.5564 80.0455 23.4178 80.1447 23.2974C80.2429 23.1781 80.3696 23.1109 80.5249 23.0959C80.6815 23.0818 80.82 23.1243 80.9405 23.2235C81.0573 23.3197 81.1245 23.4464 81.142 23.6038C81.1595 23.7611 81.1191 23.8994 81.021 24.0187C80.9548 24.099 80.8735 24.1556 80.7771 24.1885C80.6828 24.2211 80.5863 24.2305 80.4875 24.2165C80.3897 24.2014 80.3013 24.1613 80.2222 24.0961Z" fill="black"/>
<path d="M86.2133 22.9149L84.3119 26.2751L84.3425 26.308L87.8374 24.6657L88.6093 25.4978L83.9238 27.5672L83.0265 26.6L85.4398 22.0811L86.2133 22.9149Z" fill="black"/>
<path d="M41.9195 78.72L41.3277 81.8431L41.3582 81.8591L43.5936 79.5993L44.5876 80.1214L41.4177 83.1449L40.2353 82.5238L40.9255 78.1979L41.9195 78.72Z" fill="black"/>
<path d="M45.2586 84.9722L46.5708 81.0344L49.3165 81.9494L49.0589 82.7223L47.265 82.1245L46.9959 82.9321L48.6495 83.4831L48.3912 84.258L46.7377 83.707L46.4679 84.5165L48.2619 85.1143L48.0043 85.8872L45.2586 84.9722Z" fill="black"/>
<path d="M50.6895 86.6671L51.376 82.5735L53.067 82.8571C53.3735 82.9085 53.6287 83.0082 53.8327 83.1561C54.0383 83.3029 54.1844 83.4891 54.2713 83.7146C54.3584 83.9388 54.3784 84.1909 54.3315 84.4707C54.2839 84.7545 54.1815 84.9853 54.0243 85.1631C53.8673 85.3395 53.6661 85.4606 53.4208 85.5263C53.1758 85.5907 52.8973 85.5968 52.5855 85.5445L51.5162 85.3651L51.6469 84.5856L52.5324 84.7341C52.6816 84.7591 52.8094 84.7607 52.9158 84.7388C53.0238 84.7158 53.1105 84.6687 53.1759 84.5975C53.2415 84.5249 53.2849 84.4253 53.3061 84.2987C53.3274 84.1721 53.3189 84.0632 53.2808 83.9719C53.2429 83.8792 53.1768 83.8037 53.0824 83.7454C52.9883 83.6858 52.8673 83.6436 52.7194 83.6188L52.2317 83.537L51.6789 86.833L50.6895 86.6671ZM53.3079 85.1827L54.0135 87.2245L52.9342 87.0435L52.2485 85.005L53.3079 85.1827Z" fill="black"/>
<path d="M57.7131 83.3735L57.5132 87.5194L56.5112 87.4711L56.7111 83.3252L57.7131 83.3735Z" fill="black"/>
<path d="M59.5437 87.598L59.2838 83.4554L62.1116 83.278L62.1626 84.0911L60.3361 84.2057L60.3894 85.0553L62.0359 84.952L62.087 85.7671L60.4405 85.8704L60.545 87.5351L59.5437 87.598Z" fill="black"/>
<path d="M64.9804 82.8869L65.6776 86.9786L64.6886 87.1471L63.9914 83.0554L64.9804 82.8869Z" fill="black"/>
<path d="M67.6806 86.6247L66.5254 82.638L69.3052 81.8325L69.532 82.6151L67.7158 83.1413L67.9527 83.9589L69.6268 83.4738L69.8541 84.2583L68.18 84.7434L68.4175 85.563L70.2337 85.0367L70.4604 85.8192L67.6806 86.6247Z" fill="black"/>
<path d="M74.5341 84.2856L73.1483 84.9439L71.3673 81.1948L72.7513 80.5373C73.1333 80.3559 73.4978 80.2747 73.845 80.2938C74.1927 80.311 74.5083 80.4244 74.7918 80.6338C75.0747 80.8419 75.3086 81.1407 75.4935 81.53C75.6791 81.9205 75.7634 82.2918 75.7467 82.6438C75.7311 82.9952 75.6205 83.3118 75.4148 83.5935C75.2085 83.874 74.9149 84.1047 74.5341 84.2856ZM73.6875 83.7409L74.1324 83.5296C74.3423 83.4299 74.503 83.3101 74.6147 83.1704C74.7269 83.0288 74.782 82.8598 74.7799 82.6633C74.7785 82.465 74.7137 82.2311 74.5855 81.9613C74.4574 81.6916 74.3175 81.4948 74.1659 81.3709C74.0137 81.2457 73.847 81.1828 73.6657 81.1822C73.485 81.1798 73.2873 81.2296 73.0725 81.3316L72.6405 81.5368L73.6875 83.7409Z" fill="black"/>
<path d="M63.8301 60.3396C63.8301 60.3396 58.5937 59.5311 53.1623 55.4457C46.0901 47.3319 44.7537 38.3288 44.5254 34.4146C44.5254 34.4146 47.9307 52.1117 63.8301 60.3396Z" fill="#A8171C"/>
<path d="M80.1438 49.9812V50.0906C79.925 61.5526 70.5652 70.7697 59.0651 70.7697C52.2117 70.7697 46.124 67.5023 42.2764 62.4372L51.4745 66.3181C50.0715 65.6094 48.8064 64.8294 47.6697 63.9876C56.6015 67.5642 73.2903 70.8553 80.1343 49.6958C80.1343 49.6958 80.1343 49.7957 80.1438 49.9812Z" fill="#A8171C"/>
</g>
<defs>
<linearGradient id="paint0_linear_5610_1607" x1="59.1318" y1="28.5984" x2="59.1318" y2="70.77" gradientUnits="userSpaceOnUse">
<stop stop-color="#FD7505"/>
<stop offset="1" stop-color="#AA211B"/>
</linearGradient>
<linearGradient id="paint1_linear_5610_1607" x1="1.0791" y1="80.5004" x2="116.65" y2="80.5004" gradientUnits="userSpaceOnUse">
<stop stop-color="#FD7505"/>
<stop offset="1" stop-color="#AA211B"/>
</linearGradient>
<linearGradient id="paint2_linear_5610_1607" x1="1.0791" y1="18.5292" x2="116.65" y2="18.5292" gradientUnits="userSpaceOnUse">
<stop stop-color="#FD7505"/>
<stop offset="1" stop-color="#AA211B"/>
</linearGradient>
<clipPath id="clip0_5610_1607">
<rect width="116.941" height="100" fill="white" transform="translate(0.694336)"/>
</clipPath>
</defs>
</svg>
