<svg width="68" height="18" viewBox="0 0 68 18" fill="none" xmlns="http://www.w3.org/2000/svg">
<g clip-path="url(#clip0_5636_1152)">
<rect width="68" height="18" rx="3" fill="#EE1311"/>
<rect width="23" height="23" transform="translate(0 -2)" fill="white"/>
<path d="M12.7219 9.49994C12.7219 9.74164 12.6503 9.97791 12.516 10.1789C12.3817 10.3798 12.1908 10.5365 11.9675 10.629C11.7442 10.7215 11.4985 10.7457 11.2615 10.6985C11.0244 10.6514 10.8067 10.535 10.6358 10.3641C10.4649 10.1932 10.3485 9.97541 10.3013 9.73835C10.2542 9.5013 10.2784 9.25558 10.3709 9.03228C10.4633 8.80898 10.62 8.61812 10.8209 8.48384C11.0219 8.34956 11.2582 8.27789 11.4999 8.27789C11.824 8.27789 12.1348 8.40664 12.364 8.63582C12.5932 8.865 12.7219 9.17583 12.7219 9.49994ZM16.9506 4.05401C16.7982 3.90139 16.5915 3.81542 16.3758 3.81494C16.1601 3.81446 15.953 3.89951 15.7999 4.05144C15.6469 4.20337 15.5602 4.4098 15.5591 4.62548C15.5579 4.84116 15.6423 5.0485 15.7938 5.20207C16.931 6.34333 17.5696 7.8888 17.5696 9.49994C17.5696 11.1111 16.931 12.6566 15.7938 13.7978C15.6423 13.9514 15.5579 14.1587 15.5591 14.3744C15.5602 14.5901 15.6469 14.7965 15.7999 14.9484C15.953 15.1004 16.1601 15.1854 16.3758 15.1849C16.5915 15.1845 16.7982 15.0985 16.9506 14.9459C18.3906 13.4992 19.199 11.5411 19.199 9.49994C19.199 7.45877 18.3906 5.50068 16.9506 4.05401ZM5.43019 9.49994C5.42859 7.89785 6.06199 6.36042 7.19166 5.22438C7.34338 5.07056 7.42778 4.86277 7.42629 4.64671C7.4248 4.43066 7.33755 4.22405 7.18373 4.07233C7.10756 3.99721 7.01734 3.93782 6.91823 3.89756C6.81911 3.8573 6.71303 3.83696 6.60606 3.8377C6.39 3.83919 6.18339 3.92644 6.03167 4.08026C4.60258 5.52204 3.80078 7.46991 3.80078 9.49994C3.80078 11.53 4.60258 13.4778 6.03167 14.9196C6.10679 14.9958 6.19618 15.0564 6.29473 15.098C6.39328 15.1396 6.49906 15.1615 6.60604 15.1622C6.71302 15.1629 6.81909 15.1426 6.91821 15.1023C7.01732 15.0621 7.10754 15.0027 7.18371 14.9276C7.25987 14.8525 7.3205 14.7631 7.36212 14.6645C7.40374 14.566 7.42554 14.4602 7.42628 14.3532C7.42702 14.2462 7.40668 14.1402 7.36642 14.041C7.32617 13.9419 7.26678 13.8517 7.19166 13.7755C6.06198 12.6395 5.42858 11.1021 5.43019 9.49994ZM14.6632 6.32945C14.5872 6.25383 14.497 6.19396 14.3978 6.15328C14.2985 6.11259 14.1923 6.09189 14.0851 6.09235C13.9778 6.09281 13.8717 6.11443 13.7729 6.15597C13.674 6.19751 13.5843 6.25815 13.509 6.33441C13.4336 6.41068 13.374 6.50107 13.3336 6.60041C13.2932 6.69975 13.2729 6.80608 13.2737 6.91331C13.2745 7.02054 13.2964 7.12655 13.3383 7.22528C13.3801 7.32401 13.441 7.41351 13.5175 7.48865C13.7819 7.75266 13.9916 8.06619 14.1346 8.4113C14.2777 8.75642 14.3513 9.12635 14.3513 9.49994C14.3513 9.87354 14.2777 10.2435 14.1346 10.5886C13.9916 10.9337 13.7819 11.2472 13.5175 11.5112C13.3646 11.6633 13.2782 11.8699 13.2773 12.0855C13.2763 12.3012 13.361 12.5085 13.5126 12.6619C13.6642 12.8153 13.8704 12.9023 14.0861 12.9039C14.3018 12.9055 14.5093 12.8216 14.6632 12.6704C15.0808 12.2548 15.4121 11.7607 15.6382 11.2166C15.8643 10.6725 15.9807 10.0891 15.9807 9.49994C15.9807 8.91075 15.8643 8.32735 15.6382 7.78327C15.4121 7.23918 15.0808 6.74512 14.6632 6.32945ZM9.46866 6.35729C9.31578 6.2047 9.10857 6.11903 8.89256 6.1191C8.67655 6.11918 8.4694 6.20499 8.31662 6.35769C7.48557 7.1923 7.01899 8.32214 7.01899 9.49994C7.01899 10.6777 7.48557 11.8076 8.31662 12.6422C8.39218 12.7182 8.482 12.7786 8.58094 12.8199C8.67987 12.8611 8.78598 12.8825 8.89318 12.8826C9.00037 12.8828 9.10655 12.8618 9.20561 12.8209C9.30468 12.7799 9.3947 12.7198 9.47049 12.644C9.54629 12.5682 9.60639 12.4782 9.64733 12.3791C9.68827 12.2801 9.70926 12.1739 9.70909 12.0667C9.70892 11.9595 9.6876 11.8534 9.64634 11.7545C9.60508 11.6555 9.5447 11.5657 9.46866 11.4902C8.94326 10.961 8.6484 10.2456 8.6484 9.49994C8.6484 8.75427 8.94326 8.03885 9.46866 7.50973C9.54434 7.43406 9.60437 7.34423 9.64532 7.24536C9.68628 7.1465 9.70736 7.04053 9.70736 6.93352C9.70736 6.8265 9.68629 6.72054 9.64534 6.62167C9.60439 6.5228 9.54433 6.43296 9.46866 6.35729Z" fill="#EE1311"/>
<path d="M33.3958 13.5V4.77273H34.7126V12.3665H38.6671V13.5H33.3958ZM41.486 4.77273V13.5H40.1693V4.77273H41.486ZM44.1664 4.77273L46.5954 11.8807H46.6934L49.1224 4.77273H50.5457L47.4051 13.5H45.8837L42.7431 4.77273H44.1664ZM51.806 13.5V4.77273H57.2776V5.90625H53.1227V8.56534H56.9921V9.6946H53.1227V12.3665H57.3287V13.5H51.806Z" fill="white"/>
</g>
<defs>
<clipPath id="clip0_5636_1152">
<rect width="68" height="18" rx="3" fill="white"/>
</clipPath>
</defs>
</svg>
