<svg width="20" height="20" viewBox="0 0 20 20" fill="none" xmlns="http://www.w3.org/2000/svg">
<path d="M19.314 6.38C18.904 5.328 18.327 4.362 17.606 3.518C16.116 1.768 14.032 0.548 11.666 0.15C11.125 0.06 10.57 0 10 0C9.43 0 8.876 0.06 8.333 0.15C5.968 0.548 3.886 1.77 2.393 3.517C1.673 4.362 1.096 5.327 0.686 6.38C0.25 7.504 0 8.722 0 10C0 11.175 0.213 12.297 0.585 13.344C0.965 14.41 1.512 15.394 2.205 16.258C3.708 18.126 5.867 19.436 8.333 19.85C8.876 19.94 9.431 20 10 20C10.57 20 11.124 19.94 11.667 19.85C14.133 19.436 16.292 18.126 17.794 16.258C18.488 15.394 19.036 14.41 19.414 13.345C19.787 12.298 20 11.175 20 10C20 8.722 19.75 7.504 19.314 6.38ZM18.141 7.058L16.394 8.068C16.062 6.973 15.457 5.998 14.659 5.22L16.423 4.2C17.169 5.026 17.756 5.993 18.143 7.058H18.141ZM15.348 10C15.348 12.948 12.95 15.347 10.001 15.347C7.051 15.347 4.654 12.947 4.654 10C4.654 7.052 7.052 4.653 10.001 4.653C12.951 4.653 15.348 7.053 15.348 10ZM10 1.333C10.57 1.333 11.127 1.393 11.667 1.498V3.538C11.133 3.401 10.577 3.32 10 3.32C9.424 3.32 8.867 3.4 8.333 3.54V1.497C8.873 1.391 9.43 1.333 10 1.333ZM3.578 4.2L5.343 5.22C4.543 5.998 3.939 6.973 3.607 8.067L1.86 7.057C2.245 5.992 2.833 5.027 3.578 4.201V4.2ZM1.758 12.667L3.533 11.643C3.815 12.755 4.373 13.753 5.137 14.566L3.38 15.58C2.663 14.732 2.108 13.746 1.758 12.667ZM10 18.667C9.43 18.667 8.873 18.607 8.333 18.502V16.462C8.867 16.599 9.423 16.68 10 16.68C10.576 16.68 11.133 16.6 11.667 16.46V18.502C11.127 18.608 10.57 18.667 10 18.667ZM16.62 15.58L14.863 14.566C15.626 13.756 16.185 12.756 16.467 11.643L18.242 12.668C17.892 13.746 17.337 14.732 16.62 15.58ZM10.617 9.255C11.791 9.673 12.264 10.221 12.264 11.117C12.264 12.004 11.644 12.761 10.509 12.96V13.474C10.509 13.744 10.291 13.962 10.024 13.962C9.757 13.962 9.541 13.744 9.541 13.474V13.03C9.151 13.012 8.769 12.942 8.443 12.843C8.111 12.743 7.917 12.395 8.003 12.056L8.008 12.039C8.043 11.894 8.138 11.774 8.266 11.704C8.396 11.634 8.546 11.624 8.686 11.674C9.014 11.791 9.394 11.874 9.796 11.874C10.359 11.874 10.743 11.654 10.743 11.256C10.743 10.876 10.428 10.638 9.698 10.389C8.642 10.031 7.923 9.533 7.923 8.567C7.923 7.69 8.533 7.003 9.59 6.794V6.336C9.59 6.051 9.83 5.823 10.12 5.85C10.37 5.875 10.556 6.097 10.556 6.35V6.725C10.903 6.741 11.19 6.787 11.431 6.85C11.746 6.932 11.935 7.256 11.854 7.573L11.844 7.607C11.81 7.747 11.72 7.865 11.596 7.935C11.472 8.005 11.326 8.021 11.189 7.978C10.951 7.903 10.651 7.841 10.281 7.841C9.639 7.841 9.433 8.121 9.433 8.401C9.433 8.728 9.777 8.937 10.616 9.256L10.617 9.255Z" fill="white"/>
</svg>
