<svg width="356" height="512" viewBox="0 0 356 512" fill="none" xmlns="http://www.w3.org/2000/svg">
<path d="M331.071 266.618C314.966 246.411 296.764 236.313 276.454 236.313V78.7714C287.119 78.7714 296.359 74.8744 304.143 67.0805C311.944 59.2855 315.845 50.0506 315.845 39.3868C315.845 28.7175 311.944 19.4881 304.143 11.6931C296.359 3.89805 287.12 0 276.454 0H79.5374C68.8682 0 59.6387 3.89805 51.8437 11.6931C44.0476 19.4881 40.1506 28.7164 40.1506 39.3868C40.1506 50.0549 44.0476 59.2855 51.8437 67.0805C59.6387 74.8744 68.8714 78.7714 79.5374 78.7714V236.309C59.2292 236.309 41.0268 246.411 24.9227 266.617C8.82076 286.824 0.76709 309.535 0.76709 334.773C0.76709 340.105 2.71666 344.722 6.6147 348.618C10.5149 352.512 15.1296 354.46 20.4632 354.46H144.77L168.154 503.694C169.177 509.235 172.46 512 177.998 512H178.312C180.763 512 182.876 511.129 184.618 509.389C186.358 507.644 187.435 505.539 187.844 503.079L203.533 354.462H335.533C340.865 354.462 345.486 352.513 349.378 348.619C353.28 344.725 355.232 340.108 355.232 334.774C355.235 309.54 347.174 286.825 331.071 266.618ZM148.46 226.468C148.46 229.337 147.538 231.694 145.69 233.543C143.844 235.391 141.484 236.313 138.613 236.313C135.744 236.313 133.383 235.392 131.535 233.543C129.689 231.697 128.768 229.337 128.768 226.468V88.6227C128.768 85.7517 129.689 83.3872 131.535 81.5454C133.383 79.7014 135.744 78.7779 138.613 78.7779C141.484 78.7779 143.844 79.6982 145.69 81.5454C147.537 83.3904 148.46 85.7517 148.46 88.6227V226.468Z" fill="black"/>
</svg>
