<svg width="24" height="24" viewBox="0 0 24 24" fill="none" xmlns="http://www.w3.org/2000/svg">
<path d="M4 6.43799H8V17.438H4V6.43799ZM16 10.438H20V17.438H16V10.438ZM10 1.43799H14V17.438H10V1.43799Z" fill="black"/>
<path d="M5.41356 20.1364C5.39593 19.9714 5.32163 19.843 5.19067 19.751C5.06096 19.6591 4.89221 19.6131 4.68443 19.6131C4.53835 19.6131 4.41305 19.6352 4.30853 19.6793C4.20401 19.7233 4.12404 19.7832 4.06863 19.8587C4.01322 19.9343 3.98489 20.0205 3.98363 20.1175C3.98363 20.1981 4.00189 20.268 4.03841 20.3272C4.07619 20.3864 4.12719 20.4367 4.19142 20.4783C4.25564 20.5186 4.32679 20.5526 4.40487 20.5803C4.48294 20.608 4.56165 20.6313 4.64098 20.6502L5.00366 20.7408C5.14974 20.7748 5.29015 20.8208 5.42489 20.8787C5.5609 20.9367 5.68242 21.0097 5.78946 21.0979C5.89776 21.186 5.98339 21.2924 6.04636 21.4171C6.10932 21.5418 6.1408 21.6878 6.1408 21.8553C6.1408 22.082 6.08288 22.2816 5.96702 22.4541C5.85117 22.6254 5.68368 22.7595 5.46456 22.8565C5.2467 22.9522 4.98288 23 4.6731 23C4.37212 23 4.11082 22.9534 3.88918 22.8602C3.66881 22.7671 3.49628 22.631 3.37161 22.4522C3.2482 22.2734 3.18146 22.0555 3.17139 21.7987H3.86085C3.87092 21.9334 3.91248 22.0455 3.98552 22.1349C4.05856 22.2243 4.15364 22.291 4.27075 22.3351C4.38912 22.3792 4.52135 22.4012 4.66743 22.4012C4.8198 22.4012 4.95329 22.3786 5.06788 22.3332C5.18374 22.2866 5.27441 22.2224 5.33989 22.1406C5.40537 22.0574 5.43875 21.9605 5.44001 21.8497C5.43875 21.7489 5.40915 21.6658 5.35123 21.6003C5.2933 21.5336 5.21207 21.4782 5.10755 21.4341C5.00429 21.3888 4.8834 21.3485 4.74487 21.3132L4.30475 21.1999C3.98615 21.118 3.73429 20.994 3.54918 20.8277C3.36532 20.6603 3.27339 20.438 3.27339 20.1609C3.27339 19.933 3.33509 19.7334 3.45851 19.5621C3.58318 19.3909 3.75255 19.258 3.96663 19.1636C4.18071 19.0679 4.42313 19.02 4.69387 19.02C4.9684 19.02 5.20892 19.0679 5.41545 19.1636C5.62323 19.258 5.78631 19.3896 5.90469 19.5584C6.02306 19.7259 6.08413 19.9185 6.08791 20.1364H5.41356Z" fill="black"/>
<path d="M10.0769 20.3782H9.37042C9.35027 20.2623 9.31312 20.1597 9.25897 20.0703C9.20482 19.9796 9.13745 19.9028 9.05686 19.8398C8.97626 19.7769 8.88433 19.7296 8.78107 19.6981C8.67907 19.6654 8.56888 19.649 8.45051 19.649C8.2402 19.649 8.05383 19.7019 7.89138 19.8077C7.72893 19.9122 7.60174 20.0659 7.50981 20.2686C7.41788 20.4701 7.37192 20.7163 7.37192 21.0072C7.37192 21.3031 7.41788 21.5525 7.50981 21.7552C7.603 21.9567 7.73019 22.1091 7.89138 22.2123C8.05383 22.3143 8.23957 22.3653 8.44862 22.3653C8.56447 22.3653 8.67277 22.3502 8.77351 22.32C8.87552 22.2885 8.96682 22.2426 9.04741 22.1821C9.12927 22.1217 9.1979 22.0474 9.25331 21.9592C9.30997 21.8711 9.34901 21.7703 9.37042 21.657L10.0769 21.6608C10.0504 21.8446 9.99314 22.0171 9.90499 22.1783C9.8181 22.3395 9.70413 22.4818 9.56309 22.6052C9.42205 22.7274 9.25708 22.8231 9.06819 22.8923C8.8793 22.9604 8.66962 22.9944 8.43917 22.9944C8.09916 22.9944 7.79567 22.9156 7.5287 22.7582C7.26173 22.6008 7.05143 22.3735 6.8978 22.0763C6.74416 21.7791 6.66734 21.4228 6.66734 21.0072C6.66734 20.5904 6.74479 20.234 6.89968 19.938C7.05458 19.6409 7.26551 19.4135 7.53248 19.2561C7.79945 19.0987 8.10168 19.02 8.43917 19.02C8.65451 19.02 8.85474 19.0502 9.03986 19.1107C9.22497 19.1711 9.38994 19.2599 9.53476 19.377C9.67958 19.4929 9.79858 19.6352 9.89177 19.8039C9.98622 19.9714 10.0479 20.1628 10.0769 20.3782Z" fill="black"/>
<path d="M14.1754 21.0072C14.1754 21.424 14.0973 21.781 13.9412 22.0782C13.7863 22.3742 13.5747 22.6008 13.3065 22.7582C13.0395 22.9156 12.7367 22.9944 12.3979 22.9944C12.0592 22.9944 11.7557 22.9156 11.4875 22.7582C11.2205 22.5996 11.0089 22.3723 10.8528 22.0763C10.6979 21.7791 10.6204 21.4228 10.6204 21.0072C10.6204 20.5904 10.6979 20.234 10.8528 19.938C11.0089 19.6409 11.2205 19.4135 11.4875 19.2561C11.7557 19.0987 12.0592 19.02 12.3979 19.02C12.7367 19.02 13.0395 19.0987 13.3065 19.2561C13.5747 19.4135 13.7863 19.6409 13.9412 19.938C14.0973 20.234 14.1754 20.5904 14.1754 21.0072ZM13.4708 21.0072C13.4708 20.7138 13.4249 20.4663 13.3329 20.2648C13.2423 20.0621 13.1163 19.9091 12.9552 19.8058C12.794 19.7013 12.6082 19.649 12.3979 19.649C12.1876 19.649 12.0019 19.7013 11.8407 19.8058C11.6795 19.9091 11.5529 20.0621 11.461 20.2648C11.3703 20.4663 11.325 20.7138 11.325 21.0072C11.325 21.3006 11.3703 21.5487 11.461 21.7514C11.5529 21.9529 11.6795 22.1059 11.8407 22.2104C12.0019 22.3137 12.1876 22.3653 12.3979 22.3653C12.6082 22.3653 12.794 22.3137 12.9552 22.2104C13.1163 22.1059 13.2423 21.9529 13.3329 21.7514C13.4249 21.5487 13.4708 21.3006 13.4708 21.0072Z" fill="black"/>
<path d="M14.838 22.9415V19.0729H16.2887C16.5859 19.0729 16.8352 19.1245 17.0367 19.2278C17.2394 19.3311 17.3924 19.4759 17.4957 19.6623C17.6002 19.8474 17.6525 20.0633 17.6525 20.3102C17.6525 20.5582 17.5996 20.7736 17.4938 20.9562C17.3893 21.1375 17.235 21.2779 17.031 21.3774C16.827 21.4756 16.5764 21.5248 16.2792 21.5248H15.246V20.943H16.1848C16.3586 20.943 16.5009 20.919 16.6117 20.8712C16.7225 20.8221 16.8043 20.7509 16.8572 20.6577C16.9114 20.5633 16.9385 20.4474 16.9385 20.3102C16.9385 20.1729 16.9114 20.0558 16.8572 19.9588C16.8031 19.8606 16.7206 19.7863 16.6098 19.7359C16.499 19.6843 16.356 19.6585 16.181 19.6585H15.5388V22.9415H14.838ZM16.8365 21.1885L17.7942 22.9415H17.0121L16.0714 21.1885H16.8365Z" fill="black"/>
<path d="M18.2976 22.9415V19.0729H20.8136V19.6604H18.9984V20.7106H20.6833V21.2981H18.9984V22.354H20.8287V22.9415H18.2976Z" fill="black"/>
</svg>
