<svg width="28" height="28" viewBox="0 0 28 28" fill="none" xmlns="http://www.w3.org/2000/svg">
<g clip-path="url(#clip0_1080_39)">
<path d="M21.4167 13.7815C21.1289 13.8403 20.8481 13.6547 20.7893 13.367C20.7304 13.0793 20.9158 12.7984 21.2036 12.7395C24.0786 12.148 25.9324 9.34106 25.3477 6.46466L24.4955 2.29705L19.807 3.25586C19.5192 3.31472 19.2383 3.12916 19.1795 2.84144C19.1206 2.55373 19.3061 2.27278 19.5939 2.21392L24.8034 1.14856C25.0912 1.0897 25.372 1.27529 25.4308 1.563L26.3897 6.25157C27.0914 9.70326 24.8668 13.0717 21.4167 13.7815Z" fill="black"/>
<path d="M12.5419 15.5969C9.09021 16.2987 5.72175 14.074 5.01203 10.6239L4.0532 5.93534C3.99436 5.64762 4.17991 5.36667 4.46762 5.30783L9.67711 4.24246C9.96482 4.18362 10.2458 4.36918 10.3046 4.6569C10.3635 4.94461 10.1779 5.22557 9.89019 5.2844L5.20162 6.24324L6.05392 10.4108C6.64548 13.2858 9.4524 15.1396 12.3288 14.555C12.6165 14.4962 12.8975 14.6817 12.9563 14.9695C13.0151 15.2571 12.8296 15.5381 12.5419 15.5969Z" fill="black"/>
<path d="M21.4958 22.1549L21.2308 21.9861C20.198 21.3264 17.8974 11.2833 17.7095 10.4572C17.6619 10.2471 17.4446 10.1156 17.2206 10.1614L15.5757 10.4978C15.3521 10.5435 15.2039 10.7493 15.2421 10.9611C15.3945 11.7943 17.221 21.9328 16.5296 22.9467L16.3521 23.206C15.4469 24.5326 12.2016 26.0211 12.3822 26.9043C12.4261 27.1186 12.6457 27.2545 12.8728 27.208L26.2667 24.4689C26.4939 24.4225 26.6426 24.2112 26.5987 23.997C26.4181 23.1137 22.849 23.0189 21.4958 22.1549Z" fill="black"/>
<path d="M20.6769 0.906958L8.17417 3.46383C7.88645 3.52267 7.7009 3.80363 7.75974 4.09134L9.72864 13.719C10.5382 17.4288 14.1561 19.8183 17.886 19.1063C21.5959 18.2968 23.9853 14.6789 23.2734 10.949L21.3045 1.32137C21.2457 1.03366 20.9647 0.84812 20.6769 0.906958Z" fill="black"/>
<mask id="mask0_1080_39" style="mask-type:luminance" maskUnits="userSpaceOnUse" x="3" y="17" width="11" height="11">
<path d="M13.0705 17H3V27.1125H13.0705V17Z" fill="white"/>
</mask>
<g mask="url(#mask0_1080_39)">
<path d="M11.3082 22.1612C11.8537 21.9514 12.4831 21.8674 13.0705 21.8674C12.9866 19.2239 10.8466 17.0839 8.24504 17V17.042C8.24504 17.6294 8.16112 18.2169 7.95132 18.7623L6.77642 18.3427C6.9023 17.9651 6.98623 17.5455 6.98623 17.1259C5.098 17.5455 3.58742 19.0141 3.12585 20.9023C3.62938 20.9023 4.09094 20.8184 4.55251 20.6506L5.01408 21.8255C4.42663 22.0772 3.75526 22.1612 3.12585 22.1612C3.08389 22.1612 3.04193 22.1612 2.95801 22.1612C2.99997 24.8886 5.18192 27.0705 7.90936 27.1125C7.8674 26.3992 7.99328 25.7278 8.24504 25.0564L9.41994 25.518C9.2521 25.9796 9.16818 26.4411 9.16818 26.9447V26.9866C11.0564 26.5251 12.525 25.0564 12.9446 23.1262C12.525 23.1262 12.1054 23.2102 11.7278 23.3361L11.3082 22.1612ZM6.6925 20.6925C6.4827 20.9023 6.23093 21.1121 5.97917 21.28L5.26584 20.231C5.43368 20.1051 5.64349 19.9792 5.76937 19.8114C5.97917 19.6016 6.18897 19.3498 6.35682 19.0561L7.44779 19.7274C7.23799 20.1051 6.98623 20.3988 6.6925 20.6925ZM10.2592 24.2592C10.0913 24.427 9.96543 24.5949 9.83955 24.7627L8.79053 24.0494C8.95837 23.7976 9.16818 23.5459 9.37798 23.3361C9.6717 23.0423 10.0074 22.7906 10.3431 22.5808L11.0144 23.6717C10.7207 23.8396 10.469 24.0494 10.2592 24.2592Z" fill="black"/>
</g>
</g>
<defs>
<clipPath id="clip0_1080_39">
<rect width="28" height="28" fill="white"/>
</clipPath>
</defs>
</svg>
