<svg width="8" height="8" viewBox="0 0 8 8" fill="none" xmlns="http://www.w3.org/2000/svg">
<g clip-path="url(#clip0_5211_153)">
<path d="M0.941802 4.20105C1.12908 4.2134 1.43375 4.20428 1.62741 4.2043L2.94672 4.20431L7.06129 4.20453C7.06748 4.72379 7.06236 5.25006 7.06266 5.76988L7.06345 6.27605C7.06357 6.36085 7.06736 6.49706 7.05795 6.57719C6.9006 6.58562 6.68827 6.57928 6.52613 6.57925L5.5181 6.57908L2.43329 6.57879L1.39558 6.57927C1.28567 6.57973 1.03634 6.5731 0.939309 6.58228C0.930802 6.09427 0.938114 5.58743 0.937903 5.09793L0.937544 4.53758C0.937513 4.43462 0.934005 4.30061 0.941802 4.20105ZM3.81789 5.47497L3.41836 5.07814C3.31203 5.17031 3.18747 5.30142 3.08656 5.40328C3.19962 5.51932 3.31386 5.63421 3.42927 5.74793C3.52818 5.84701 3.71995 6.05056 3.82168 6.13346C3.94891 5.98234 4.19741 5.74612 4.34654 5.59885C4.51595 5.43157 4.73899 5.19207 4.91061 5.04217C4.87422 4.99873 4.61254 4.72008 4.57273 4.71509C4.3304 4.95921 4.04793 5.22536 3.81789 5.47497Z" fill="black"/>
<path d="M4.6336 2.25433C4.77825 2.30443 4.97776 2.43045 5.09114 2.53201C5.47079 2.87206 5.63742 3.24168 5.67246 3.7396C5.38999 3.75066 5.0703 3.74351 4.78513 3.74337L3.11043 3.74366L2.59012 3.74372C2.50216 3.74353 2.40834 3.73868 2.32129 3.7434C2.34437 3.52754 2.36459 3.37553 2.4485 3.16987C2.6143 2.75783 2.93846 2.42951 3.34836 2.25847C3.40483 2.25863 3.54853 2.32738 3.61554 2.34401C4.01995 2.44431 4.26561 2.39254 4.6336 2.25433Z" fill="black"/>
<path d="M0 7.04139L5.39084 7.0422L7.1113 7.04218C7.36244 7.04212 7.75732 7.02943 8 7.04598V7.99997H0V7.04139Z" fill="black"/>
<path d="M3.84541 0H4.14632C4.18545 0.0208913 4.3181 0.0497382 4.37507 0.0752952C4.61157 0.181364 4.79322 0.359377 4.8912 0.598052C4.9876 0.834734 4.98648 1.09995 4.88807 1.3358C4.78584 1.57522 4.593 1.76444 4.35168 1.86209C4.11783 1.95687 3.85563 1.95333 3.62442 1.85224C3.38592 1.75 3.19777 1.55727 3.10129 1.31638C3.00967 1.0784 3.01503 0.813969 3.11622 0.579894C3.23124 0.31582 3.44382 0.121527 3.72092 0.042058C3.75921 0.0310764 3.80227 0.0173592 3.83885 0.00266803L3.84541 0Z" fill="black"/>
</g>
<defs>
<clipPath id="clip0_5211_153">
<rect width="8" height="8" fill="white"/>
</clipPath>
</defs>
</svg>
