<svg width="7" height="8" viewBox="0 0 7 8" fill="none" xmlns="http://www.w3.org/2000/svg">
<path d="M2.60368 5.15985C2.69631 5.07354 2.76636 4.96069 2.79678 4.81868L2.9619 4.04806C3.15862 4.2197 3.45377 4.33669 3.90179 4.33669C4.10476 4.33669 4.26923 4.17216 4.26923 3.96925C4.26923 3.76634 4.10476 3.60182 3.90179 3.60182C3.33816 3.60182 3.32203 3.39614 3.28318 2.89933C3.27614 2.8092 3.26883 2.71604 3.25593 2.62512C3.25349 2.608 3.24947 2.59154 3.24493 2.57541C3.21372 2.28461 2.98415 2.04536 2.74437 1.92916C2.74437 1.92916 2.65312 1.87906 2.54897 1.85917C2.44929 1.84015 2.33381 1.83949 2.33381 1.83949L2.33105 1.83936C2.22906 1.84232 2.12142 1.86207 2.01911 1.89933C1.9885 1.90361 1.95788 1.91145 1.92806 1.92389C1.88526 1.94173 0.870779 2.36954 0.121749 3.04292C-0.0291492 3.17861 -0.0414608 3.41089 0.0942295 3.56179C0.166782 3.6425 0.26692 3.68359 0.367519 3.68359C0.455017 3.68359 0.542844 3.65251 0.613026 3.58937C0.859059 3.36816 1.14479 3.17427 1.40603 3.01817L1.09818 4.45487C1.05163 4.6722 1.11991 4.87129 1.24914 5.02857C1.18884 5.61195 1.09357 6.28014 1.03735 6.41787C0.976447 6.54118 0.582741 6.91836 0.194697 7.2249C0.0066003 7.37362 -0.0255282 7.64665 0.123132 7.83488C0.208852 7.94331 0.335852 8 0.464234 8C0.558447 8 0.653253 7.96952 0.732981 7.90658C1.0143 7.68444 1.68538 7.12713 1.83944 6.75074C1.9118 6.5741 1.97691 6.20106 2.02747 5.836L3.31669 7.51807C3.40222 7.62966 3.53119 7.68819 3.66168 7.68819C3.75379 7.68819 3.84681 7.65903 3.92549 7.59866C4.11596 7.45276 4.1519 7.18019 4.00614 6.98979L2.60368 5.15985Z" fill="black"/>
<path d="M2.95539 1.89295C3.47811 1.89295 3.90186 1.4692 3.90186 0.946475C3.90186 0.423751 3.47811 0 2.95539 0C2.43266 0 2.00891 0.423751 2.00891 0.946475C2.00891 1.4692 2.43266 1.89295 2.95539 1.89295Z" fill="black"/>
<path d="M5.84824 5.04309C5.42899 5.04309 5.08789 5.38439 5.08789 5.80358C5.08789 6.22276 5.42899 6.56393 5.84824 6.56393C6.26743 6.56393 6.60866 6.22276 6.60866 5.80358C6.60866 5.38439 6.26743 5.04309 5.84824 5.04309ZM5.61472 5.23152C5.62032 5.22052 5.64494 5.1722 5.66548 5.1321C5.67305 5.11703 5.68023 5.1032 5.68556 5.09293L5.68813 5.08779L5.69379 5.08648C5.79241 5.06554 5.89565 5.06554 5.99519 5.08641L6.00066 5.08766L6.04529 5.16838C6.06116 5.19722 6.07571 5.22342 6.08006 5.23125L6.08684 5.24356L6.06294 5.25291C6.05287 5.25686 6.03779 5.26259 6.02041 5.26944L6.00902 5.27378C5.96063 5.29268 5.89841 5.31691 5.86898 5.3283C5.85937 5.33218 5.85331 5.33449 5.85186 5.33501L5.84745 5.33679L5.83685 5.33251L5.67812 5.27069C5.65738 5.26266 5.6398 5.25574 5.62947 5.25173C5.6269 5.25074 5.62453 5.24982 5.62282 5.24916L5.60886 5.24363L5.61472 5.23152ZM5.29436 5.81141L5.28244 5.82636C5.27322 5.83788 5.2667 5.84624 5.264 5.84946L5.25564 5.8596L5.2461 5.85052C5.24518 5.84973 5.24439 5.84887 5.2436 5.84815L5.1586 5.76598C5.15182 5.75946 5.1455 5.75341 5.13984 5.74788L5.12285 5.73142L5.12344 5.72562C5.13305 5.62463 5.16341 5.52844 5.21384 5.4395L5.21667 5.43443L5.39871 5.40289V5.4179L5.40397 5.49342C5.40825 5.55333 5.41359 5.62904 5.41484 5.64925C5.41504 5.65057 5.4151 5.65195 5.4151 5.65301L5.41536 5.65761L5.41339 5.66176C5.41227 5.66321 5.40944 5.6667 5.40523 5.67223L5.39337 5.68691C5.36829 5.71838 5.32418 5.77369 5.29436 5.81141ZM5.61064 6.44299C5.59675 6.45003 5.58384 6.45675 5.57324 6.46201L5.56824 6.46458L5.56317 6.46247C5.46929 6.42277 5.38613 6.36444 5.31556 6.28906L5.31141 6.28471L5.3176 6.24646L5.3409 6.10057L5.46158 6.13329C5.51307 6.14718 5.56633 6.1616 5.58062 6.16548L5.58852 6.16726L5.59589 6.17898L5.619 6.21558C5.63901 6.24705 5.66568 6.28932 5.68661 6.3225L5.69925 6.34252C5.70505 6.35174 5.70992 6.35931 5.71341 6.3649L5.71591 6.36898C5.71696 6.3705 5.71762 6.37182 5.71828 6.37261L5.72644 6.38419L5.61064 6.44299ZM5.70097 5.99872L5.69827 5.99022C5.69537 5.9812 5.66324 5.88238 5.63895 5.80772L5.60893 5.71535L5.61617 5.71022C5.62683 5.70284 5.77299 5.59961 5.82375 5.56353C5.83277 5.55721 5.83883 5.55287 5.84067 5.55162L5.84752 5.54688L5.85443 5.55162C5.85628 5.55287 5.8624 5.55715 5.87148 5.56353C5.92231 5.59968 6.0684 5.70284 6.079 5.71028L6.08624 5.71529L6.08276 5.72674L6.04872 5.83077C6.0314 5.8839 6.01211 5.94289 6.00257 5.97238L5.99394 5.99885H5.70083V5.99872H5.70097ZM6.38185 6.27997C6.31246 6.35681 6.22595 6.41902 6.13101 6.46004L6.12581 6.46228L6.12074 6.45977C6.10929 6.45405 6.0952 6.44707 6.08071 6.43976L5.96965 6.38459L6.10665 6.16752L6.11126 6.16634C6.11409 6.16555 6.1403 6.1585 6.17414 6.14935L6.28968 6.11801C6.31378 6.11143 6.33287 6.10623 6.34011 6.10432L6.35216 6.10109L6.35631 6.11281L6.36164 6.14165C6.36585 6.16482 6.37178 6.19761 6.37698 6.22704C6.37988 6.24278 6.38251 6.25772 6.38468 6.26944L6.38574 6.27536L6.38185 6.27997ZM6.53058 5.77164L6.43979 5.85934L6.43136 5.8496C6.43011 5.84828 6.4286 5.84624 6.42669 5.84354L6.42234 5.83807C6.4155 5.82978 6.40582 5.81753 6.39476 5.80371C6.36539 5.76658 6.32517 5.71641 6.3018 5.68704C6.29357 5.67671 6.28744 5.669 6.28448 5.66519L6.27994 5.65946L6.2804 5.64958L6.29607 5.42455C6.2962 5.42165 6.29646 5.41915 6.29673 5.41738L6.29811 5.40348L6.31114 5.40552C6.32293 5.40763 6.37645 5.41685 6.42234 5.42481C6.43426 5.42686 6.44552 5.4289 6.45533 5.43048L6.47152 5.43331L6.47435 5.43831C6.5259 5.52884 6.55672 5.62759 6.566 5.73148L6.56653 5.73741L6.56225 5.74149C6.55316 5.74972 6.54236 5.76025 6.53058 5.77164Z" fill="black"/>
<path d="M4.87587 6.10485C4.84921 6.11986 4.81155 6.14139 4.76869 6.16851C4.72471 6.19452 4.67586 6.22882 4.62319 6.26431C4.59652 6.28142 4.57078 6.30236 4.54412 6.32218C4.51759 6.34239 4.49059 6.3628 4.4636 6.38327C4.43799 6.40546 4.41251 6.42771 4.38736 6.44964C4.36274 6.47209 4.3366 6.49145 4.31494 6.51501C4.29302 6.53793 4.27188 6.56005 4.25174 6.58092C4.23218 6.60225 4.21204 6.62055 4.1965 6.64057C4.13652 6.72115 4.09656 6.77481 4.09656 6.77481C4.09656 6.77481 4.14376 6.72813 4.21447 6.65821C4.23231 6.64122 4.25496 6.62608 4.27702 6.60844C4.29947 6.59119 4.32297 6.57302 4.3474 6.55425C4.37116 6.5349 4.39994 6.51976 4.42666 6.50185C4.45392 6.48453 4.48151 6.46715 4.50922 6.44951C4.53806 6.43384 4.5669 6.4181 4.59534 6.40276C4.62391 6.38769 4.65104 6.37156 4.67915 6.35905C4.73472 6.33278 4.78574 6.30736 4.83123 6.28913C4.87633 6.26931 4.9136 6.25489 4.9396 6.24515C4.96646 6.23534 4.98187 6.22961 4.98187 6.22961L4.91669 6.0824C4.91669 6.08227 4.90188 6.0905 4.87587 6.10485Z" fill="black"/>
</svg>
