<svg width="6" height="8" viewBox="0 0 6 8" fill="none" xmlns="http://www.w3.org/2000/svg">
<path d="M3.19835 2.57925C3.58383 2.57925 3.89632 2.26675 3.89632 1.88127C3.89632 1.49578 3.58383 1.18329 3.19835 1.18329C2.81286 1.18329 2.50037 1.49578 2.50037 1.88127C2.50037 2.26675 2.81286 2.57925 3.19835 2.57925Z" fill="black"/>
<path d="M4.95877 1.456C4.96433 1.08317 4.38673 1.08373 4.38131 1.456C4.37617 1.78546 4.29067 2.50318 3.93522 2.70322C3.62008 2.57797 3.27797 2.79038 3.18428 3.06798C3.17941 3.07605 3.17371 3.08244 3.16913 3.09134C3.07779 3.26427 2.96311 3.40606 2.82952 3.5359C2.68161 3.39675 2.55886 3.22604 2.41929 3.08119C2.31073 2.96831 2.17602 2.97582 2.07524 3.04129L1.48986 2.41046C1.70867 2.14578 1.63096 1.66911 1.299 1.31115C0.946463 0.931371 0.438652 0.827112 0.167162 1.079C-0.104189 1.33089 -0.0381586 1.8451 0.314237 2.22488C0.646614 2.58269 1.11592 2.69571 1.39617 2.49706L1.98335 3.12971C1.91218 3.23216 1.89925 3.37381 2.01074 3.48947C2.23538 3.72245 2.42124 3.98004 2.69509 4.16048C2.81089 4.23666 2.94754 4.19496 3.04541 4.1153C3.19554 3.99311 3.33135 3.86091 3.44937 3.71383C3.64594 4.05789 3.62939 4.70499 3.59895 5.06253C3.59436 5.11758 3.59742 5.16818 3.60604 5.21502C3.43853 5.63192 3.45646 6.07495 3.15939 6.43666C2.98076 6.65463 2.77961 6.85717 2.57638 7.05276C2.30753 7.31174 2.71664 7.7196 2.9848 7.46118C3.20902 7.24529 3.42505 7.01968 3.62244 6.77877C3.92021 6.41581 3.96038 6.00308 4.08716 5.58716C4.12455 5.58785 4.16237 5.58535 4.19962 5.57938C4.28859 6.2679 4.29318 6.94503 3.92744 7.56878C3.73894 7.89087 4.23813 8.18154 4.42649 7.86042C4.94959 6.96797 4.85562 6.0042 4.69617 5.01415C4.6945 5.00414 4.69117 4.99539 4.68853 4.98593C4.72745 4.40764 4.67852 3.62598 4.34989 3.10135C4.78973 2.73297 4.95056 2.00399 4.95877 1.456ZM0.363864 2.17831C0.0369078 1.82591 -0.030791 1.35508 0.213175 1.12863C0.457141 0.902178 0.921719 1.00477 1.24881 1.35716C1.57563 1.7097 1.64333 2.18053 1.39964 2.40698C1.15568 2.63357 0.691098 2.53098 0.363864 2.17831Z" fill="black"/>
<path d="M5.03725 0.517125C5.18005 0.517125 5.29581 0.401362 5.29581 0.258562C5.29581 0.115762 5.18005 0 5.03725 0C4.89445 0 4.77869 0.115762 4.77869 0.258562C4.77869 0.401362 4.89445 0.517125 5.03725 0.517125Z" fill="black"/>
</svg>
