<svg width="61" height="44" viewBox="0 0 61 44" fill="none" xmlns="http://www.w3.org/2000/svg">
<path d="M41.8665 21.4881C42.2037 26.0618 41.0603 30.4009 38.8175 34.0363C37.6595 35.9127 36.2229 37.5985 34.5371 39.0204C34.156 39.3527 33.7553 39.6654 33.3351 39.9586C32.4849 40.5938 31.5809 41.1606 30.6232 41.659C28.8641 42.5679 26.9585 43.2422 24.9356 43.6233C24.8379 43.6429 24.7352 43.6624 24.6277 43.682C23.9339 43.809 23.2303 43.897 22.5169 43.9458C21.9501 43.9947 21.3832 44.0143 20.8164 44.0045C18.9108 44.0045 17.0638 43.726 15.3047 43.2275C13.6922 42.7878 12.1531 42.1428 10.7165 41.3365C10.3354 41.1215 9.96401 40.8968 9.60242 40.6622C9.09425 40.3397 8.60562 39.9928 8.13654 39.6214H8.12188C7.22769 38.9324 6.39213 38.1555 5.61522 37.3346C5.5859 37.2955 5.55658 37.2564 5.52727 37.2173C2.43425 33.8751 0.425985 29.492 0.0595138 24.6105C-0.805358 13.0592 7.85802 3.00305 19.4092 2.13816C30.9457 1.28793 41.0017 9.95145 41.8665 21.4881Z" fill="#E8E8F8"/>
<path d="M37.7029 32.7177C37.3951 34.8872 35.7533 36.7196 33.3639 38.1415C32.8851 38.4249 32.3818 38.6888 31.854 38.9331C31.3361 39.1774 30.7937 39.4071 30.2269 39.6221C25.8293 41.2932 20.2149 42.0115 15.3775 41.5717C13.9116 41.4398 12.5044 41.2053 11.2437 40.8534C10.7551 40.7264 10.286 40.5798 9.83645 40.4137C9.22077 40.1791 8.64908 39.9153 8.13602 39.6221H8.12136C7.22717 38.9331 6.39161 38.1562 5.61469 37.3353C5.61469 37.3353 5.60981 37.3401 5.60004 37.3499C5.57072 37.3108 5.54629 37.2669 5.52674 37.218C5.01368 36.3824 4.76448 35.4149 4.83778 34.3008C4.91107 33.0548 5.74663 32.1753 6.69945 31.4423C6.69945 31.4423 6.70434 31.4423 6.71411 31.4423C6.79229 31.3739 6.87047 31.3104 6.94865 31.2518C6.95842 31.2518 6.96331 31.2518 6.96331 31.2518C7.78421 30.6361 8.66374 30.1083 9.16214 29.522C10.4961 27.9974 9.64588 25.3002 10.7013 23.1746C10.7697 23.0378 10.843 22.9059 10.9212 22.7788C11.2877 22.2364 11.8007 21.7234 12.5483 21.3129C13.4132 20.8291 14.0582 20.3601 14.498 19.8763C14.498 19.8665 14.498 19.8617 14.498 19.8617C14.5077 19.8617 14.5126 19.8617 14.5126 19.8617C14.6885 19.6662 14.8302 19.461 14.9377 19.246C15.4068 18.3811 15.3628 17.3989 14.967 16.0649C14.5419 14.6284 14.0435 12.2389 14.9524 9.57098C14.9524 9.56121 14.9524 9.55632 14.9524 9.55632C15.099 9.13609 15.2798 8.71098 15.4948 8.28098C15.4948 8.28098 15.4996 8.28098 15.5094 8.28098C15.5387 8.21257 15.5681 8.14905 15.5974 8.09041C16.6675 6.09678 18.7344 4.66019 21.2264 4.48428L22.4284 4.39633C23.9822 4.27906 25.4481 4.67485 26.6648 5.42246C26.6648 5.42246 26.6697 5.42246 26.6795 5.42246C26.6795 5.43224 26.6795 5.43712 26.6795 5.43712C27.3391 5.84757 27.9255 6.3753 28.3946 6.97632H28.4092C28.7024 7.35746 28.9614 7.75814 29.1861 8.17837C29.1861 8.17837 29.1861 8.18325 29.1861 8.19303C29.3132 8.42757 29.4256 8.66212 29.5233 8.89666C30.2562 10.6851 30.3442 12.6347 29.6406 14.3938C29.1861 15.4932 29.5379 16.4168 30.9159 17.7801C32.9828 19.8177 33.0707 21.2836 32.9535 22.6469C32.9241 22.9254 32.8948 23.1893 32.8655 23.4531C32.846 23.5802 32.8313 23.7121 32.8215 23.8489C32.7482 24.8604 33.789 25.652 34.9031 26.6048C35.0301 26.7123 35.1572 26.8247 35.2842 26.942C36.3397 27.8508 37.3511 28.9503 37.5563 30.5335C37.7469 31.2957 37.7909 32.014 37.7029 32.7177Z" fill="#494487"/>
<path d="M15.8176 7.91455C14.5862 9.21921 13.8679 11.4474 13.9999 13.2651C14.1318 15.0828 14.8794 16.8126 14.8501 18.6303C14.7181 20.9318 12.1822 21.7381 10.643 22.9987C8.44416 24.8018 10.2765 27.4698 8.34155 29.7273C7.35941 30.8853 6.31863 31.6916 5.42444 32.9229C6.1867 31.9701 6.90498 31.2958 7.78451 30.4602C11.0388 27.5724 7.94576 24.6845 11.4932 22.6029C12.9737 21.6794 14.9674 20.624 15.026 18.645C15.0553 16.7979 14.381 15.0389 14.2197 13.2211C14.0732 11.4181 14.8501 9.52705 15.8176 7.91455Z" fill="#494487"/>
<path d="M26.6646 5.42188C28.878 7.40085 30.8863 10.2154 30.4172 13.3671C30.212 14.276 29.8895 15.2288 30.2413 16.1523C31.2821 18.5124 33.2317 18.3072 33.1144 21.7228C33.1731 22.7049 32.1616 23.9363 32.616 24.6839C33.9207 27.4984 38.1424 26.6482 37.6147 30.5182C38.2744 26.6629 34.038 27.3665 32.7626 24.6106C32.5574 24.2735 32.6893 23.8923 32.8213 23.5552C33.0558 22.9834 33.261 22.3678 33.2904 21.7374C33.4076 18.1899 31.502 18.4685 30.4026 16.0937C30.0507 15.1995 30.3732 14.276 30.5638 13.3964C31.0036 10.1861 28.966 7.37153 26.6646 5.42188Z" fill="#494487"/>
<g style="mix-blend-mode:multiply">
<path d="M17.1375 18.4243C17.548 20.1248 16.6245 21.5174 15.0706 22.1477C14.8654 22.2503 14.6309 22.3969 14.4403 22.5142C12.9304 23.4817 11.9629 25.1968 12.0069 26.9999C11.919 28.4658 11.5672 30.0196 10.6876 31.207C11.5378 30.2542 11.919 28.9642 12.1242 27.7182C12.2415 26.4868 12.2854 25.1821 13.077 24.156C13.3849 23.7162 13.766 23.3058 14.1911 22.9833C14.4843 22.7341 14.8361 22.5142 15.1586 22.3236C16.7417 21.6493 17.6799 20.1394 17.1375 18.4243Z" fill="#BCBEC0"/>
</g>
<path d="M15.3042 37.1741L15.0404 37.4233L11.2437 40.8536L10.716 41.3373C10.3349 41.1223 9.96354 40.8975 9.60195 40.663C9.09378 40.3405 8.60515 39.9936 8.13607 39.6222H8.12141C7.22722 38.9332 6.39167 38.1563 5.61475 37.3354C7.98948 33.6413 10.2763 30.1084 11.9327 27.8216C12.0011 27.7141 12.0744 27.6115 12.1526 27.5138C12.7683 26.6636 13.296 26.0186 13.6918 25.6081C13.7015 25.6081 13.7064 25.6032 13.7064 25.5935C13.8139 25.486 13.9068 25.398 13.9849 25.3296L15.0257 34.6967L15.3042 37.1741Z" fill="url(#paint0_linear_340_3290)"/>
<g style="mix-blend-mode:multiply">
<path d="M29.3773 18.2632C32.0306 21.6201 29.5239 24.2294 31.7227 26.7654C31.9573 27.0293 32.2505 27.2639 32.529 27.4691C33.3938 28.1434 34.6398 28.4366 35.0943 29.5214C34.9917 29.2575 34.8597 28.9936 34.6838 28.7884C33.9362 28.0554 32.9101 27.6597 32.1625 26.9267C29.5972 24.4933 32.3824 21.5175 29.3773 18.2632Z" fill="#BCBEC0"/>
</g>
<path d="M45.4429 23.6143C45.1351 23.1159 44.5927 21.5767 45.2084 20.9757C45.824 20.3893 45.9999 22.207 46.2491 22.2803C47.0847 22.5002 45.9999 18.1758 47.9202 19.4511C50.6908 21.2835 49.8259 23.9368 48.0815 25.7692C47.3925 25.6226 46.5863 25.3294 45.8387 25.1388C45.8387 24.5818 45.7507 24.1127 45.4429 23.6143Z" fill="#FFD6D6"/>
<path d="M30.0514 24.4932C34.2585 27.2784 38.275 32.6729 40.3126 34.1975C41.1775 32.9075 45.0621 26.4428 45.3992 24.9916C46.0589 24.9769 47.5101 25.2554 48.7561 25.6805C48.4922 30.3421 44.8422 39.68 41.7638 40.6768C38.5975 41.6883 32.9245 38.4486 29.1865 36.6309C29.3771 32.4824 29.7436 28.5537 30.0514 24.4932Z" fill="url(#paint1_linear_340_3290)"/>
<g style="mix-blend-mode:multiply">
<path d="M18.1484 17.9556C15.1433 15.918 15.6857 13.5726 16.8437 13.3087C17.4008 13.1914 18.0018 10.6261 18.3976 9.77588C18.3976 9.77588 21.6812 15.4489 21.7251 15.5222C21.7545 15.5809 21.8864 17.7651 21.8864 17.7651L22.5607 22.2361C23.7187 21.21 25.9909 19.4948 25.8296 20.2425C25.17 23.2183 26.0642 23.057 26.929 25.4025L22.2822 26.5165C22.2822 26.5165 22.1942 25.6517 22.1063 24.7721C21.3587 25.6517 20.2739 26.9123 20.2153 26.8977C20.142 26.883 15.671 24.3177 16.7118 23.9805C18.0458 23.5408 20.1566 19.3189 18.1484 17.9556Z" fill="#BCBEC0"/>
</g>
<path d="M30.9896 25.5637C33.3643 32.4681 29.0693 37.3056 30.6231 41.6593C26.0202 44.0927 20.274 44.6644 15.3046 43.2279C16.1255 38.8594 12.6367 27.9824 13.7068 25.593C16.2721 22.969 21.5053 22.7931 24.9501 22.6025C26.8851 23.3355 30.1687 23.3941 30.9896 25.5637Z" fill="url(#paint2_linear_340_3290)"/>
<path d="M24.9503 22.6025C24.9503 22.6025 27.0905 23.1303 27.0025 24.0831C26.8999 25.1679 25.9764 26.6338 25.1702 26.9563C24.2906 27.3081 23.0593 25.8422 23.0593 25.8422C23.0593 25.8422 22.0185 27.5573 21.1097 27.3521C20.2155 27.1469 15.2315 24.5375 19.1307 23.0423C19.1307 23.0423 20.7872 25.1825 22.8834 25.0359C24.9796 24.8747 24.9503 22.6025 24.9503 22.6025Z" fill="white"/>
<path d="M19.1302 23.0422C20.8893 27.4985 25.9759 26.1646 24.9498 22.6024C24.9058 22.1333 24.8765 21.4737 24.8472 20.814C24.8472 20.7847 24.8472 20.7554 24.8472 20.726C24.8032 19.5973 24.7739 18.5272 24.7739 18.5272L21.3731 17.3545L20.5375 17.0613L19.6286 16.7388C19.658 16.8365 19.6824 16.944 19.7019 17.0613C19.8485 18.1167 19.5993 20.1104 19.3941 21.503C19.2475 22.3972 19.1302 23.0422 19.1302 23.0422Z" fill="#FFD6D6"/>
<path d="M19.3938 21.5032C19.6283 20.697 20.288 19.9933 21.0209 20.5064C22.2669 21.3859 24.3925 21.2833 24.8469 20.8142C24.8469 20.8142 22.1497 18.117 21.3727 17.3547C21.2115 17.1935 21.1089 17.0908 21.1089 17.0908C21.0942 17.0762 20.845 17.0615 20.5372 17.0615C20.2733 17.0615 19.9655 17.0615 19.7016 17.0615C19.8482 18.117 19.599 20.1106 19.3938 21.5032Z" fill="#F5C4C4"/>
<path d="M18.3825 17.0032C18.4704 17.0325 18.5584 17.0618 18.6464 17.0911L18.6317 16.9152L18.5437 15.1268C18.3532 14.7457 18.2212 14.3499 18.104 13.9394V13.9248C17.7668 13.7928 17.2244 13.6609 16.7554 13.9101C16.1397 14.2326 15.6999 16.1383 18.3825 17.0032Z" fill="#FFD6D6"/>
<path d="M18.3533 16.314C18.412 16.3286 18.4706 16.3433 18.5292 16.3433L18.5146 16.2407L18.324 15.0386C18.1774 14.8041 18.0602 14.5402 17.9429 14.2617C17.7083 14.1884 17.3272 14.1298 17.034 14.335C16.6383 14.5989 16.477 15.9182 18.3533 16.314Z" fill="#F5B3B3"/>
<path d="M18.06 13.0304C18.3239 16.6659 20.8452 21.1222 24.847 20.8144C29.5086 20.4772 30.1829 11.5059 27.1485 7.45996C24.2754 8.23689 22.1645 8.92587 19.262 8.74996C18.661 9.952 17.972 11.5645 18.06 13.0304Z" fill="#FFD6D6"/>
<path d="M29.0248 14.8041C29.6991 11.2273 29.5232 9.87866 27.5443 7.56252C26.8553 6.75628 26.4155 7.32798 26.4155 7.32798C26.8113 10.3624 28.8782 11.5351 29.0248 14.8041Z" fill="#494487"/>
<path d="M19.614 18.4108C18.0015 10.9493 26.6649 13.6173 27.1046 8.03216C25.9759 6.36102 20.9039 6.37568 18.6905 8.70648C17.7816 9.67397 16.6382 14.9512 19.614 18.4108Z" fill="#494487"/>
<g style="mix-blend-mode:multiply">
<path d="M24.5689 8.80859C23.5574 11.975 18.4708 10.7583 19.3504 14.7748C18.9106 10.7583 23.6894 12.3707 24.5689 8.80859Z" fill="#BCBEC0"/>
</g>
<path d="M23.5432 17.3695C23.5432 17.6481 23.6605 17.8973 23.851 18.1025C24.0563 18.3077 24.3494 18.4396 24.6719 18.4396C25.0238 18.4543 25.3462 18.3077 25.5515 18.0878C25.7274 17.8973 25.83 17.6774 25.83 17.4135C25.8447 16.8418 25.1264 17.3402 24.6866 17.3256C24.3348 17.3256 23.5579 16.7978 23.5432 17.3695Z" fill="#CC6464"/>
<path d="M23.8501 18.1024C24.0553 18.3076 24.3485 18.4396 24.671 18.4396C25.0228 18.4542 25.3453 18.3076 25.5505 18.0878C25.3893 17.9118 25.0814 17.7799 24.7296 17.7799C24.3485 17.7653 24.0113 17.8972 23.8501 18.1024Z" fill="#F59595"/>
<path d="M26.2834 14.5258C26.3127 14.8337 26.5326 15.0682 26.7818 15.0536C27.031 15.0242 27.2215 14.775 27.2069 14.4672C27.1776 14.1594 26.9577 13.9248 26.7085 13.9541C26.4446 13.9688 26.2541 14.2327 26.2834 14.5258Z" fill="#FFE0E0"/>
<path d="M26.3865 14.5261C26.4012 14.7606 26.5771 14.9512 26.7823 14.9365C26.9729 14.9219 27.1195 14.7167 27.1048 14.4674C27.0901 14.2329 26.9142 14.057 26.709 14.0717C26.5184 14.0863 26.3718 14.2915 26.3865 14.5261Z" fill="#282B6E"/>
<path d="M26.5182 14.5112C26.5329 14.6578 26.6355 14.7751 26.7674 14.7751C26.8847 14.7604 26.9726 14.6285 26.9726 14.4819C26.958 14.3353 26.8407 14.218 26.7234 14.2327C26.5915 14.2327 26.5035 14.3646 26.5182 14.5112Z" fill="#191B36"/>
<path d="M26.9727 14.3209C26.9727 14.2769 26.9287 14.2329 26.8701 14.2329C26.8115 14.2329 26.7675 14.2915 26.7821 14.3355C26.7821 14.3942 26.8261 14.4381 26.8847 14.4381C26.9434 14.4381 26.9874 14.3795 26.9727 14.3209Z" fill="white"/>
<path d="M26.7083 14.2329C26.7083 14.2036 26.6937 14.189 26.6643 14.189C26.6497 14.189 26.6204 14.2036 26.6204 14.2329C26.6204 14.2623 26.6497 14.2769 26.679 14.2769C26.6937 14.2769 26.723 14.2476 26.7083 14.2329Z" fill="white"/>
<path d="M23.8361 14.6137C23.8214 14.9069 23.6162 15.1561 23.367 15.1561C23.1032 15.1414 22.9126 14.8922 22.9126 14.5844C22.9126 14.2912 23.1325 14.042 23.3817 14.042C23.6309 14.0567 23.8361 14.3059 23.8361 14.6137Z" fill="#FFE0E0"/>
<path d="M23.7329 14.599C23.7329 14.8482 23.557 15.0387 23.3664 15.0387C23.1612 15.0241 22.9999 14.8335 23.0146 14.5843C23.0146 14.3498 23.1758 14.1592 23.3811 14.1592C23.5863 14.1738 23.7329 14.3644 23.7329 14.599Z" fill="#282B6E"/>
<path d="M23.6016 14.5988C23.6016 14.7601 23.499 14.8774 23.3671 14.8774C23.2498 14.8627 23.1472 14.7454 23.1472 14.5988C23.1472 14.4376 23.2498 14.3203 23.3818 14.3203C23.499 14.335 23.6016 14.4522 23.6016 14.5988Z" fill="#191B36"/>
<path d="M23.1326 14.4371C23.1326 14.3785 23.1765 14.3345 23.2352 14.3345C23.2938 14.3491 23.3378 14.3931 23.3378 14.4371C23.3378 14.4957 23.2792 14.5397 23.2352 14.5397C23.1765 14.5397 23.1326 14.4957 23.1326 14.4371Z" fill="white"/>
<path d="M26.3126 13.5435C26.5472 13.3383 26.8843 13.3383 27.1335 13.5288C27.1775 13.5582 27.1775 13.6168 27.1482 13.6608C27.1042 13.7047 27.0456 13.7047 27.0163 13.6754C26.9283 13.6168 26.8257 13.5728 26.7231 13.5875C26.6058 13.5875 26.5081 13.6266 26.4299 13.7048C26.3859 13.7341 26.3126 13.7194 26.2833 13.6754C26.254 13.6315 26.2687 13.5875 26.3126 13.5435Z" fill="#282B6E"/>
<path d="M22.9276 13.7339C23.1621 13.5287 23.5139 13.5287 23.7485 13.7193C23.7924 13.7486 23.7924 13.8219 23.7631 13.8512C23.7191 13.8952 23.6605 13.8952 23.6312 13.8659C23.5432 13.8072 23.4406 13.7632 23.338 13.7632C23.2305 13.773 23.1328 13.817 23.0448 13.8952C23.0009 13.9245 22.9276 13.8952 22.8983 13.8659C22.8689 13.8072 22.8983 13.7632 22.9276 13.7339Z" fill="#282B6E"/>
<path d="M24.7154 16.0065C24.7887 15.9625 24.8767 15.9771 24.9646 15.9771C25.0526 15.9625 25.0966 15.9185 25.0966 15.8452C25.0966 15.7426 25.0672 15.6546 25.0526 15.5667C25.0233 15.4592 24.9988 15.3566 24.9793 15.2588C24.9793 15.2149 25.0086 15.1855 25.0379 15.1855C25.0819 15.1855 25.1112 15.2149 25.1112 15.2442C25.1405 15.3615 25.165 15.4787 25.1845 15.596C25.1992 15.684 25.2431 15.8012 25.2285 15.9038C25.2138 15.9918 25.1405 16.0798 25.0526 16.0944C24.95 16.1237 24.8474 16.0944 24.7594 16.1237C24.6714 16.153 24.6275 16.0358 24.7154 16.0065Z" fill="#F0A8A8"/>
<path d="M23.4261 14.4668C23.4261 14.4375 23.4114 14.4229 23.3821 14.4229C23.3675 14.4229 23.3381 14.4522 23.3381 14.4668C23.3528 14.4961 23.3675 14.5108 23.3968 14.5108C23.4114 14.5108 23.4407 14.4961 23.4261 14.4668Z" fill="white"/>
<path d="M21.5053 16.1384C21.5346 16.4902 21.989 16.7394 22.5314 16.6954C23.0738 16.6514 23.4842 16.3436 23.4549 15.9918C23.4402 15.6399 22.9711 15.3907 22.4434 15.4347C21.9011 15.4787 21.4906 15.7865 21.5053 16.1384Z" fill="#FFBABA"/>
<path d="M26.5326 15.8741C26.5326 16.2259 26.987 16.4898 27.5294 16.4751C28.0571 16.4604 28.4969 16.1673 28.4822 15.8154C28.4676 15.4783 28.0278 15.1998 27.4854 15.2144C26.943 15.2291 26.5179 15.5223 26.5326 15.8741Z" fill="#FFBABA"/>
<path d="M27.0019 6.18457C25.1842 9.864 30.0949 13.3675 28.4678 17.1349C30.3588 12.7225 25.4774 9.90797 27.0019 6.18457Z" fill="#494487"/>
<path d="M53.1254 8.55904C52.2165 7.19575 52.583 5.36337 53.9463 4.46916C55.2949 3.5603 57.1419 3.92678 58.0361 5.27541C58.9449 6.6387 58.5785 8.47109 57.2299 9.37995C55.8666 10.2742 54.0342 9.92234 53.1254 8.55904Z" fill="url(#paint3_linear_340_3290)"/>
<path d="M50.4133 22.749C47.9653 20.5941 45.9423 18.3806 45.0335 16.0205L43.421 17.1053L47.4962 24.8599C47.7014 25.2411 48.1558 25.4023 48.4637 25.1824L50.4426 23.8631C50.7944 23.6286 50.7798 23.0715 50.4133 22.749Z" fill="#5855A3"/>
<path d="M50.4126 22.749C47.9645 20.5941 45.9416 18.3806 45.0328 16.0205L44.4611 16.4163C45.1647 18.5272 46.6013 20.6674 48.375 22.8223C48.6828 23.2035 48.5949 23.7458 48.2137 23.9217L47.2316 24.3615L47.4954 24.8599C47.7007 25.2411 48.1551 25.4023 48.4629 25.1824L50.4419 23.8631C50.7937 23.6286 50.779 23.0715 50.4126 22.749Z" fill="#4A4794"/>
<path d="M40.092 16.9592C39.7109 16.3875 39.8575 15.6106 40.4292 15.2295C41.0009 14.8483 41.7778 15.0096 42.1589 15.5813C42.5401 16.153 42.3935 16.9299 41.8218 17.311C41.2501 17.6922 40.4732 17.5309 40.092 16.9592Z" fill="#5855A3"/>
<path d="M43.1278 11.5496L41.8965 12.3412L45.0335 17.0468L46.2208 16.2699C47.6428 15.317 49.2113 14.628 50.8237 14.2616L59.8096 13.2501L51.1902 0.335449L46.7632 8.16339C45.7957 9.51203 44.5497 10.5968 43.1278 11.5496Z" fill="url(#paint4_linear_340_3290)"/>
<g style="mix-blend-mode:multiply">
<path d="M49.4897 3.34056L51.3954 6.19908C53.2277 8.95498 50.5452 13.1475 46.6752 13.5873C45.5905 13.8365 44.5204 14.2322 43.5089 14.7453L45.0334 17.0468L46.2208 16.2699C47.6427 15.317 49.2112 14.628 50.8237 14.2616L59.8096 13.2501L51.1902 0.335449L49.4897 3.34056Z" fill="#FAE8C8"/>
</g>
<path d="M46.704 16.6364L46.6454 16.6657C46.4255 16.8123 46.147 16.7537 46.0004 16.5484L42.7755 11.6963C42.6289 11.4911 42.6875 11.1979 42.9074 11.0659L42.966 11.022C43.1713 10.89 43.4498 10.934 43.5964 11.1539L46.836 15.9914C46.9679 16.2113 46.9093 16.4898 46.704 16.6364Z" fill="#5855A3"/>
<path d="M59.8385 13.4848L59.7505 13.5434C59.4573 13.734 59.0469 13.6607 58.8563 13.3529L50.6474 1.0539C50.4421 0.760714 50.5301 0.364918 50.8233 0.159691L50.9112 0.115715C51.2044 -0.0895116 51.6002 -0.0162144 51.8054 0.291626L60.0144 12.5906C60.2049 12.8838 60.1316 13.2796 59.8385 13.4848Z" fill="#5855A3"/>
<path d="M42.2325 12.0188C40.6493 13.0889 40.0776 15.0239 40.9718 16.3725C41.866 17.7065 43.8889 17.9411 45.4721 16.8856L45.9998 16.5338L42.7602 11.6816L42.2325 12.0188Z" fill="url(#paint5_linear_340_3290)"/>
<g style="mix-blend-mode:multiply">
<path d="M42.2333 12.0188C42.1844 12.0579 42.1355 12.0921 42.0867 12.1214L43.8018 14.7014C44.4467 15.6543 43.6552 17.0908 42.3505 17.2961C42.2724 17.3058 42.2039 17.3107 42.1453 17.3107C43.1275 17.7212 44.4028 17.6039 45.4729 16.8856L46.0006 16.5338L42.761 11.6816L42.2333 12.0188Z" fill="#FAE8C8"/>
</g>
<path d="M48.8 20.3013C49.4743 21.0636 49.7529 21.9138 49.4157 22.207C49.0785 22.5002 48.2723 22.119 47.6127 21.3567C46.9384 20.6091 46.6598 19.7442 46.997 19.4657C47.3195 19.1725 48.1404 19.5537 48.8 20.3013Z" fill="#FFD6D6"/>
<defs>
<linearGradient id="paint0_linear_340_3290" x1="-11.3398" y1="33.6307" x2="9.71517" y2="13.2899" gradientUnits="userSpaceOnUse">
<stop stop-color="#FFA587"/>
<stop offset="1" stop-color="#FF5682"/>
</linearGradient>
<linearGradient id="paint1_linear_340_3290" x1="56.4048" y1="33.3213" x2="27.2622" y2="54.0948" gradientUnits="userSpaceOnUse">
<stop stop-color="#FFA587"/>
<stop offset="1" stop-color="#FF5682"/>
</linearGradient>
<linearGradient id="paint2_linear_340_3290" x1="44.5725" y1="31.4981" x2="25.6664" y2="56.6721" gradientUnits="userSpaceOnUse">
<stop stop-color="#FFA587"/>
<stop offset="1" stop-color="#FF5682"/>
</linearGradient>
<linearGradient id="paint3_linear_340_3290" x1="60.9287" y1="3.82988" x2="55.4884" y2="20.8562" gradientUnits="userSpaceOnUse">
<stop stop-color="#FFDB45"/>
<stop offset="1" stop-color="#FFA35C"/>
</linearGradient>
<linearGradient id="paint4_linear_340_3290" x1="41.7188" y1="-1.67885" x2="60.1592" y2="0.723566" gradientUnits="userSpaceOnUse">
<stop stop-color="#FFDB45"/>
<stop offset="1" stop-color="#FFA35C"/>
</linearGradient>
<linearGradient id="paint5_linear_340_3290" x1="40.4611" y1="9.03187" x2="50.4837" y2="12.6347" gradientUnits="userSpaceOnUse">
<stop stop-color="#FFDB45"/>
<stop offset="1" stop-color="#FFA35C"/>
</linearGradient>
</defs>
</svg>
