<svg width="21" height="21" viewBox="0 0 21 21" fill="none" xmlns="http://www.w3.org/2000/svg">
<path d="M12.9 19.5651H7.74001C3.07021 19.5651 1.07501 17.5699 1.07501 12.9001V7.74007C1.07501 3.07027 3.07021 1.07507 7.74001 1.07507H12.9C17.5698 1.07507 19.565 3.07027 19.565 7.74007V12.9001C19.565 17.5699 17.5698 19.5651 12.9 19.5651ZM7.74001 2.36507C3.77541 2.36507 2.36501 3.77547 2.36501 7.74007V12.9001C2.36501 16.8647 3.77541 18.2751 7.74001 18.2751H12.9C16.8646 18.2751 18.275 16.8647 18.275 12.9001V7.74007C18.275 3.77547 16.8646 2.36507 12.9 2.36507H7.74001Z" fill="white"/>
<path d="M13.33 16.5551C12.0228 16.5551 10.965 15.4973 10.965 14.1901V6.45005C10.965 5.14285 12.0228 4.08505 13.33 4.08505C14.6372 4.08505 15.695 5.14285 15.695 6.45005V14.1901C15.695 15.4973 14.6372 16.5551 13.33 16.5551ZM13.33 5.37505C12.7366 5.37505 12.255 5.85665 12.255 6.45005V14.1901C12.255 14.7835 12.7366 15.2651 13.33 15.2651C13.9234 15.2651 14.405 14.7835 14.405 14.1901V6.45005C14.405 5.85665 13.9234 5.37505 13.33 5.37505Z" fill="white"/>
<path d="M7.31001 16.5551C6.00281 16.5551 4.94501 15.4973 4.94501 14.1901V11.1801C4.94501 9.87286 6.00281 8.81506 7.31001 8.81506C8.61721 8.81506 9.67501 9.87286 9.67501 11.1801V14.1901C9.67501 15.4973 8.61721 16.5551 7.31001 16.5551ZM7.31001 10.1051C6.71661 10.1051 6.23501 10.5867 6.23501 11.1801V14.1901C6.23501 14.7835 6.71661 15.2651 7.31001 15.2651C7.90341 15.2651 8.38501 14.7835 8.38501 14.1901V11.1801C8.38501 10.5867 7.90341 10.1051 7.31001 10.1051Z" fill="white"/>
</svg>
