<svg width="44" height="44" viewBox="0 0 44 44" fill="currentColor" xmlns="http://www.w3.org/2000/svg">
<g clip-path="url(#clip0_3306_1454)">
<path d="M0 2.93697V41.0639C0 41.763 0.565059 42.328 1.26411 42.328H42.7359C43.4349 42.328 44 41.763 44 41.0639V2.93697C44 2.23791 43.4349 1.67285 42.7359 1.67285H1.26411C0.565059 1.67285 0 2.23791 0 2.93697ZM37.3773 39.7998V21.9998C37.3773 21.3007 36.8135 20.7357 36.1132 20.7357C35.4141 20.7357 34.8491 21.3007 34.8491 21.9998V39.7998H29.9924V26.8982C29.9924 26.1992 29.4273 25.6341 28.7282 25.6341C28.0292 25.6341 27.4641 26.1992 27.4641 26.8982V39.7998H20.0071V31.3858C20.0071 30.6868 19.4421 30.1217 18.743 30.1217C18.044 30.1217 17.4789 30.6868 17.4789 31.3858V39.7998H10.2368V34.6435C10.2368 33.9444 9.67173 33.3794 8.97268 33.3794C8.27362 33.3794 7.70856 33.9444 7.70856 34.6435V39.7998H2.52823V13.4493H41.4718V39.7998H37.3773ZM41.4718 4.20108V10.9211H2.52823V4.20108H41.4718Z" fill="black"/>
<path d="M29.8877 17.9431V17.9279C29.8877 17.914 29.8789 17.9026 29.8789 17.89C29.8751 17.7788 29.8637 17.6675 29.8309 17.5575C29.8233 17.5323 29.8068 17.5146 29.7992 17.4905C29.7816 17.4412 29.7563 17.3983 29.7323 17.3515C29.6855 17.263 29.6311 17.1821 29.5667 17.1075C29.5325 17.0683 29.4984 17.0304 29.4605 16.9963C29.3796 16.923 29.2885 16.8648 29.1912 16.8155C29.1571 16.7965 29.1267 16.7725 29.0901 16.7574C28.9611 16.7068 28.8246 16.6727 28.683 16.6651L25.4267 16.5109C25.4065 16.5096 25.39 16.5197 25.3698 16.5197C25.2876 16.5197 25.2067 16.5399 25.1271 16.5551C25.0512 16.5703 24.9792 16.5791 24.9071 16.6082C24.8136 16.6448 24.7327 16.7043 24.6493 16.7649C24.6025 16.7978 24.5544 16.8256 24.5115 16.8648C24.4874 16.8876 24.4571 16.8964 24.4344 16.9217C24.38 16.9811 24.356 17.0532 24.3155 17.1189C24.2814 17.172 24.2447 17.2188 24.2195 17.2769C24.1803 17.3704 24.16 17.4665 24.1423 17.5664C24.1322 17.617 24.1057 17.6599 24.1032 17.713C24.1032 17.737 24.1107 17.7573 24.1107 17.78C24.1107 17.8306 24.1221 17.8786 24.1284 17.9279C24.1436 18.0316 24.1626 18.1289 24.2005 18.2237C24.2207 18.2692 24.2372 18.3122 24.2624 18.3565C24.3193 18.4626 24.3901 18.5587 24.4723 18.6459C24.4925 18.6636 24.4988 18.6877 24.5165 18.7054L24.8212 18.9835C16.9849 23.8288 8.6974 25.6403 8.60386 25.6592C7.92124 25.8046 7.48512 26.4759 7.63049 27.161C7.7569 27.7551 8.28151 28.1622 8.86553 28.1622C8.95149 28.1622 9.04124 28.1533 9.12973 28.1356C9.54056 28.0484 18.3894 26.108 26.7527 20.7469L27.7729 21.6773C27.8323 21.7304 27.9018 21.7569 27.965 21.7974C28.0295 21.8366 28.0838 21.8846 28.1521 21.9137C28.3051 21.9756 28.4631 22.0085 28.6236 22.0085C28.7993 22.0085 28.9662 21.9731 29.1217 21.9061C29.1432 21.896 29.1596 21.877 29.1811 21.8669C29.3126 21.7999 29.4339 21.7177 29.535 21.6115C29.5426 21.6052 29.5515 21.6027 29.5578 21.5964C29.5983 21.5521 29.6134 21.4978 29.6463 21.4497C29.7019 21.3688 29.7613 21.2917 29.7967 21.1982C29.8309 21.111 29.8359 21.0187 29.8511 20.9264C29.8612 20.8645 29.8877 20.8088 29.8877 20.7444V17.9431C29.8877 17.9444 29.8877 17.9444 29.8877 17.9431Z" fill="currentColor"/>
</g>
<defs>
<clipPath id="clip0_3306_1454">
<rect width="44" height="44" fill="white"/>
</clipPath>
</defs>
</svg>
