<?xml version="1.0" encoding="UTF-8"?>
<svg id="Layer_1" xmlns="http://www.w3.org/2000/svg" version="1.1" viewBox="0 0 94 94.2">
  <!-- Generator: Adobe Illustrator 30.2.1, SVG Export Plug-In . SVG Version: 2.1.1 Build 1)  -->
  <defs>
    <style>
      .st0 {
        fill: #fff;
        fill-rule: evenodd;
      }
    </style>
  </defs>
  <path class="st0" d="M14.1,54.2v30.6h9.4v-30.6h9.4v30.6h9.4v-30.6h9.4v30.6h9.4v-30.6h9.4v30.6h9.4v-30.6h9.4v30.6h4.7v9.4H0v-9.4h4.7v-30.6h9.4ZM65.8.1v12.1c0,2.4-2,4.4-4.4,4.4h-.3c-4-.3-7.2-2.7-9.4-2.7s-2.6,0-3.5.4v9.7l45.1,18c.4.2.7.6.7,1.1v7.4c0,.6-.5,1.2-1.2,1.2H1.2c-.6,0-1.2-.5-1.2-1.2v-7.4c0-.5.3-.9.7-1.1l45.1-18V2.4c.8-1.3,2.7-2.1,5.9-2.4,3.1-.2,6.3,2.1,9.4,2.4,2.1.1,3.7-.6,4.7-2.4h0Z"/>
</svg>