<svg width="19" height="19" viewBox="0 0 19 19" fill="none" xmlns="http://www.w3.org/2000/svg">
<path d="M6.87727 8.9932C6.85147 8.9932 6.83427 8.9932 6.80847 8.9932C6.76547 8.9846 6.70527 8.9846 6.65367 8.9932C4.15967 8.9158 2.27627 6.955 2.27627 4.5384C2.27627 2.0788 4.28007 0.0749969 6.73967 0.0749969C9.19927 0.0749969 11.2031 2.0788 11.2031 4.5384C11.1945 6.955 9.30247 8.9158 6.90307 8.9932C6.89447 8.9932 6.88587 8.9932 6.87727 8.9932ZM6.73967 1.365C4.99387 1.365 3.56627 2.7926 3.56627 4.5384C3.56627 6.2584 4.90787 7.643 6.61927 7.7032C6.67087 7.6946 6.78267 7.6946 6.89447 7.7032C8.58007 7.6258 9.90447 6.2412 9.91307 4.5384C9.91307 2.7926 8.48547 1.365 6.73967 1.365Z" fill="white"/>
<path d="M13.2241 9.105C13.1983 9.105 13.1725 9.105 13.1467 9.0964C12.7941 9.1308 12.4329 8.8814 12.3985 8.5288C12.3641 8.1762 12.5791 7.858 12.9317 7.815C13.0349 7.8064 13.1467 7.8064 13.2413 7.8064C14.4969 7.7376 15.4773 6.7056 15.4773 5.4414C15.4773 4.1342 14.4195 3.0764 13.1123 3.0764C12.7597 3.085 12.4673 2.7926 12.4673 2.44C12.4673 2.0874 12.7597 1.795 13.1123 1.795C15.1247 1.795 16.7673 3.4376 16.7673 5.45C16.7673 7.428 15.2193 9.0276 13.2499 9.105C13.2413 9.105 13.2327 9.105 13.2241 9.105Z" fill="white"/>
<path d="M6.88587 18.393C5.20027 18.393 3.50607 17.963 2.22467 17.103C1.02927 16.3118 0.375671 15.2282 0.375671 14.05C0.375671 12.8718 1.02927 11.7796 2.22467 10.9798C4.80467 9.2684 8.98427 9.2684 11.5471 10.9798C12.7339 11.771 13.3961 12.8546 13.3961 14.0328C13.3961 15.211 12.7425 16.3032 11.5471 17.103C10.2571 17.963 8.57147 18.393 6.88587 18.393ZM2.93847 12.0634C2.11287 12.6138 1.66567 13.319 1.66567 14.0586C1.66567 14.7896 2.12147 15.4948 2.93847 16.0366C5.07987 17.4728 8.69187 17.4728 10.8333 16.0366C11.6589 15.4862 12.1061 14.781 12.1061 14.0414C12.1061 13.3104 11.6503 12.6052 10.8333 12.0634C8.69187 10.6358 5.07987 10.6358 2.93847 12.0634Z" fill="white"/>
<path d="M14.7721 16.845C14.4711 16.845 14.2045 16.6386 14.1443 16.329C14.0755 15.9764 14.2991 15.641 14.6431 15.5636C15.1849 15.4518 15.6837 15.2368 16.0707 14.9358C16.5609 14.566 16.8275 14.1016 16.8275 13.6114C16.8275 13.1212 16.5609 12.6568 16.0793 12.2956C15.7009 12.0032 15.2279 11.7968 14.6689 11.6678C14.3249 11.5904 14.1013 11.2464 14.1787 10.8938C14.2561 10.5498 14.6001 10.3262 14.9527 10.4036C15.6923 10.567 16.3373 10.8594 16.8619 11.2636C17.6617 11.8656 18.1175 12.717 18.1175 13.6114C18.1175 14.5058 17.6531 15.3572 16.8533 15.9678C16.3201 16.3806 15.6493 16.6816 14.9097 16.8278C14.8581 16.845 14.8151 16.845 14.7721 16.845Z" fill="white"/>
</svg>
