<svg width="24" height="24" viewBox="0 0 24 24" fill="none" xmlns="http://www.w3.org/2000/svg">
                <path fill-rule="evenodd" clip-rule="evenodd" d="M17.7143 0H6.28571C3.91878 0 2 1.93898 2 4.33083V15.8797C2 18.2715 3.91878 20.2105 6.28571 20.2105H15.0357L22 24V4.33083C22 1.93898 20.0812 0 17.7143 0ZM8.07143 10.2857C8.07143 10.784 7.67168 11.188 7.17857 11.188C6.68546 11.188 6.28571 10.784 6.28571 10.2857C6.28571 9.78741 6.68546 9.38346 7.17857 9.38346C7.67168 9.38346 8.07143 9.78741 8.07143 10.2857ZM10.3929 11.188C10.886 11.188 11.2857 10.784 11.2857 10.2857C11.2857 9.78741 10.886 9.38346 10.3929 9.38346C9.89975 9.38346 9.5 9.78741 9.5 10.2857C9.5 10.784 9.89975 11.188 10.3929 11.188ZM14.5 10.2857C14.5 10.784 14.1003 11.188 13.6071 11.188C13.114 11.188 12.7143 10.784 12.7143 10.2857C12.7143 9.78741 13.114 9.38346 13.6071 9.38346C14.1003 9.38346 14.5 9.78741 14.5 10.2857ZM16.8214 11.188C17.3145 11.188 17.7143 10.784 17.7143 10.2857C17.7143 9.78741 17.3145 9.38346 16.8214 9.38346C16.3283 9.38346 15.9286 9.78741 15.9286 10.2857C15.9286 10.784 16.3283 11.188 16.8214 11.188Z" fill="CurrentColor"/>
            </svg>