<svg width="16" height="16" viewBox="0 0 16 16" fill="none" xmlns="http://www.w3.org/2000/svg">
<path d="M0 8.66087C0.0950514 8.50695 0.0962003 7.90879 0.147936 7.68609C0.454009 6.36851 0.639038 4.74339 1.57286 3.70586C1.95808 3.27787 2.629 2.95703 3.15748 2.76728C3.97803 2.47264 5.43417 2.72918 6.05339 3.33943C6.33203 3.35117 6.64423 3.34129 6.92553 3.33998L8.29152 3.33943L9.27503 3.33959C9.47041 3.33954 9.74198 3.34632 9.93127 3.3222C11.1036 2.46043 12.5669 2.42454 13.8088 3.1984C14.2471 3.47147 14.6883 4.01229 14.9288 4.46614C15.3466 5.34684 15.5613 6.32589 15.7664 7.27418C15.81 7.47757 15.8358 7.70325 15.88 7.91079C15.9178 8.08754 15.895 8.56756 16 8.70926V10.635C15.9236 10.8131 15.9198 11.0608 15.8906 11.25C15.8667 11.4048 15.8116 11.6366 15.7555 11.7827C15.6753 11.9782 15.5961 12.2197 15.5071 12.4039C15.2455 12.9452 14.4963 13.4513 13.8822 13.3661C12.5616 13.1829 11.6059 12.0146 10.8512 11.0135C10.6886 10.7982 10.56 10.5845 10.4009 10.3802C9.48669 10.367 8.55402 10.3777 7.63781 10.3765C6.97567 10.3757 6.23244 10.358 5.58281 10.4022C4.84409 11.5351 3.68887 13.0276 2.29909 13.3386C1.84967 13.4392 1.4846 13.3275 1.11279 13.0806C0.54412 12.7031 0.503695 12.3839 0.25335 11.8102C0.185933 11.5591 0.119449 11.3142 0.0850672 11.0562C0.0690011 10.9357 0.0518216 10.8102 0 10.6997V8.66087Z" fill="#8003AD"/>
<path d="M5.45565 9.12598C6.0094 9.15826 6.70238 9.12825 7.26926 9.12573L10.5013 9.11011C10.7604 9.38281 10.9354 9.69058 11.1483 9.97015C12.0503 11.1548 13.8432 13.1674 15.4481 11.9222C15.5287 11.8596 15.6509 11.7731 15.7554 11.7827C15.6753 11.9782 15.5961 12.2197 15.5071 12.4039C15.2454 12.9452 14.4963 13.4513 13.8822 13.3661C12.5616 13.1829 11.6058 12.0146 10.8511 11.0135C10.6885 10.7982 10.56 10.5845 10.4009 10.3802C9.48663 10.367 8.55396 10.3777 7.63776 10.3765C6.97562 10.3757 6.23238 10.358 5.58276 10.4022C4.84404 11.5351 3.68882 13.0276 2.29904 13.3386C1.84962 13.4392 1.48455 13.3275 1.11274 13.0806C0.544066 12.7031 0.503641 12.3839 0.253296 11.8102C0.266397 11.8053 0.33974 11.7817 0.349182 11.7893C0.991648 12.303 1.54794 12.4745 2.32871 12.1765C3.43318 11.7551 4.16166 10.8653 4.87226 9.96358C5.08588 9.69248 5.22921 9.39536 5.45565 9.12598Z" fill="#42034C"/>
<path d="M11.8179 3.83795C13.1923 3.74016 14.3861 4.77385 14.486 6.14801C14.5859 7.52216 13.554 8.7176 12.18 8.81956C10.803 8.92174 9.60445 7.88716 9.50436 6.51006C9.40428 5.13293 10.4407 3.93593 11.8179 3.83795Z" fill="#42034C"/>
<path d="M11.9027 4.67106C12.1699 4.61771 12.4294 4.79241 12.4804 5.06007C12.5314 5.32773 12.3545 5.58565 12.0864 5.63437C11.8216 5.68249 11.5675 5.50815 11.5171 5.24376C11.4666 4.97935 11.6388 4.72374 11.9027 4.67106Z" fill="#F7AB09"/>
<path d="M10.736 5.84289C10.9989 5.78636 11.2581 5.953 11.3158 6.21567C11.3734 6.47835 11.2078 6.7382 10.9454 6.79695C10.6814 6.85605 10.4197 6.6893 10.3617 6.42505C10.3037 6.16081 10.4716 5.89977 10.736 5.84289Z" fill="#ED3436"/>
<path d="M11.9374 7.00583C12.2055 6.97696 12.446 7.17133 12.4741 7.43951C12.5022 7.70768 12.3071 7.94766 12.0388 7.97493C11.7717 8.00207 11.533 7.80799 11.505 7.54096C11.4771 7.27391 11.6704 7.0346 11.9374 7.00583Z" fill="#3B82E1"/>
<path d="M13.0422 5.85001C13.2154 5.81144 13.3958 5.87009 13.5132 6.00309C13.6306 6.13609 13.6664 6.3224 13.6067 6.48944C13.5469 6.65649 13.4011 6.77785 13.226 6.80624C12.9659 6.84841 12.7195 6.67612 12.6697 6.41738C12.62 6.15865 12.785 5.90726 13.0422 5.85001Z" fill="#2FB584"/>
<path d="M3.76873 4.00647C5.05148 3.87873 6.19468 4.81555 6.32154 6.09837C6.4484 7.3812 5.51082 8.52378 4.2279 8.64976C2.94623 8.77564 1.80498 7.83914 1.67824 6.55755C1.5515 5.27595 2.48721 4.13406 3.76873 4.00647Z" fill="#42034C"/>
<path d="M3.92881 4.64349C4.61828 4.65432 4.49764 5.34265 4.49795 5.83028C4.71853 5.82818 5.33238 5.76788 5.52075 5.96321C5.73827 6.18877 5.66333 6.66129 5.36933 6.78921C5.20627 6.86018 4.70916 6.83084 4.48935 6.82834C4.49041 7.0051 4.49445 7.1857 4.49553 7.36246C4.49756 7.69268 4.43897 7.90531 4.08599 7.98421C4.06461 7.98476 4.04322 7.98509 4.02184 7.98523C3.3662 7.98885 3.48378 7.28474 3.49109 6.83134C3.05025 6.83652 2.35413 6.9591 2.34002 6.31604C2.3268 5.7134 3.07331 5.82613 3.48367 5.82971C3.47984 5.3871 3.36911 4.7734 3.92881 4.64349Z" fill="#F2F0F7"/>
<path d="M7.24039 7.64568C7.58228 7.6187 8.48476 7.62142 8.807 7.66673C9.07097 7.86959 9.04753 8.26143 8.74778 8.35725C8.29109 8.38264 7.77609 8.37483 7.317 8.35575C7.21259 8.3514 7.13795 8.29826 7.07723 8.21434C6.90812 7.98062 7.03264 7.79143 7.24039 7.64568Z" fill="#42034C"/>
</svg>
