<svg width="416" height="461" viewBox="0 0 416 461" fill="none" xmlns="http://www.w3.org/2000/svg">
<path d="M0.818604 253.623C0.818604 367.93 93.693 460.805 208 460.805C322.307 460.805 415.181 367.93 415.181 253.623C415.181 196.867 392.161 144.873 354.853 107.564L371.126 91.2915L378.667 98.8326C381.842 102.008 385.811 103.595 390.177 103.595C394.543 103.595 398.512 102.008 401.687 98.8326C408.037 92.4822 408.037 82.1628 401.687 75.8124L363.981 38.107C357.631 31.7566 347.312 31.7566 340.961 38.107C334.611 44.4574 334.611 54.7768 340.961 61.1271L348.502 68.6682L330.642 86.5287C300.478 64.3023 264.36 50.4109 224.67 47.2357V33.3442H260.788C269.916 33.3442 277.06 26.2 277.06 17.0713C277.06 7.94265 269.916 0.798462 260.788 0.798462H153.625C144.496 0.798462 137.352 7.94265 137.352 17.0713C137.352 26.2 144.496 33.3442 153.625 33.3442H192.124V47.2357C84.9612 55.5706 0.818604 144.873 0.818604 253.623ZM208 78.9876C304.447 78.9876 383.033 157.574 383.033 254.02C383.033 350.467 304.447 429.053 208 429.053C111.553 429.053 32.9674 350.467 32.9674 254.02C32.9674 157.177 111.553 78.9876 208 78.9876Z" fill="black"/>
<path d="M208 267.118H277.457C286.586 267.118 293.73 259.974 293.73 250.845C293.73 241.716 286.586 234.572 277.457 234.572H224.273V150.826C224.273 141.698 217.129 134.554 208 134.554C198.871 134.554 191.727 141.698 191.727 150.826V251.242C191.727 259.974 198.871 267.118 208 267.118Z" fill="black"/>
</svg>
