<svg width="14" height="21" viewBox="0 0 14 21" fill="none" xmlns="http://www.w3.org/2000/svg">
<mask id="mask0_6728_1310" style="mask-type:alpha" maskUnits="userSpaceOnUse" x="0" y="0" width="14" height="21">
<g clip-path="url(#clip0_6728_1310)">
<path fill-rule="evenodd" clip-rule="evenodd" d="M41.1817 12.3911V10.5596C41.6997 10.4382 42.0745 10.7474 42.0752 11.3177C42.0752 11.5261 42.0317 11.7435 41.9634 11.941C41.8442 12.2874 41.5673 12.4356 41.1815 12.3913M10.9718 15.8385C11.2253 15.4679 12.3311 15.5203 12.7313 15.9314C12.6471 15.9022 12.565 15.8645 12.4786 15.8465C12.1931 15.786 11.9061 15.6983 11.6176 15.6903C11.4041 15.6838 11.1868 15.7847 10.9718 15.8385Z" fill="white"/>
<path d="M5.44917 6.77101C5.47391 6.87625 5.49344 6.98298 5.50497 7.09269C5.62066 7.06294 5.72891 7.00567 5.82767 6.96495C5.82991 6.96346 5.83288 6.96123 5.83567 6.96067C5.86264 6.94245 5.88217 6.9272 5.89817 6.92069C5.89817 6.81025 5.88738 6.70128 5.86543 6.59381C5.8567 6.59465 5.84801 6.59589 5.83939 6.59753C5.71719 6.67005 5.5684 6.72099 5.44843 6.7593C5.44843 6.76302 5.44917 6.76674 5.44917 6.77101ZM5.38165 6.7143C5.36492 6.63528 5.34669 6.53133 5.30614 6.46161C5.30391 6.46012 5.30391 6.45733 5.30242 6.45584C5.22319 6.48113 5.1447 6.50735 5.06565 6.53133C5.01394 6.54881 4.96242 6.56629 4.90792 6.58154C4.87965 6.66428 4.84971 6.74851 4.82292 6.832C4.8192 6.84074 4.81846 6.84873 4.81716 6.85673C4.86142 6.85022 4.9042 6.84371 4.95219 6.83423C5.07495 6.8082 5.19715 6.77547 5.31693 6.73754C5.33943 6.73103 5.35971 6.72155 5.38165 6.7143ZM5.77541 6.30765C5.76999 6.30503 5.76409 6.30354 5.75808 6.30329C5.75207 6.30303 5.74606 6.30401 5.74044 6.30616C5.73691 6.30691 5.73393 6.30914 5.73114 6.30988C5.72822 6.31219 5.72463 6.31349 5.72091 6.3136C5.6454 6.34335 5.5684 6.36715 5.50367 6.39039C5.4674 6.40341 5.42815 6.41512 5.39114 6.42758L5.36994 6.43539C5.37143 6.45733 5.3744 6.47685 5.37645 6.49712C5.39467 6.56406 5.41365 6.63007 5.43039 6.69701C5.54515 6.65703 5.65916 6.61408 5.77039 6.56313C5.79791 6.55012 5.8234 6.53561 5.84944 6.51981C5.84088 6.48782 5.8327 6.45584 5.8234 6.42461C5.80973 6.38465 5.7937 6.34572 5.77541 6.30765ZM9.0761 10.1099C9.06736 10.0727 9.05787 10.0359 9.05564 9.99298C8.82835 9.6648 8.63213 9.32118 8.42084 8.98928C8.35109 8.87808 8.28338 8.74886 8.20787 8.64863C8.13663 8.55641 8.02485 8.47571 7.9339 8.38497C7.6616 8.11108 7.37089 7.86564 7.08538 7.61518C7.30039 7.1944 7.4996 6.73903 7.72986 6.33889C7.80686 6.2052 7.91009 6.06277 7.96384 5.92852C8.00513 5.82606 8.02187 5.6946 8.05163 5.57839C8.14184 5.21878 8.21717 4.88409 8.31389 4.52597C8.37062 4.48097 8.42437 4.43449 8.42084 4.33129C8.34011 4.32107 8.30161 4.26882 8.24563 4.23405C8.0946 4.30433 7.79514 4.27458 7.76836 4.13661C7.73265 3.94844 7.99937 3.93319 8.02187 3.80545C7.95361 3.80694 7.82937 3.86719 7.79812 3.81475C7.86136 3.76771 7.94264 3.73796 8.00234 3.68775C7.88312 3.58604 7.71089 3.53807 7.56414 3.46407C7.54461 3.31011 7.46965 3.21416 7.47635 3.03548C7.49439 2.98527 7.52285 2.95924 7.53735 2.89174C7.54609 2.86478 7.54609 2.85177 7.52787 2.80751C7.48211 2.80603 7.44361 2.81551 7.41813 2.80082C7.36661 2.75155 7.41887 2.65281 7.37814 2.58662C7.35712 2.65634 7.35136 2.74206 7.31062 2.79152C7.30765 2.74665 7.29421 2.70309 7.27138 2.66434C7.28161 2.8103 7.32811 2.92075 7.3601 3.04496C7.2511 3.02674 7.21112 3.07694 7.11737 3.07397C7.11737 3.10372 7.1064 3.12343 7.08538 3.13216C6.86591 3.20766 6.60086 3.23666 6.40315 3.33688C6.31517 3.24466 6.29192 3.08494 6.20971 2.9862C6.24617 3.13421 6.33061 3.24987 6.37488 3.41535C6.66317 3.33614 6.89362 3.20041 7.20312 3.14221C7.23288 3.10874 7.30411 3.08921 7.3601 3.11246C7.36661 3.16638 7.40585 3.2309 7.37814 3.28835C7.2671 3.27236 7.33387 3.28612 7.26282 3.30862C7.23864 3.29561 7.23362 3.32815 7.19066 3.3341C7.14211 3.35083 7.11737 3.35083 7.07162 3.37984C7.02289 3.40085 7.03163 3.40531 6.98364 3.41182C6.94161 3.43134 6.99108 3.41182 6.94161 3.43134C6.89511 3.43934 6.88916 3.44436 6.8434 3.46035C6.77365 3.4808 6.79913 3.47336 6.73961 3.4901C6.64792 3.51483 6.70316 3.49958 6.60737 3.52506C6.46862 3.55481 6.59342 3.52134 6.46267 3.56131C6.40166 3.47857 6.34288 3.39583 6.26793 3.32684C6.23668 3.35436 6.22738 3.27962 6.21864 3.21138C6.13792 3.18367 6.11318 3.10167 6.11113 2.99624C6.08416 2.99122 6.04343 3.05723 5.99488 3.06392C5.91918 3.03324 5.86413 2.93247 5.7609 2.91852C5.67665 2.90625 5.54515 2.9505 5.43969 2.96724C5.35766 2.97895 5.27787 2.98174 5.2124 2.99996C4.70016 3.04868 2.93524 3.33558 2.61124 3.3856C2.95068 3.35585 4.86291 3.12621 5.28494 3.03194C5.47242 3.0167 5.66642 2.96296 5.83921 2.96724C5.85595 2.99122 5.87213 3.018 5.86711 3.06392C5.60243 3.15318 5.32641 3.17921 5.04965 3.22011C4.88895 3.24391 4.38341 3.34786 4.28818 3.36608C3.87899 3.44808 3.41493 3.53305 2.96296 3.61003C2.83146 3.63253 2.69419 3.65428 2.56325 3.67827C1.78225 3.8207 0.954755 3.88095 0.136743 3.78574C0.0712723 3.7757 0.0457908 3.79021 0.032771 3.80174C0.0422458 3.76719 0.0642636 3.73743 0.0945218 3.71825C0.195518 3.67028 0.317718 3.62379 0.437499 3.60055H0.49553C0.51971 3.57954 0.459261 3.59181 0.437499 3.59051C0.336503 3.58753 0.169292 3.59255 0.0967538 3.59051C0.0770382 3.61654 0.0415129 3.65428 0.034259 3.69798C0.0246242 3.73666 0.0163731 3.77567 0.00952148 3.81494L0.00952148 3.82498C0.0430008 3.98619 0.0662504 4.15632 0.154785 4.2638C0.438987 4.26751 0.698266 4.34728 0.964985 4.35026C1.18074 4.35398 1.39724 4.32107 1.60853 4.31177C1.78225 4.30377 1.95672 4.30656 2.13472 4.29206C2.44421 4.26733 2.76022 4.18756 3.07046 4.13661C4.02518 3.98042 4.96595 3.80899 5.85818 3.61951C5.94467 3.52933 6.00865 3.39787 6.19892 3.46407C6.2696 3.61431 6.32689 3.77849 6.38492 3.94119C6.52814 3.98489 6.63415 4.09812 6.81364 4.02914C6.73366 3.66023 7.0759 3.62825 7.30039 3.51278C7.28812 3.54904 7.30839 3.56299 7.31062 3.59051C7.51113 3.59423 7.4849 3.82572 7.57288 3.94119C7.37888 3.87072 7.18136 3.94919 7.05711 4.01891C7.00987 4.04494 6.91166 4.09738 6.90162 4.13661C6.88041 4.21285 6.93361 4.3735 6.9496 4.48748C6.9669 4.61095 7.0054 4.74668 6.99964 4.84765C6.99034 4.96832 6.91464 5.09755 6.88116 5.19852C6.84127 5.3207 6.80566 5.44424 6.7744 5.56891C6.51214 5.80654 6.28988 6.08471 6.00437 6.3004C5.99265 6.25968 5.98763 6.21245 5.97815 6.16894C5.94615 6.19869 5.9084 6.22472 5.86543 6.2474C5.86264 6.24871 5.86115 6.24945 5.85892 6.25112C5.85092 6.25614 5.84218 6.25968 5.83344 6.26414C5.84293 6.28589 5.84888 6.30988 5.8539 6.33368C5.87492 6.38091 5.89166 6.42814 5.90468 6.4776C5.91119 6.47388 5.9177 6.47016 5.92216 6.46588C5.94262 6.44785 5.96289 6.42963 5.98317 6.41085C5.99842 6.3876 6.01218 6.36436 6.03339 6.34837C6.05515 6.40415 6.03115 6.43613 5.99767 6.46533C5.97431 6.49299 5.94827 6.51828 5.91993 6.54082C5.95118 6.6773 5.96271 6.81973 5.95992 6.95342C5.58513 7.23159 5.0597 7.32809 4.6027 7.35579C4.46841 7.36304 4.33766 7.25111 4.2322 7.17785C4.14292 7.11537 4.0542 7.04992 3.96697 6.98317C3.96622 6.98317 3.96492 6.98094 3.96325 6.97945C3.84644 6.89578 3.74042 6.79202 3.71643 6.6403C3.71643 6.63806 3.71569 6.63658 3.71494 6.63453C3.71569 6.63528 3.71569 6.63528 3.71643 6.63453C3.70936 6.58129 3.71124 6.52724 3.72201 6.47462C3.73019 6.51609 3.73373 6.56034 3.73745 6.60608C3.74619 6.62802 3.75846 6.64978 3.76497 6.67879C3.80217 6.79927 3.9067 6.86175 4.00119 6.93371C4.14292 7.04044 4.28521 7.14717 4.43717 7.23865C4.4952 7.27212 4.53742 7.29759 4.6014 7.29462V7.29332C4.6014 7.29332 4.60196 7.29332 4.60196 7.29406C4.64288 7.17413 4.68491 7.04769 4.7262 6.9272C4.70016 6.92943 4.67468 6.93371 4.64995 6.9352C4.47697 6.94449 4.29618 7.01943 4.15743 6.90247C4.11521 6.88146 4.08489 6.85022 4.07373 6.80578C4.1392 6.81025 4.17193 6.84725 4.2082 6.87997C4.22997 6.88741 4.25043 6.89299 4.26716 6.89671C4.28167 6.90098 4.29916 6.90247 4.31441 6.90396C4.41392 6.90396 4.50598 6.89745 4.59842 6.88946C4.60214 6.88722 4.60568 6.88722 4.60996 6.88722C4.65794 6.87849 4.70295 6.87272 4.74666 6.86677C4.7727 6.78775 4.79967 6.70872 4.8272 6.62877C4.83018 6.62003 4.83166 6.61259 4.8352 6.60608C4.7727 6.62003 4.7117 6.63379 4.65069 6.64699C4.46841 6.69533 4.28614 6.74126 4.102 6.78477C4.06517 6.79221 4.03318 6.79221 4.00119 6.78552C3.99974 6.78668 3.99801 6.78745 3.99617 6.78775C3.99542 6.78626 3.99394 6.78551 3.99394 6.78477C3.95116 6.77399 3.91396 6.74926 3.88271 6.70128C3.87508 6.68414 3.86879 6.66642 3.86392 6.64829C3.82542 6.58433 3.80571 6.50661 3.83045 6.40713C3.82301 6.56183 3.92921 6.71077 4.03169 6.73401C4.07447 6.73475 4.1232 6.71728 4.15892 6.70928C4.18495 6.70352 4.21099 6.69701 4.23666 6.69031C4.23796 6.68976 4.23871 6.68976 4.23945 6.68976C4.23945 6.68901 4.24094 6.68901 4.24243 6.68901C4.42977 6.64369 4.6163 6.59503 4.8019 6.54305C5.05839 6.47109 5.31414 6.39616 5.56468 6.30319C5.59313 6.2924 5.6214 6.28087 5.65042 6.26972C5.67088 6.26116 5.67813 6.25893 5.68669 6.25614C5.72593 6.23941 5.76444 6.22119 5.80294 6.20297C5.80442 6.20166 5.80517 6.20166 5.80591 6.20092L5.88068 6.16094C5.89891 6.14923 5.91918 6.13844 5.93592 6.1245C5.94467 6.11799 5.95118 6.11297 5.95638 6.11C5.9601 6.04975 5.95638 6.06277 5.93741 6.01275C5.90263 6.02205 5.85018 6.05496 5.81614 6.06146C5.7064 6.08545 5.73393 6.08248 5.64242 6.09493C5.61843 5.99676 5.56114 5.93001 5.53715 5.83276C5.66921 5.75336 5.84293 5.71562 5.84888 5.51015C5.67367 5.45418 5.5829 5.3772 5.42164 5.30748C5.37096 5.23472 5.32505 5.15876 5.28419 5.08007C5.21816 4.97409 5.23769 5.02206 5.14618 4.90659C5.07495 4.81567 4.98492 4.72493 4.90941 4.68793C4.84041 4.65446 4.72992 4.6182 4.63916 4.59421C4.54895 4.57023 4.45874 4.52672 4.36667 4.52597C4.30418 4.52448 4.22271 4.5507 4.15222 4.56502C3.94893 4.60593 3.88922 4.63419 3.76144 4.73069C3.70564 4.77439 3.62994 4.8231 3.5959 4.86736C3.58121 4.88688 3.54048 4.9343 3.52746 4.95456C3.49993 5.00309 3.4737 5.02132 3.45045 5.06483C3.40823 5.14404 3.40898 5.15352 3.38145 5.208C3.31524 5.34299 3.25423 5.48319 3.22819 5.6511C3.23191 6.12468 3.50495 6.31267 3.59572 6.69905C3.60223 6.64699 3.5667 6.58582 3.59572 6.54286C3.62845 6.59232 3.61618 6.68604 3.62622 6.758C3.69876 6.84074 3.82394 6.87198 3.86095 6.99116C3.76795 6.97443 3.69392 6.83498 3.62194 6.82977C3.73745 6.92795 3.84142 7.03542 3.9679 7.09864C3.98594 7.10793 4.01347 7.09864 4.03541 7.10868C4.14143 7.1574 4.22141 7.28532 4.3172 7.31284C4.36146 7.3266 4.37244 7.30708 4.40592 7.35505C4.18495 7.3928 4.12041 7.09659 3.98891 7.1574C3.88922 7.20239 3.86671 7.18789 3.75195 7.20611C3.73373 7.29759 3.84997 7.43203 3.86671 7.51923C3.94297 7.62801 3.86969 7.68175 3.93498 7.80093C4.00342 7.86267 4.04471 7.87866 4.10367 7.91715C4.13715 8.14808 4.11446 8.39297 4.19072 8.61944C4.27646 8.78735 4.47418 8.8991 4.6107 9.04729C4.75968 9.20999 4.96223 9.38291 5.07718 9.49689C5.47893 9.88625 5.86394 10.2116 6.27816 10.5872C6.38287 10.6823 6.63341 10.8609 6.68642 10.9779C6.73292 11.0783 6.7504 11.214 6.78314 11.3375C6.81662 11.4595 6.87037 11.5917 6.88116 11.6984C6.90366 11.8918 6.83187 12.0761 6.88116 12.2832C6.88916 12.3157 6.91036 12.352 6.9364 12.3899C7.73339 11.8756 8.48761 11.2068 9.13785 10.3968C9.18584 10.3373 9.23159 10.2778 9.27735 10.2167C9.2236 10.1652 9.16185 10.123 9.0761 10.1099ZM4.77661 6.96495C4.77512 6.96792 4.77512 6.97146 4.77289 6.97517C4.74387 7.06071 4.7156 7.14661 4.68584 7.23289C4.67784 7.25762 4.67338 7.27658 4.66836 7.28737C4.85259 7.27336 5.03547 7.24519 5.21537 7.20314C5.2496 7.19514 5.28159 7.18436 5.31581 7.17487C5.36008 7.15591 5.41234 7.13267 5.44787 7.11909C5.44508 7.0912 5.44415 7.06294 5.44285 7.0529C5.43262 6.95993 5.41588 6.8677 5.39486 6.77603C5.38333 6.7805 5.36882 6.78477 5.3571 6.78849C5.25388 6.82196 5.15009 6.85171 5.04463 6.87495C4.96037 6.89726 4.87686 6.91698 4.79614 6.92348C4.78888 6.93743 4.78386 6.95119 4.77661 6.96495ZM6.42286 2.62511C6.40705 2.52191 6.47959 2.50982 6.53911 2.48063C6.55957 2.47914 6.58003 2.4784 6.60235 2.47691C6.65257 2.48342 6.67805 2.54311 6.70632 2.56784C6.71134 2.51912 6.73757 2.4929 6.76156 2.4639C6.79932 2.46018 6.83931 2.45516 6.87781 2.45088C6.93733 2.46018 6.93305 2.53437 6.97955 2.55761C6.97211 2.43563 7.14955 2.40644 7.22283 2.47914C7.22209 2.44493 7.20907 2.42336 7.2033 2.39119L6.35683 2.47914C6.30885 2.47766 6.26607 2.47914 6.24784 2.48937C6.35311 2.48788 6.36837 2.57713 6.42286 2.62511ZM7.48509 2.39789C7.53828 2.3964 7.59055 2.39993 7.64579 2.41165C7.65304 2.41369 7.66178 2.41369 7.66681 2.41444C7.68727 2.42318 7.68931 2.45237 7.71982 2.45088C7.75329 2.42764 7.80984 2.42913 7.86582 2.43117C7.9073 2.45237 7.9233 2.49885 7.95454 2.52786C7.97556 2.44716 8.09181 2.42541 8.15858 2.46966C8.20378 2.49941 8.17978 2.54887 8.22703 2.56784C8.21605 2.49941 8.25828 2.48565 8.29957 2.47115C8.33677 2.47691 8.34328 2.48788 8.36001 2.50462C8.36281 2.50834 8.3788 2.54887 8.3788 2.54887C8.39777 2.61135 8.41302 2.67457 8.43553 2.7363C8.45152 2.78055 8.45655 2.83429 8.47106 2.85976H8.47031V2.90848C8.43832 2.92521 8.39703 2.93247 8.35332 2.93823C8.36578 2.97449 8.3948 2.99345 8.40205 3.03548C8.32356 3.09646 8.2168 3.00275 8.13905 3.03548C8.14203 3.10372 8.20155 3.11543 8.21754 3.17214C8.16602 3.26511 8.05907 3.18441 7.97407 3.18144C7.93408 3.17939 7.90228 3.20766 7.86582 3.20041C7.82955 3.19297 7.797 3.1264 7.76855 3.16192C7.7598 3.19817 7.87531 3.2177 7.85634 3.26864C8.00532 3.26065 8.10557 3.3936 8.24581 3.40531C8.28227 3.4081 8.32728 3.38932 8.36299 3.39583C8.4718 3.41386 8.57428 3.59906 8.58507 3.88243C8.58507 3.81773 8.63603 3.44083 8.63603 3.37537C8.70299 3.34934 8.74856 3.29914 8.81273 3.26864C8.82129 3.15169 8.82854 3.0312 8.84026 2.91852C8.73201 2.89974 8.61576 2.88449 8.50677 2.86478C8.47756 2.76977 8.42976 2.51261 8.32003 2.46167C8.32151 2.46092 8.32282 2.46092 8.3243 2.46018C8.23428 2.40997 8.08679 2.40718 7.98858 2.40216C7.91976 2.39845 7.85057 2.39789 7.78231 2.39919C7.75106 2.39993 7.68708 2.41444 7.65732 2.40365C7.5898 2.37762 7.54833 2.36293 7.47653 2.37167C7.45384 2.38394 7.44677 2.39212 7.44528 2.39714C7.43003 2.41313 7.41032 2.43266 7.43729 2.44065C7.44231 2.41667 7.46333 2.40942 7.48509 2.39789ZM12.985 14.3901C12.9413 14.4295 12.9298 14.4528 12.9058 14.486C12.8715 14.5173 12.8715 14.521 12.8375 14.5558C12.778 14.619 12.7953 14.619 12.7185 14.6785C12.6813 14.7157 12.6595 14.7294 12.5948 14.7845C12.5215 14.8529 12.472 14.8791 12.3798 14.9531C12.2918 15.0243 12.225 15.0868 12.1263 15.1681C12.0943 15.1922 11.9933 15.2553 11.8088 15.3497C11.7325 15.397 11.6365 15.4447 11.5318 15.4215C11.6205 15.3373 11.7055 15.224 11.8341 15.1188C12.0173 14.9706 12.3143 14.9241 12.302 14.6612C12.2955 14.5297 12.2475 14.412 12.1988 14.2936C12.2308 14.2731 12.2658 14.2521 12.2896 14.2333C12.3463 14.1906 12.4198 14.1541 12.4823 14.1222C12.57 14.0779 12.6608 14.0699 12.7598 14.0902C12.857 14.1099 12.9145 14.2036 12.9595 14.2871C12.98 14.3256 12.995 14.3631 12.985 14.3901ZM9.82455 14.9916C9.58536 14.9079 9.2926 14.7817 8.94832 14.8564C8.9446 14.8639 8.93884 14.8659 8.93884 14.8754C8.95985 14.8507 9.20109 14.8769 9.13357 14.8856C8.9446 14.8964 8.73312 14.9051 8.58712 14.9531C8.86388 14.6852 9.47358 14.7447 9.79684 14.9241C9.8491 14.9501 9.8571 14.9539 9.90081 14.9806C9.93429 15.0519 9.89207 15.0141 9.82455 14.9916ZM8.29213 19.0265C8.28134 19.1178 8.30087 19.1775 8.19634 19.1615C8.02838 19.1345 8.02485 19.0046 7.9564 18.9043C7.91229 18.8413 7.8718 18.7758 7.83513 18.7082C7.87363 18.6094 7.89614 18.6472 7.99286 18.6277C8.08362 18.6072 8.18685 18.5659 8.23335 18.5659C8.28059 18.5659 8.25809 18.5325 8.28859 18.7191C8.31538 18.8753 8.3031 18.9255 8.29231 19.0263M6.01218 20.2567C5.94039 20.3329 5.81968 20.3301 5.54291 20.3179C5.2669 20.3048 5.28438 20.2952 5.12665 20.2262C4.99441 20.171 4.95145 20.1907 4.9812 19.8435C5.0132 19.4754 5.30019 19.5429 5.61266 19.6423C5.92941 19.7411 5.93165 19.7738 5.94615 19.8398C5.96215 19.9067 6.02464 20.1035 6.02464 20.1035C6.02464 20.1035 6.06017 20.2067 6.01218 20.2567ZM13.0445 14.3793C13.0361 14.3217 13.0169 14.2663 12.9878 14.2159C12.937 14.1411 12.8628 14.0801 12.7743 14.0576C12.5635 14.0009 12.3508 14.1396 12.1908 14.2733C12.1588 14.1976 12.1268 14.1194 12.1058 14.0372L11.9503 13.7068C11.8915 13.5628 11.7768 13.4771 11.7463 13.3064C11.4316 12.8446 11.2833 12.217 10.8088 11.9126C10.7123 11.7929 10.6113 11.6759 10.4893 11.5817C10.3613 11.3628 10.1063 11.2808 10.0301 11.0257C10.0126 10.9692 10.0301 10.89 10.0011 10.8312C9.98209 10.7927 9.92852 10.7797 9.8731 10.7332C9.83106 10.6968 9.79312 10.643 9.75834 10.617C9.72411 10.5923 9.6871 10.5705 9.65157 10.5486C8.85086 11.4028 7.95584 12.0718 7.04186 12.5307C7.04986 12.5424 7.05916 12.5549 7.06715 12.5656C7.14936 12.6869 7.25966 12.7931 7.27789 12.9455C7.28533 13.013 7.31788 13.0727 7.32662 13.1372C7.33164 13.1911 7.35415 13.2332 7.37535 13.2811C7.3999 13.3392 7.39488 13.3994 7.3999 13.4606C7.40362 13.5113 7.42538 13.5528 7.43766 13.6008C7.44287 13.6231 7.43041 13.6465 7.43766 13.6675C7.44212 13.682 7.45812 13.6871 7.46463 13.7003C7.47914 13.735 7.47207 13.7895 7.48137 13.828C7.49513 13.897 7.51764 13.9667 7.51262 14.0387C7.50332 14.1869 7.53493 14.3401 7.54665 14.4868C7.56637 14.709 7.57288 14.9312 7.56637 15.1528C7.56159 15.2675 7.55384 15.3821 7.54312 15.4964C7.53661 15.5544 7.52936 15.6126 7.52266 15.6699C7.51708 15.7064 7.51987 15.8146 7.49662 15.8401C7.37237 15.9758 7.32811 16.1552 7.21316 16.2889C7.1276 16.3884 6.99666 16.4669 6.89139 16.5511C6.82889 16.6026 6.76565 16.6548 6.70242 16.7065C6.65461 16.7465 6.59138 16.779 6.55566 16.833C6.52962 16.8705 6.51437 16.92 6.49317 16.9635C6.44537 17.066 6.39217 17.1669 6.33991 17.2694C6.30271 17.3398 6.27741 17.4146 6.24319 17.4858C6.21138 17.5483 6.16842 17.5998 6.12992 17.658C6.08342 17.7262 6.0704 17.8082 6.00791 17.8694C5.96411 17.9143 5.92311 17.9618 5.88515 18.0116C5.79438 18.1288 5.75588 18.1736 5.67311 18.2958C5.5909 18.4192 5.51539 18.5644 5.41941 18.6669C5.33441 18.7569 5.21444 18.8296 5.11791 18.9094C5.01561 18.993 4.92094 19.0496 4.81641 19.1563C4.75094 19.2885 4.76619 19.4426 4.73718 19.5827C4.7249 19.6422 4.68845 19.6858 4.68845 19.7491C4.68845 19.8181 4.72267 19.8965 4.73718 19.9713C4.7647 20.1137 4.73067 20.3112 4.84971 20.4157C4.9892 20.5371 5.21891 20.5973 5.39467 20.5973C5.68818 20.5706 5.90914 20.5495 6.2099 20.527C6.28764 20.4921 6.26867 20.3389 6.2657 20.3134C6.26216 20.2677 6.23668 20.2414 6.26793 20.1957C6.6641 19.7085 6.98587 19.147 7.47635 18.7547C7.54461 18.8521 7.62961 18.9413 7.7094 19.0466C7.78212 19.1383 7.8541 19.2798 7.94413 19.3385C8.05015 19.4092 8.16583 19.4664 8.31389 19.4744C8.47663 19.3882 8.39759 18.7074 8.5581 18.4417C8.67714 18.4192 8.76735 18.364 8.88062 18.3348C9.60656 17.605 10.4216 16.8612 11.2 16.1522C11.3125 16.05 11.4293 15.9191 11.5413 15.8501C11.7478 15.7237 11.994 15.6794 12.204 15.5675C12.5468 15.1638 13.107 14.5188 13.0445 14.3793Z" fill="#2C5BA7"/>
<path d="M1.7649 4.30629C1.33896 4.98404 1.00696 5.68262 0.767212 6.37766C1.06432 5.6538 1.4536 4.97129 1.92541 4.34701C1.9362 4.33102 1.94866 4.31652 1.96019 4.30127C1.89491 4.3035 1.82944 4.30499 1.7649 4.30629Z" fill="#B6CA5F"/>
<mask id="mask1_6728_1310" style="mask-type:luminance" maskUnits="userSpaceOnUse" x="2" y="0" width="11" height="14">
<path d="M7.98839 0.00219727H8.78855V0.0202334H7.98876L7.98839 0.00219727ZM7.72837 0.0202334H8.93735V0.0391993H7.72837V0.0202334ZM7.63537 0.0391993H9.06754V0.0574215H7.63537V0.0391993ZM7.5234 0.0574215H9.17933V0.0762014H7.5234V0.0574215ZM7.41236 0.0762014H9.29037V0.0951673H7.41236V0.0762014ZM7.30039 0.0951673H9.38355V0.113203H7.30039V0.0951673ZM7.18935 0.113203H9.43935V0.132169H7.18935V0.113203ZM7.13318 0.132169H9.49533V0.150391H7.13318V0.132169ZM7.05822 0.150391H9.56917V0.169171H7.05822V0.150391ZM6.98438 0.169171H9.62553V0.188137H6.98438V0.169171ZM6.92858 0.188137H9.68133V0.206173H6.92858V0.188137ZM6.85419 0.206173H9.75536V0.225139H6.85437L6.85419 0.206173ZM6.77941 0.225139H9.81153V0.243362H6.77979L6.77941 0.225139ZM6.72436 0.243362H9.86733V0.262141H6.72436V0.243362ZM6.6494 0.262141H9.90434V0.281107H6.64959L6.6494 0.262141ZM6.5936 0.281107H9.94154V0.299144H6.5936V0.281107ZM6.53836 0.299144H9.9793V0.318109H6.53836V0.299144ZM6.50042 0.318109H10.0163V0.336332H6.50042V0.318109ZM6.44537 0.336332H10.0723V0.355111H6.44537V0.336332ZM6.38938 0.355111H10.1093V0.374077H6.38938V0.355111ZM6.3334 0.374077H10.1463V0.392114H6.3334V0.374077ZM6.2962 0.392114H10.1835V0.411079H6.2962V0.392114ZM6.2404 0.411079H10.2203V0.429302H6.2404V0.411079ZM6.1846 0.429302H10.2765V0.448081H6.1846V0.429302ZM6.1474 0.448081H10.3133V0.467047H6.1474V0.448081ZM6.0916 0.467047H10.3323V0.485084H6.0916V0.467047ZM6.03543 0.485084H10.3695V0.504049H6.0358L6.03543 0.485084ZM5.99842 0.504049H10.4065V0.522272H5.99842V0.504049ZM5.9614 0.522272H10.4253V0.541052H5.9614V0.522272ZM5.9242 0.541052H10.4625V0.560017H5.9242V0.541052ZM5.88738 0.560017H10.4993V0.578054H5.88738V0.560017ZM5.84943 0.578054H10.5183V0.597019H5.84943V0.578054ZM5.81242 0.597019H10.5553V0.615242H5.81261L5.81242 0.597019ZM5.75662 0.615242H10.5741V0.634022H5.75643L5.75662 0.615242ZM5.71942 0.634022H10.6113V0.652987H5.71961L5.71942 0.634022ZM5.68241 0.652987H10.6485V0.671024H5.68241V0.652987ZM5.64521 0.671024H10.6671V0.689989H5.64521V0.671024ZM5.60838 0.689989H10.6853V0.708212H5.60838V0.689989ZM5.57044 0.708212H10.7233V0.726992H5.57044V0.708212ZM5.53342 0.726992H10.7413V0.745957H5.53342V0.726992ZM5.49641 0.745957H10.7601V0.763994H5.49641V0.745957ZM5.45921 0.763994H10.7973V0.782959H5.45921V0.763994ZM5.42238 0.782959H10.8163V0.801182H5.42238V0.782959ZM5.38444 0.801182H10.8345V0.819962H5.38481L5.38444 0.801182ZM5.34743 0.819962H10.8533V0.838927H5.34743V0.819962ZM5.32939 0.838927H10.8713V0.856964H5.32939V0.838927ZM5.29144 0.856964H10.9093V0.875929H5.29144V0.856964ZM5.25443 0.875929H10.9273V0.894152H5.25462L5.25443 0.875929ZM5.21742 0.894152H10.9461V0.912932H5.21742V0.894152ZM5.19845 0.912932H10.9643V0.931897H5.19845V0.912932ZM5.16143 0.931897H10.9833V0.949934H5.16162L5.16143 0.931897ZM5.12442 0.949934H11.0023V0.9689H5.12442V0.949934ZM5.08722 0.9689H11.0205V0.987122H5.08722V0.9689ZM5.06862 0.987122H11.0391V1.0059H5.06862V0.987122ZM5.03142 1.0059H11.0573V1.02487H5.03142V1.0059ZM4.99422 1.02487H11.0763V1.0429H4.99422V1.02487ZM4.95739 1.0429H11.0953V1.06187H4.95739V1.0429ZM4.93842 1.06187H11.1321V1.08009H4.93842V1.06187ZM4.90122 1.08009H11.1321V1.09887H4.90122V1.08009ZM4.88262 1.09887H11.1503V1.11784H4.88262V1.09887ZM4.84542 1.11784H11.1693V1.13587H4.84542V1.11784ZM4.82645 1.13587H11.1883V1.15484H4.82645V1.13587ZM4.78944 1.15484H11.2063V1.17306H4.78963L4.78944 1.15484ZM4.7714 1.17306H7.30039V1.19184H4.7714V1.17306ZM7.3374 1.17306H11.2253V1.19184H7.3374V1.17306ZM4.73345 1.19184H7.07738V1.21081H4.73345V1.19184ZM7.84034 1.19184H11.2433V1.21081H7.84034V1.19184ZM4.71523 1.21081H6.85419V1.22884H4.71523V1.21081ZM8.00718 1.21081H11.2433L11.2431 1.22884H8.00736L8.00718 1.21081ZM4.67821 1.22884H6.74222V1.24781H4.6784L4.67821 1.22884ZM8.1742 1.22884H11.2623V1.24781H8.17439L8.1742 1.22884ZM4.65943 1.24781H6.63136V1.26603H4.65943V1.24781ZM8.24916 1.24781H11.2813V1.26603H8.24916V1.24781ZM4.62223 1.26603H6.51939V1.28481H4.62223V1.26603ZM8.34216 1.26603H11.2995V1.28481H8.34216V1.26603ZM4.60363 1.28481H6.42639V1.30378H4.60363V1.28481ZM8.41655 1.28481H11.3181V1.30378H8.41655V1.28481ZM4.56643 1.30378H6.3334V1.32181H4.56643V1.30378ZM8.49133 1.30378H11.3363V1.32181H8.49133V1.30378ZM4.54746 1.32181H6.25937V1.34078H4.54746V1.32181ZM8.58432 1.32181H11.3553V1.34078H8.58432V1.32181ZM4.51044 1.34078H6.18441V1.359H4.51044V1.34078ZM8.63956 1.34078H11.3553V1.359H8.63938L8.63956 1.34078ZM4.4924 1.359H6.12843V1.37778H4.4924V1.359ZM8.69536 1.359H11.3743V1.37778H8.69536V1.359ZM4.45465 1.37778H6.0544V1.39675H4.45446L4.45465 1.37778ZM8.73256 1.37778H11.3923V1.39675H8.73275L8.73256 1.37778ZM4.43623 1.39675H5.98V1.41478H4.43623V1.39675ZM8.78818 1.39675H11.4111V1.41478H8.78836L8.78818 1.39675ZM4.39922 1.41478H5.90523V1.43375H4.39922V1.41478ZM8.84416 1.41478H11.4291V1.43375H8.84435L8.84416 1.41478ZM4.38025 1.43375H5.84925V1.45197H4.38043L4.38025 1.43375ZM8.89996 1.43375H11.4481V1.45197H8.90015L8.89996 1.43375ZM4.34305 1.45197H5.81242V1.47075H4.34305V1.45197ZM8.95613 1.45197H11.4671V1.47075H8.95613V1.45197ZM4.32426 1.47075H5.75643V1.48972H4.32426V1.47075ZM8.99314 1.47075H11.4669V1.48972H8.99314V1.47075ZM4.30603 1.48972H5.70101V1.50775H4.30603V1.48972ZM9.04894 1.48972H11.4855V1.50775H9.04931L9.04894 1.48972ZM4.28743 1.50775H5.64521V1.52672H4.28743V1.50775ZM9.08614 1.50775H11.5041V1.52672H9.08614V1.50775ZM4.25024 1.52672H5.58941V1.54494H4.25024V1.52672ZM9.12334 1.52672H11.5041V1.54494H9.12334V1.52672ZM4.23164 1.54494H5.53361V1.56372H4.23164V1.54494ZM9.16054 1.54494H11.5223V1.56372H9.16054V1.54494ZM4.21341 1.56372H5.47744V1.58269H4.21341V1.56372ZM9.19737 1.56372H11.5413V1.58269H9.19737V1.56372ZM4.19444 1.58269H5.44061V1.60072H4.19444V1.58269ZM9.23531 1.58269H11.5413V1.60072H9.23531V1.58269ZM4.15724 1.60072H5.38426V1.61969H4.15724V1.60072ZM9.27214 1.60072H11.5599V1.61969H9.27214V1.60072ZM4.13827 1.61969H5.34724V1.63791H4.13827V1.61969ZM9.30934 1.6195H11.5603V1.63773H9.30934V1.6195ZM4.12041 1.63773H5.31042V1.65651H4.12041V1.63773ZM9.34635 1.63773H11.5783V1.65651H9.34635V1.63773ZM4.08265 1.65651H5.27322V1.67547H4.08228L4.08265 1.65651ZM9.38355 1.65651H11.5971V1.67547H9.38336L9.38355 1.65651ZM4.06424 1.67566H5.21742V1.69369H4.06424V1.67566ZM9.40215 1.67566H11.5969V1.69369H9.40234L9.40215 1.67566ZM4.04545 1.69369H5.18003V1.71266H4.04545V1.69369ZM9.43935 1.69369H11.6151V1.71266H9.43954L9.43935 1.69369ZM4.02723 1.71266H5.1432V1.73088H4.02723V1.71266ZM9.45813 1.71266H11.6343V1.73088H9.45813V1.71266ZM3.98928 1.73088H5.08722V1.74966H3.98928V1.73088ZM9.49515 1.73088H11.6343L11.6341 1.74966H9.49533L9.49515 1.73088ZM3.97105 1.74966H5.05021V1.76863H3.97124L3.97105 1.74966ZM9.53235 1.74966H11.6531V1.76863H9.53235V1.74966ZM3.95246 1.76863H5.01226V1.78666H3.95264L3.95246 1.76863ZM9.55095 1.76863H11.6713V1.78666H9.55113L9.55095 1.76863ZM3.91544 1.78666H4.97562V1.80563H3.91544V1.78666ZM9.58833 1.78666H11.6713L11.6715 1.80563H9.58833V1.78666ZM3.89647 1.80563H4.93842V1.82385H3.89647V1.80563ZM9.6073 1.80563H11.6901V1.82385H9.60693L9.6073 1.80563ZM3.87824 1.82385H4.90122V1.84263H3.87824V1.82385ZM9.64413 1.82385H11.6901V1.84263H9.64413V1.82385ZM3.85927 1.84263H4.86421V1.8616H3.85927V1.84263ZM9.66236 1.84263H11.7083V1.8616H9.66236V1.84263ZM3.82226 1.8616H4.82627V1.87963H3.82244L3.82226 1.8616ZM9.70012 1.8616H11.7273V1.87963H9.7003L9.70012 1.8616ZM3.80329 1.87963H4.78963V1.8986H3.80384L3.80329 1.87963ZM9.71816 1.87963H11.7273V1.8986H9.71853L9.71816 1.87963ZM3.78524 1.8986H4.75243V1.91682H3.78524V1.8986ZM9.73713 1.8986H11.7459V1.91682H9.73713V1.8986ZM3.76627 1.91682H4.71523V1.9356H3.76627V1.91682ZM9.77414 1.91682H11.7461V1.9356H9.77433L9.77414 1.91682ZM3.74823 1.9356H4.67821V1.95457H3.74823V1.9356ZM9.79311 1.9356H11.7641V1.95457H9.7933L9.79311 1.9356ZM3.72945 1.95457H4.65943V1.9726H3.72945V1.95457ZM9.81153 1.95457H11.7645V1.9726H9.81153V1.95457ZM3.71047 1.9726H4.62241V1.99157H3.71047V1.9726ZM9.84835 1.9726H11.7833V1.99157H9.84835V1.9726ZM3.69243 1.99157H4.58522V2.00979H3.69243V1.99157ZM9.86733 1.99157H11.7833L11.7831 2.00979H9.86733V1.99157ZM3.67365 2.00979H4.54746V2.02857H3.67365V2.00979ZM9.8863 2.00979H11.8013V2.02857H9.8863V2.00979ZM3.63645 2.02857H4.51063V2.04754H3.63645V2.02857ZM9.90453 2.02857H11.8013V2.04754H9.90453V2.02857ZM3.61748 2.04754H4.47343V2.06557H3.61748V2.04754ZM9.92331 2.04754H11.8203V2.06557H9.92313L9.92331 2.04754ZM3.59943 2.06557H4.45446V2.08454H3.59943V2.06557ZM9.94135 2.06557H11.8203V2.08454H9.94135V2.06557ZM3.58046 2.08454H4.41745V2.10276H3.58046V2.08454ZM9.96032 2.08454H11.8393V2.10276H9.96032V2.08454ZM3.56242 2.10276H4.38043V2.12154H3.56242V2.10276ZM9.9793 2.10276H11.8393V2.12154H9.9793V2.10276ZM3.54345 2.12154H4.36146V2.14051H3.54345V2.12154ZM10.0161 2.12154H11.8575V2.14051H10.0161V2.12154ZM3.52448 2.14051H4.32463V2.15854H3.52485L3.52448 2.14051ZM10.0344 2.14051H11.8575V2.15854H10.0347L10.0344 2.14051ZM3.50644 2.15854H4.30622V2.17751H3.50644V2.15854ZM10.0533 2.15854H11.8761V2.17751H10.0533V2.15854ZM3.48765 2.17751H4.26846V2.19573H3.48765V2.17751ZM10.0723 2.17751H11.8761V2.19573H10.0719L10.0723 2.17751ZM3.45045 2.19573H4.23164V2.21451H3.45045V2.19573ZM10.0905 2.19573H11.8761V2.21451H10.0905V2.19573ZM3.43148 2.21451H4.21341V2.23348H3.43148V2.21451ZM10.1093 2.21451H11.8943V2.23348H10.1093V2.21451ZM3.41344 2.23348H4.17547V2.25151H3.41344V2.23348ZM10.1273 2.23348H11.8943V2.25151H10.1273V2.23348ZM3.39447 2.25151H4.15742V2.27048H3.39447V2.25151ZM10.1463 2.25151H11.9133V2.27048H10.1463V2.25151ZM3.37642 2.27048H4.12041V2.2887H3.37642V2.27048ZM10.1653 2.27048H11.9133V2.2887H10.1653V2.27048ZM3.35745 2.2887H4.08247V2.30748H3.35745V2.2887ZM3.33848 2.30748H4.06443V2.32645H3.33848V2.30748ZM10.1835 2.28889H11.9324V2.32663H10.1835V2.28889ZM3.32063 2.32663H4.02741V2.34467H3.32063V2.32663ZM10.2025 2.32663H11.9505V2.34467H10.2025V2.32663ZM3.30165 2.34467H4.00844V2.36364H3.30165V2.34467ZM10.2207 2.34467H11.9505V2.36364H10.2207V2.34467ZM3.28361 2.36364H3.97124V2.38186H3.28305L3.28361 2.36364ZM10.2395 2.36364H11.9693V2.38186H10.2393L10.2395 2.36364ZM3.26464 2.38186H3.95283V2.40064H3.26464V2.38186ZM10.2585 2.38186H11.9693L11.9691 2.40064H10.2579L10.2585 2.38186ZM3.24567 2.40064H3.9346V2.4196H3.24567V2.40064ZM10.2765 2.40064H11.9695V2.4196H10.2765V2.40064ZM3.22763 2.4196H3.89666V2.43764H3.22763V2.4196ZM3.20866 2.43764H3.87861V2.45661H3.20866V2.43764ZM10.2955 2.4196H11.9875V2.45661H10.2955V2.4196ZM3.19043 2.45661H3.85964V2.47483H3.19061L3.19043 2.45661ZM10.3135 2.45661H11.9875V2.47483H10.3135V2.45661ZM3.17146 2.47464H3.82244V2.49342H3.17146V2.47464ZM10.3323 2.47464H12.0063V2.49342H10.3323V2.47464ZM3.15248 2.49342H3.80347V2.51239H3.15248V2.49342ZM10.3513 2.49342H12.0063V2.51239H10.3513V2.49342ZM3.13444 2.51239H3.76646V2.53042H3.13444V2.51239ZM10.3693 2.51239H12.0063V2.53042H10.3695L10.3693 2.51239ZM3.11547 2.53042H3.74842V2.54939H3.11547V2.53042ZM10.3883 2.53042H12.0251V2.54939H10.3883V2.53042ZM3.09724 2.54939H3.72945V2.56761H3.09743L3.09724 2.54939ZM10.4063 2.54939H12.0251L12.0253 2.56761H10.4063V2.54939ZM3.07846 2.56761H3.69225V2.58639H3.07846V2.56761ZM10.4253 2.56761H12.0253V2.58639H10.4253V2.56761ZM3.05949 2.58639H3.67365V2.60536H3.05986L3.05949 2.58639ZM10.4253 2.58639H12.0435V2.60536H10.4253V2.58639ZM3.04126 2.60536H3.63645V2.62339H3.04126V2.60536ZM10.4443 2.60536H12.0435L12.0433 2.62339H10.4443V2.60536ZM3.02247 2.62339H3.61766V2.64236H3.02247V2.62339ZM10.4623 2.62339H12.0433V2.64236H10.4623V2.62339ZM3.00443 2.64236H3.59925V2.66058H3.00406L3.00443 2.64236ZM10.4623 2.64236H12.0623V2.66058H10.4623V2.64236ZM2.98546 2.66058H3.56242V2.67936H2.98546V2.66058ZM10.4811 2.66058H12.0623L12.0621 2.67936H10.4811V2.66058ZM2.96649 2.67936H3.54345V2.69833H2.96649V2.67936ZM10.4993 2.67936H12.0621L12.0623 2.69833H10.4993V2.67936ZM2.94845 2.69833H3.52448V2.71636H2.94845V2.69833ZM10.4993 2.69833H12.0803V2.71636H10.4993V2.69833ZM10.5183 2.71636H12.0803V2.73533H10.5183V2.71636ZM2.92966 2.71636H3.50625V2.73533H2.92966V2.71636ZM2.92966 2.73533H3.48765V2.75355H2.92966V2.73533ZM10.5373 2.73533H12.0803V2.75355H10.5373V2.73533ZM2.91143 2.75355H3.45045V2.77233H2.91143V2.75355ZM10.5373 2.75355H12.0993V2.77233H10.5373V2.75355ZM2.89246 2.77233H3.43148V2.7913H2.89246V2.77233ZM10.5555 2.77233H12.0993V2.7913H10.5555V2.77233ZM2.87349 2.7913H3.41344V2.80933H2.87349V2.7913ZM10.5743 2.7913H12.0993V2.80933H10.5741L10.5743 2.7913ZM2.85545 2.80933H3.39447V2.8283H2.85545V2.80933ZM10.5741 2.80933H12.1181V2.8283H10.5743L10.5741 2.80933ZM2.83648 2.8283H3.37642V2.84652H2.83648V2.8283ZM10.5925 2.8283H12.1181L12.1183 2.84652H10.5923L10.5925 2.8283ZM2.81844 2.84652H3.33848V2.8653H2.81844V2.84652ZM10.6113 2.84652H12.1183V2.8653H10.6113V2.84652ZM2.79946 2.8653H3.32025V2.88427H2.79946V2.8653ZM10.6113 2.8653H12.1365V2.88427H10.6113V2.8653ZM2.78049 2.88427H3.30165V2.9023H2.78086L2.78049 2.88427ZM10.6303 2.88427H12.1365L12.1363 2.9023H10.6303V2.88427ZM2.76245 2.9023H3.28324V2.92127H2.76245V2.9023ZM2.74348 2.92127H3.24567V2.93949H2.74348V2.92127ZM10.6483 2.9023H12.1363V2.93949H10.6483V2.9023ZM10.6673 2.93949H12.1553V2.95827H10.6673V2.93949ZM2.72525 2.93949H3.22744V2.95827H2.72525V2.93949ZM2.72525 2.95827H3.20866V2.97724H2.72562L2.72525 2.95827ZM2.70647 2.97724H3.19043V2.99527H2.70647V2.97724ZM10.6853 2.95827H12.1553V2.99546H10.6853V2.95827ZM2.68749 2.99546H3.17146V3.01405H2.68749V2.99546ZM2.66945 3.01405H3.13444V3.03246H2.66945V3.01405ZM10.7043 2.99546H12.1553L12.1551 3.03246H10.7043V2.99546ZM2.65067 3.03246H3.11566V3.05124H2.65067V3.03246ZM2.63244 3.05124H3.09743V3.07021H2.63244V3.05124ZM10.7233 3.03246H12.1733V3.07021H10.7233V3.03246ZM2.61347 3.07021H3.07846V3.08824H2.61347V3.07021ZM2.61347 3.08824H3.05949V3.10721H2.61347V3.08824ZM10.7415 3.07021H12.1733V3.10721H10.7415V3.07021ZM2.5945 3.10721H3.04145V3.12543H2.5945V3.10721ZM10.7603 3.10721H12.1733V3.12543H10.7603V3.10721ZM2.57645 3.12543H3.02247V3.14421H2.57645V3.12543ZM10.7603 3.12543H12.1923V3.14421H10.7601L10.7603 3.12543ZM2.55748 3.14421H3.00443V3.16318H2.55748V3.14421ZM2.53944 3.16318H2.98546V3.18121H2.53944V3.16318ZM10.7783 3.14421H12.1923V3.1814H10.7783V3.14421ZM2.52047 3.1814H2.96649V3.19999H2.52047V3.1814ZM10.7973 3.1814H12.1923V3.2184H10.7973V3.1814ZM2.5015 3.19999H2.94845V3.2184H2.5015V3.19999ZM2.5015 3.2184H2.92966V3.23718H2.50187L2.5015 3.2184ZM2.48346 3.23718H2.89246V3.25615H2.48327L2.48346 3.23718ZM10.8161 3.2184H12.2111V3.25615H10.8161V3.2184ZM2.46448 3.25615H2.87368V3.27418H2.46448V3.25615ZM2.44644 3.27418H2.85526V3.29315H2.44607L2.44644 3.27418ZM10.8343 3.25615H12.2111L12.2113 3.29315H10.8343V3.25615ZM2.42747 3.29296H2.83666V3.31119H2.42747V3.29296ZM10.8531 3.29296H12.2113V3.31119H10.8531V3.29296ZM10.8531 3.31119H12.2295V3.32997H10.8531V3.31119ZM2.4085 3.31119H2.81844V3.32997H2.4085V3.31119ZM2.4085 3.32997H2.79946V3.34893H2.4085V3.32997ZM2.39046 3.34893H2.78049V3.36697H2.39046V3.34893ZM10.8713 3.32997H12.2295V3.36715H10.8717L10.8713 3.32997ZM2.37149 3.36715H2.76245V3.38575H2.37149V3.36715ZM10.8903 3.36715H12.2295V3.40416H10.8903V3.36715ZM2.35344 3.38575H2.74348V3.40416H2.35344V3.38575ZM2.35344 3.40416H2.68749V3.42294H2.35344V3.40416ZM2.33447 3.42294H2.42747V3.4419H2.33447V3.42294ZM10.9093 3.40416H12.2481V3.45994H10.9089L10.9093 3.40416ZM10.9273 3.45994H12.2481L12.2483 3.49713H10.9273V3.45994ZM10.9463 3.49713H12.2483V3.51591H10.9463V3.49713ZM10.9463 3.51591H12.2663V3.55309H10.9463V3.51591ZM10.9643 3.55309H12.2663V3.60888H10.9643V3.55309ZM10.9833 3.60888H12.2663V3.66466H10.9833V3.60888ZM11.0023 3.66466H12.2663V3.72081H11.0023V3.66466ZM11.0203 3.72081H12.2853V3.77604H11.0205L11.0203 3.72081ZM11.0393 3.77604H12.2853V3.83182H11.0391L11.0393 3.77604ZM11.0573 3.83182H12.2853V3.88779H11.0573V3.83182ZM11.0763 3.88779H12.2853V3.90675H11.0763V3.88779ZM11.0763 3.90675H12.3043V3.94375H11.0763V3.90675ZM11.0953 3.94375H12.3043V4.01776H11.0953V3.94375ZM11.1133 4.01776H12.3043V4.11073H11.1133V4.01776ZM11.1323 4.11073H12.3043L12.3041 4.18566H11.1323V4.11073ZM11.1503 4.18566H12.3041L12.3043 4.27863H11.1503V4.18566ZM11.1693 4.27863H12.3043V4.35264H11.1693V4.27863ZM11.1883 4.35264H12.3043V4.44561H11.1883V4.35264ZM11.2063 4.44561H12.3043V4.59436H11.2063V4.44561ZM11.2253 4.59436H12.3043L12.3041 4.74348H11.2253V4.59436ZM11.2433 4.74348H12.3041L12.3043 4.79871H11.2433V4.74348ZM11.2433 4.79871H12.2853V4.91046H11.2433V4.79871ZM11.2623 4.91046H12.2853V5.00343H11.2623V4.91046ZM11.2623 5.00343H12.2663V5.22655H11.2623V5.00343ZM11.2623 5.22655H12.2481V5.35653H11.2623V5.22655ZM11.2623 5.35653H12.2295V5.4495H11.2623V5.35653ZM11.2623 5.4495H12.2113V5.56125H11.2623V5.4495ZM11.2623 5.56125H12.1923V5.67318H11.2623V5.56125ZM11.2623 5.67318H12.1733V5.76615H11.2623V5.67318ZM11.2433 5.76615H12.1733V5.78419H11.2433V5.76615ZM11.2433 5.78419H12.1553V5.89612H11.2433V5.78419ZM11.2433 5.89612H12.1365V5.97013H11.2437L11.2433 5.89612ZM11.2433 5.97013H12.1183V6.0261H11.2433V5.97013ZM11.2253 6.0261H12.0993V6.10029H11.2251L11.2253 6.0261ZM11.2251 6.10029H12.0803V6.17503H11.2253L11.2251 6.10029ZM11.2063 6.17503H12.0623V6.24904H11.2063V6.17503ZM11.2063 6.24904H12.0433V6.28623H11.2063V6.24904ZM11.1883 6.28623H12.0433V6.32397H11.1883V6.28623ZM11.1883 6.32397H12.0253V6.39798H11.1883V6.32397ZM11.1693 6.39816H12.0063V6.47235H11.1693V6.39816ZM11.1693 6.47235H11.9873V6.52813H11.1693V6.47235ZM11.1503 6.52813H11.9873V6.5471H11.1503V6.52813ZM11.1503 6.5471H11.9693V6.60288H11.1503V6.5471ZM11.1503 6.60288H11.9505V6.64007H11.1507L11.1503 6.60288ZM11.1323 6.64007H11.9505L11.9503 6.65829H11.1323V6.64007ZM11.1323 6.65829H11.9321V6.69604H11.1323V6.65829ZM11.1323 6.69604H11.9133V6.71408H11.1321L11.1323 6.69604ZM11.1133 6.71408H11.9133V6.75126H11.1135L11.1133 6.71408ZM11.1135 6.75126H11.8945V6.80704H11.1133L11.1135 6.75126ZM11.0953 6.80704H11.8761V6.86301H11.0949L11.0953 6.80704ZM11.0953 6.86301H11.8573V6.88198H11.0953V6.86301ZM11.0763 6.88198H11.8573L11.8575 6.91898H11.0763V6.88198ZM11.0763 6.91898H11.8393V6.95617H11.0763V6.91898ZM11.0573 6.95617H11.8393V6.97476H11.0573V6.95617ZM11.0573 6.97476H11.8203V7.03017H11.0573V6.97476ZM11.0393 7.03017H11.8013V7.08596H11.0393V7.03017ZM11.0393 7.08596H11.7833V7.10492H11.0393V7.08596ZM11.0203 7.10492H11.7833V7.14211H11.0203V7.10492ZM11.0203 7.14211H11.7643V7.17893H11.0203V7.14211ZM11.0023 7.17893H11.7643V7.19789H11.0023V7.17893ZM11.0023 7.19789H11.7463V7.23508H11.0023V7.19789ZM11.0023 7.23508H11.7273V7.25367H11.0023V7.23508ZM10.9833 7.25367H11.7273V7.29086H10.9833V7.25367ZM10.9833 7.29086H11.7083V7.30908H10.9833V7.29086ZM10.9643 7.30908H11.7083V7.32786H10.9643V7.30908ZM10.9643 7.32786H11.6903V7.36505H10.9643V7.32786ZM10.9463 7.36505H11.6713V7.42083H10.9463V7.36505ZM10.9273 7.42083H11.6533V7.45802H10.9273V7.42083ZM10.9273 7.45802H11.6343V7.47661H10.9275L10.9273 7.45802ZM10.9093 7.47661H11.6343V7.49502H10.9093V7.47661ZM10.9093 7.49502H11.6153V7.55081H10.9093V7.49502ZM10.8903 7.55081H11.5971V7.58799H10.8903V7.55081ZM10.8903 7.58799H11.5785V7.60677H10.8903V7.58799ZM10.8713 7.60677H11.5785V7.64396H10.8717L10.8713 7.60677ZM10.8713 7.64396H11.5603V7.66255H10.8713V7.64396ZM10.8533 7.66255H11.5603L11.5601 7.68096H10.8533V7.66255ZM10.8533 7.68096H11.5413V7.71871H10.8531L10.8533 7.68096ZM10.8343 7.71871H11.5225V7.77393H10.8343V7.71871ZM10.8163 7.77393H11.5041V7.81168H10.8159L10.8163 7.77393ZM10.8163 7.81168H11.4853V7.82972H10.8163V7.81168ZM10.7973 7.82972H11.4853L11.4855 7.84868H10.7973V7.82972ZM10.7973 7.84868H11.4673V7.8669H10.7973V7.84868ZM10.7783 7.8669H11.4673V7.88568H10.7783V7.8669ZM10.7783 7.88568H11.4483V7.92287H10.7783V7.88568ZM10.7603 7.92287H11.4293V7.95987H10.7603V7.92287ZM10.7413 7.95987H11.4113V7.99762H10.7413V7.95987ZM10.7413 7.99762H11.3923V8.01566H10.7413V7.99762ZM10.7233 8.01566H11.3923V8.03462H10.7233V8.01566ZM10.7233 8.03462H11.3743V8.05284H10.7233V8.03462ZM10.7043 8.05284H11.3743V8.07162H10.7043V8.05284ZM10.7043 8.07162H11.3553V8.09059H10.7043V8.07162ZM10.6853 8.09059H11.3553V8.10863H10.6853V8.09059ZM10.6853 8.10863H11.3363V8.14581H10.6853V8.10863ZM10.6673 8.14581H11.3183V8.18356H10.6673V8.14581ZM10.6483 8.18356H11.2993V8.22056H10.6483V8.18356ZM10.6483 8.22056H11.2813V8.23878H10.6483V8.22056ZM10.6303 8.23878H11.2813V8.25756H10.6303V8.23878ZM10.6303 8.25756H11.2623V8.27653H10.6303V8.25756ZM10.6113 8.27653H11.2623V8.29457H10.6113V8.27653ZM10.6113 8.29457H11.2433V8.33175H10.6113V8.29457ZM10.5923 8.33175H11.2253V8.35053H10.5923V8.33175ZM10.5923 8.35053H11.2065V8.3695H10.5927L10.5923 8.35053ZM10.5743 8.3695H11.2065L11.2063 8.38754H10.5743V8.3695ZM10.5743 8.38754H11.1881V8.4065H10.5743V8.38754ZM10.5553 8.4065H11.1881L11.1883 8.42472H10.5553V8.4065ZM10.5553 8.42472H11.1693V8.46247H10.5555L10.5553 8.42472ZM10.5373 8.46247H11.1503V8.49947H10.5373V8.46247ZM10.5183 8.49947H11.1321V8.53666H10.5183V8.49947ZM10.4993 8.53666H11.1135V8.55525H10.4997L10.4993 8.53666ZM10.4813 8.55525H11.0951V8.59244H10.4813V8.55525ZM10.4623 8.59244H11.0763V8.62963H10.4625L10.4623 8.59244ZM10.4443 8.62963H11.0573V8.64822H10.4443V8.62963ZM10.4443 8.64822H11.0391V8.66645H10.4439L10.4443 8.64822ZM10.4253 8.66663L11.0391 8.66645V8.6856H10.4253V8.66663ZM10.4253 8.6856H11.0205V8.70382H10.4253V8.6856ZM10.4063 8.70382H11.0205V8.7226H10.4067L10.4063 8.70382ZM10.4063 8.7226H11.0023V8.74156H10.4063V8.7226ZM10.3883 8.74156H10.9833V8.77857H10.3881L10.3883 8.74156ZM10.3693 8.77857H10.9645V8.81575H10.3693V8.77857ZM10.3513 8.81575H10.9461V8.83435H10.3509L10.3513 8.81575ZM10.3513 8.83435H10.9273V8.85257H10.3513V8.83435ZM10.3323 8.85257H10.9273L10.9275 8.87154H10.3323V8.85257ZM10.3323 8.87154H10.9093V8.88976H10.3323V8.87154ZM10.3133 8.88976H10.9093V8.90854H10.3133V8.88976ZM10.3133 8.90854H10.8903V8.92751H10.3133V8.90854ZM10.2953 8.92751H10.8713V8.96451H10.2953V8.92751ZM10.2763 8.96451H10.8533V9.00169H10.2763V8.96451ZM10.2583 9.00169H10.8343V9.02029H10.2583V9.00169ZM10.2583 9.02029H10.8163V9.03851H10.2583V9.02029ZM10.2393 9.03851H10.8163V9.05748H10.2393V9.03851ZM10.2393 9.05748H10.7973V9.0757H10.2393V9.05748ZM10.2203 9.0757H10.7973V9.09448H10.2203V9.0757ZM10.2023 9.09448H10.7783V9.11345H10.2023V9.09448ZM10.2023 9.11345H10.7603V9.13148H10.2023V9.11345ZM10.1833 9.13148H10.7413V9.16867H10.1833V9.13148ZM10.1653 9.16867H10.7233V9.18745H10.1653V9.16867ZM10.1463 9.18745H10.7043V9.22464H10.1463V9.18745ZM10.1273 9.22464H10.6853V9.24323H10.1273V9.22464ZM10.1273 9.24323H10.6673V9.26164H10.1273V9.24323ZM10.1093 9.26164H10.6673V9.28042H10.1093V9.26164ZM10.0903 9.28042H10.6483V9.29939H10.0903V9.28042ZM10.0903 9.29939H10.6303V9.31742H10.0903V9.29939ZM10.0723 9.31742H10.6303V9.33639H10.0723V9.31742ZM10.0723 9.33639H10.6113V9.35461H10.0723V9.33639ZM10.0533 9.35461H10.5923V9.39235H10.0533V9.35461ZM10.0344 9.39235H10.5743V9.41039H10.0344V9.39235ZM10.0163 9.41039H10.5553V9.44758H10.0163V9.41039ZM9.99734 9.44758H10.5373V9.46636H9.99734V9.44758ZM9.99734 9.46636H10.5183V9.48532H9.99752L9.99734 9.46636ZM9.9793 9.48532H10.4993V9.50336H9.9793V9.48532ZM9.96032 9.50336H10.4993V9.52233H9.96032V9.50336ZM9.96032 9.52233H10.4811V9.54055H9.96032V9.52233ZM9.94135 9.54055H10.4625V9.5783H9.94173L9.94135 9.54055ZM9.92331 9.5783H10.4441V9.59633H9.92331V9.5783ZM9.90434 9.59633H10.4253V9.6153H9.90453L9.90434 9.59633ZM9.90453 9.6153H10.4065V9.63352H9.90434L9.90453 9.6153ZM9.8863 9.63352H10.4065L10.4063 9.6523H9.8863V9.63352ZM9.86733 9.65211H10.3881V9.67108H9.86733V9.65211ZM9.86733 9.67108H10.3695V9.68912H9.86733V9.67108ZM9.84835 9.68912H10.3513V9.70808H9.84835V9.68912ZM9.83031 9.70808H10.3513L10.3511 9.7263H9.83031V9.70808ZM9.81134 9.7263H10.3323V9.74508H9.81153L9.81134 9.7263ZM9.81153 9.74508H10.3135V9.76405H9.81134L9.81153 9.74508ZM9.7933 9.76405H10.2951V9.78209H9.79293L9.7933 9.76405ZM9.77433 9.78209H10.2951V9.80105H9.77433V9.78209ZM9.77433 9.80105H10.2765V9.81927H9.77433V9.80105ZM9.75536 9.81927H10.2583V9.83805H9.75536V9.81927ZM9.73732 9.83805H10.2393V9.87524H9.73713L9.73732 9.83805ZM9.71834 9.87524H10.2205V9.89384H9.71834V9.87524ZM9.7003 9.89384H10.2021V9.91224H9.69993L9.7003 9.89384ZM9.7003 9.91224H10.1833V9.93102H9.7003V9.91224ZM9.68133 9.93102H10.1653V9.94999H9.68133V9.93102ZM9.66236 9.94999H10.1463V9.98699H9.66236V9.94999ZM9.64432 9.98699H10.1273V10.0052H9.64432V9.98699ZM9.62535 10.0052H10.1093V10.024H9.62535V10.0052ZM9.6073 10.024H10.0903V10.043H9.6073V10.024ZM9.6073 10.043H10.0723V10.061H9.6073V10.043ZM9.58833 10.061H10.0533V10.08H9.58833V10.061ZM9.56936 10.08H10.0533V10.0982H9.56936V10.08ZM9.55132 10.0982H10.0344V10.117H9.55132V10.0982ZM9.55132 10.117H10.0163V10.1359H9.55132V10.117ZM9.53235 10.1359H9.99734V10.154H9.53235V10.1359ZM9.51431 10.154H9.9793V10.1729H9.51431V10.154ZM9.49533 10.1729H9.96032V10.2101H9.49533V10.1729ZM9.47636 10.2101H9.94135V10.2287H9.47636V10.2101ZM9.45832 10.2287H9.92331V10.2469H9.45832V10.2287ZM9.43935 10.2469H9.90434V10.2659H9.43935V10.2469ZM9.43935 10.2659H9.8863V10.2841H9.43935V10.2659ZM9.42131 10.2841H9.86733V10.3029H9.42131V10.2841ZM9.40234 10.3029H9.86733V10.3219H9.40234V10.3029ZM9.38336 10.3219H9.84835V10.3399H9.38336V10.3219ZM9.36532 10.3399H9.83031V10.3589H9.36532V10.3399ZM9.36532 10.3589H9.81134V10.3771H9.36532V10.3589ZM9.34635 10.3771H9.7933V10.3959H9.34635V10.3771ZM9.32831 10.3959H9.77433V10.4148H9.32831V10.3959ZM9.30934 10.4148H9.75536V10.4329H9.30934V10.4148ZM9.29037 10.4329H9.73732V10.4518H9.29037V10.4329ZM9.27232 10.4518H9.71834V10.4701H9.27232V10.4518ZM9.25335 10.4701H9.7003V10.4888H9.25335V10.4701ZM9.25335 10.4888H9.68133V10.5078H9.25354L9.25335 10.4888ZM9.23531 10.5078H9.66236V10.5258H9.23531V10.5078ZM9.21634 10.5258H9.64413V10.5448H9.21634V10.5258ZM9.19737 10.5448H9.62553V10.563H9.19774L9.19737 10.5448ZM9.17933 10.563H9.60712V10.5818H9.17933V10.563ZM9.16035 10.5818H9.58833V10.619H9.16054L9.16035 10.5818ZM9.14231 10.619H9.56936V10.6376H9.14231V10.619ZM9.12334 10.6376H9.55113V10.656H9.12334V10.6376ZM9.10437 10.656H9.53253V10.6748H9.10474L9.10437 10.656ZM9.08633 10.6748H9.51412V10.6937H9.08633V10.6748ZM9.06736 10.6937H9.49533V10.7118H9.06754L9.06736 10.6937ZM9.04931 10.7118H9.47636V10.7308H9.04931V10.7118ZM9.04931 10.7308H9.45813V10.749H9.04894L9.04931 10.7308ZM9.03034 10.749H9.43954V10.7678H9.03034V10.749ZM9.01137 10.7678H9.42131V10.7867H9.01137V10.7678ZM8.99333 10.7867H9.40234V10.8048H8.99314L8.99333 10.7867ZM8.97436 10.8048H9.38355V10.8237H8.97436V10.8048ZM8.95632 10.8237H9.36514V10.8419H8.95594L8.95632 10.8237ZM8.93735 10.8419H9.34654V10.8607H8.93735V10.8419ZM8.91837 10.8607H9.32831V10.8797H8.91837V10.8607ZM8.90033 10.8797H9.30934V10.8977H8.90015L8.90033 10.8797ZM8.88136 10.8977H9.29055V10.9167H8.88136V10.8977ZM8.86332 10.9167H9.27214V10.9349H8.86295L8.86332 10.9167ZM8.84435 10.9349H9.25354V10.9537H8.84435V10.9349ZM8.82537 10.9537H9.23531V10.9727H8.82537V10.9537ZM8.80733 10.9727H9.21634V10.9907H8.80715L8.80733 10.9727ZM8.78836 10.9907H9.19755V11.0097H8.78836V10.9907ZM8.77032 11.0097H9.17914V11.0279H8.76995L8.77032 11.0097ZM8.75135 11.0279H9.16054V11.0467H8.75135V11.0279ZM8.73238 11.0467H9.14231V11.0656H8.73238V11.0467ZM8.71433 11.0656H9.12334V11.0837H8.71415L8.71433 11.0656ZM8.71415 11.0837H9.08633V11.1026H8.71433L8.71415 11.0837ZM8.69536 11.1026H9.06736V11.1209H8.69536V11.1026ZM8.67732 11.1209H9.04931V11.1396H8.67732V11.1209ZM8.65835 11.1396H9.03034V11.1586H8.65835V11.1396ZM8.63938 11.1586H9.01137V11.1766H8.63938V11.1586ZM8.62134 11.1766H8.99333V11.1956H8.62134V11.1766ZM8.60237 11.1956H8.97436V11.2138H8.60237V11.1956ZM8.58432 11.2138H8.95632V11.2326H8.58432V11.2138ZM8.54638 11.2326H8.91837V11.2516H8.54638V11.2326ZM8.52834 11.2516H8.90033V11.2696H8.52834V11.2516ZM8.50937 11.2696H8.88136V11.2886H8.50937V11.2696ZM8.49133 11.2886H8.86332V11.3068H8.49133V11.2886ZM8.47235 11.3068H8.84435V11.3256H8.47235V11.3068ZM8.45338 11.3256H8.82537V11.3445H8.45338V11.3256ZM8.43534 11.3445H8.80733V11.3626H8.43534V11.3445ZM8.41637 11.3626H8.78836V11.3815H8.41637V11.3626ZM8.39833 11.3815H8.75135V11.3998H8.39833V11.3815ZM8.37936 11.3998H8.73238V11.4185H8.37936V11.3998ZM8.34216 11.4185H8.71415V11.4375H8.34216V11.4185ZM8.32356 11.4375H8.69555V11.4555H8.32356V11.4375ZM8.30533 11.4555H8.67732V11.4745H8.30533V11.4555ZM8.28636 11.4745H8.65835V11.4927H8.28636V11.4745ZM8.26739 11.4927H8.63938V11.5115H8.26739V11.4927ZM8.24934 11.5115H8.60237V11.5305H8.24934V11.5115ZM8.23037 11.5305H8.58432V11.5485H8.23037V11.5305ZM8.21233 11.5485H8.56535V11.5675H8.21233V11.5485ZM8.19336 11.5675H8.52815V11.5857H8.19336V11.5675ZM8.17439 11.5857H8.50955V11.6045H8.17476L8.17439 11.5857ZM8.13737 11.6045H8.49133V11.6235H8.13737V11.6045ZM8.11933 11.6235H8.45338V11.6415H8.11933V11.6235ZM8.10036 11.6415H8.43515V11.6605H8.10036V11.6415ZM8.08139 11.6605H8.41655V11.6787H8.08176L8.08139 11.6605ZM8.06335 11.6787H8.37936V11.6975H8.06316L8.06335 11.6787ZM8.02615 11.6975H8.36038V11.7164H8.02633L8.02615 11.6975ZM8.00736 11.7164H8.34216V11.7345H8.00736V11.7164ZM7.98839 11.7345H8.30533V11.7534H7.98839V11.7345ZM7.95138 11.7534H8.28636V11.7716H7.95156L7.95138 11.7534ZM7.93334 11.7716H8.26739V11.7904H7.93334V11.7716ZM7.91436 11.7904H8.23056V11.8094H7.91436V11.7904ZM7.89539 11.8094H8.21233V11.8274H7.89539V11.8094ZM7.85838 11.8274H8.19336V11.8464H7.85857L7.85838 11.8274ZM7.84034 11.8464H8.15616V11.8646H7.83997L7.84034 11.8464ZM7.82137 11.8646H8.13756V11.8834H7.82137V11.8646ZM7.78417 11.8834H8.11933V11.9024H7.78417V11.8834ZM7.76557 11.9024H8.08139V11.9204H7.76557V11.9024ZM7.74734 11.9204H8.06316V11.9394H7.74697L7.74734 11.9204ZM7.72837 11.9394H8.04456V11.9576H7.72837V11.9394ZM7.69117 11.9576H8.00736V11.9764H7.69117V11.9576ZM7.67257 11.9764H7.98839V11.9953H7.67257V11.9764ZM7.65434 11.9953H7.95138V12.0134H7.65434V11.9953ZM7.6164 12.0134H7.93334V12.0323H7.6164V12.0134ZM7.59836 12.0323H7.89539V12.0506H7.59836V12.0323ZM7.57939 12.0506H7.85838V12.0693H7.57939V12.0506ZM7.54237 12.0693H7.84034V12.0883H7.54237V12.0693ZM7.5234 12.0883H7.80239V12.1063H7.5234V12.0883ZM7.48639 12.1063H7.78435V12.1253H7.48639V12.1063ZM7.46835 12.1253H7.74734V12.1435H7.46835V12.1253ZM7.4304 12.1435H7.7094V12.1623H7.4304V12.1435ZM7.41236 12.1623H7.69135V12.1813H7.41236V12.1623ZM7.37516 12.1813H7.65416V12.1993H7.37516V12.1813ZM7.35638 12.1993H7.63537V12.2183H7.35638V12.1993ZM7.31918 12.2183H7.59817V12.2365H7.31918V12.2183ZM7.28235 12.2365H7.56134V12.2553H7.28235V12.2365ZM7.26338 12.2553H7.54237V12.2742H7.26338V12.2553ZM7.22618 12.2742H7.50517V12.2923H7.22618V12.2742ZM7.20758 12.2923H7.48657V12.3112H7.20758V12.2923ZM7.17038 12.3112H7.44937V12.3295H7.17038V12.3112ZM7.15141 12.3295H7.4304V12.3482H7.15141V12.3295ZM7.11439 12.3482H7.39339V12.3672H7.11439V12.3482ZM7.09635 12.3672H7.35638V12.3852H7.09635V12.3672ZM7.05841 12.3852H7.31936V12.4042H7.05841V12.3852ZM7.0214 12.4042H7.28235V12.4224H7.0214V12.4042ZM7.00335 12.4224H7.24441V12.4412H7.00335V12.4224ZM6.96541 12.4412H7.20758V12.4602H6.96578L6.96541 12.4412ZM6.9284 12.4602H7.17038V12.4782H6.92858L6.9284 12.4602ZM6.89138 12.4782H7.13318V12.4972H6.89138V12.4782ZM6.85419 12.4972H7.09635V12.5154H6.85419V12.4972ZM6.83559 12.5154H7.05841V12.5342H6.83559V12.5154ZM6.79839 12.5342H7.04018V12.5532H6.79839V12.5342ZM6.76119 12.5532H7.00335V12.5712H6.76119V12.5532ZM6.72436 12.5712H6.96541V12.5902H6.72436V12.5712ZM6.68642 12.5902H6.92858V12.6084H6.68679L6.68642 12.5902ZM6.6494 12.6084H6.89138V12.6272H6.64959L6.6494 12.6084ZM6.63136 12.6272H6.85419V12.6461H6.63099L6.63136 12.6272ZM6.59342 12.6461H6.81736V12.6642H6.59342V12.6461ZM6.55641 12.6642H6.7796V12.6831H6.55641V12.6642ZM6.51939 12.6831H6.74259V12.7013H6.51939V12.6831ZM6.48219 12.7013H6.68642V12.7201H6.48238L6.48219 12.7013ZM6.44537 12.7201H6.6494V12.7391H6.44537V12.7201ZM6.38938 12.7391H6.59342V12.7571H6.38938V12.7391ZM6.35218 12.7571H6.55659V12.7761H6.35255L6.35218 12.7571ZM6.31442 12.7761H6.50042V12.7943H6.31442V12.7761ZM6.27741 12.7943H6.46341V12.8131H6.27741V12.7943ZM6.22161 12.8131H6.40761V12.8321H6.22161V12.8131ZM6.18441 12.8321H6.37041V12.8501H6.18441V12.8321ZM6.1474 12.8501H6.31442V12.8691H6.1474V12.8501ZM6.1102 12.8691H6.2776V12.8873H6.1102V12.8691ZM6.0544 12.8873H6.2404V12.9061H6.0544V12.8873ZM6.0172 12.9061H6.1846V12.925H6.0172V12.9061ZM5.98037 12.925H6.1474V12.9431H5.98037V12.925ZM5.92439 12.9431H6.09141V12.962H5.92439V12.9431ZM5.8684 12.962H6.03543V12.9803H5.8684V12.962ZM5.81261 12.9803H5.98037V12.999H5.81242L5.81261 12.9803ZM5.77541 12.999H5.9056V13.018H5.77541V12.999ZM5.71961 13.018H5.84943V13.036H5.71961V13.018ZM5.66344 13.036H5.79438V13.055H5.66344V13.036ZM5.60838 13.055H5.73839V13.0732H5.6082L5.60838 13.055ZM5.5524 13.0732H5.66344V13.092H5.5524V13.0732ZM5.49641 13.092H5.60838V13.111H5.49641V13.092ZM5.44061 13.111H5.53361V13.129H5.44061V13.111ZM5.42238 13.129H5.4594V13.148H5.4222L5.42238 13.129Z" fill="white"/>
</mask>
<g mask="url(#mask1_6728_1310)">
<mask id="mask2_6728_1310" style="mask-type:luminance" maskUnits="userSpaceOnUse" x="2" y="-1" width="11" height="15">
<path d="M10.7327 0.746484C8.52846 -0.916192 4.80778 0.287956 2.35059 3.42793C2.4566 3.42067 2.5881 3.41212 2.72258 3.40115C4.92738 1.18735 7.88975 0.49156 9.75622 1.89987C11.8719 3.49486 11.7769 7.18893 9.54344 10.15C8.39472 11.6733 6.90303 12.7032 5.43775 13.1295C7.15376 12.7286 8.96294 11.5273 10.344 9.69615C12.7991 6.4422 12.9727 2.43594 10.7327 0.746484Z" fill="white"/>
</mask>
<g mask="url(#mask2_6728_1310)">
<path d="M2.35034 -0.00390625L2.3429 13.1296L12.3041 13.1355L12.3106 0.00204383L2.35034 -0.00390625Z" fill="url(#paint0_linear_6728_1310)"/>
</g>
</g>
</g>
</mask>
<g mask="url(#mask0_6728_1310)">
<rect x="-4.49304" y="-7.52002" width="25.0662" height="34.4787" fill="white"/>
</g>
<defs>
<linearGradient id="paint0_linear_6728_1310" x1="2.5363" y1="7.0083" x2="12.4877" y2="7.01404" gradientUnits="userSpaceOnUse">
<stop stop-color="#B7C95E"/>
<stop offset="0.25" stop-color="#B7C95E"/>
<stop offset="0.313" stop-color="#B7C95E"/>
<stop offset="0.344" stop-color="#B7C95E"/>
<stop offset="0.352" stop-color="#B7C95E"/>
<stop offset="0.355" stop-color="#B9CA5D"/>
<stop offset="0.359" stop-color="#BBCA5B"/>
<stop offset="0.363" stop-color="#BDCA59"/>
<stop offset="0.367" stop-color="#BFCB58"/>
<stop offset="0.371" stop-color="#C2CB56"/>
<stop offset="0.375" stop-color="#C4CC53"/>
<stop offset="0.379" stop-color="#C6CC52"/>
<stop offset="0.383" stop-color="#C9CC50"/>
<stop offset="0.387" stop-color="#CBCD4E"/>
<stop offset="0.391" stop-color="#CECE4D"/>
<stop offset="0.395" stop-color="#D0CD4A"/>
<stop offset="0.398" stop-color="#D2CD48"/>
<stop offset="0.402" stop-color="#D4CD45"/>
<stop offset="0.406" stop-color="#D7CE43"/>
<stop offset="0.41" stop-color="#D9CD40"/>
<stop offset="0.414" stop-color="#DACD3E"/>
<stop offset="0.418" stop-color="#DDCD3B"/>
<stop offset="0.422" stop-color="#DFCD38"/>
<stop offset="0.426" stop-color="#E1CD35"/>
<stop offset="0.43" stop-color="#E3CD32"/>
<stop offset="0.434" stop-color="#E5CD2F"/>
<stop offset="0.438" stop-color="#E7CD2C"/>
<stop offset="0.441" stop-color="#E9CD29"/>
<stop offset="0.445" stop-color="#EBCD27"/>
<stop offset="0.449" stop-color="#EDCD24"/>
<stop offset="0.453" stop-color="#EFCD22"/>
<stop offset="0.457" stop-color="#F0CD20"/>
<stop offset="0.461" stop-color="#F2CC1E"/>
<stop offset="0.465" stop-color="#F2CC1D"/>
<stop offset="0.469" stop-color="#F3CC1D"/>
<stop offset="0.473" stop-color="#F3CC1C"/>
<stop offset="0.477" stop-color="#F3CB1C"/>
<stop offset="0.48" stop-color="#F3CB1B"/>
<stop offset="0.484" stop-color="#F3CB1B"/>
<stop offset="0.488" stop-color="#F3CA1B"/>
<stop offset="0.492" stop-color="#F3CA1A"/>
<stop offset="0.496" stop-color="#F4C91A"/>
<stop offset="0.5" stop-color="#F4C91A"/>
<stop offset="0.508" stop-color="#F4C91A"/>
<stop offset="0.512" stop-color="#F5C819"/>
<stop offset="0.516" stop-color="#F5C818"/>
<stop offset="0.52" stop-color="#F5C818"/>
<stop offset="0.523" stop-color="#F5C717"/>
<stop offset="0.527" stop-color="#F6C717"/>
<stop offset="0.531" stop-color="#F7C717"/>
<stop offset="0.535" stop-color="#F7C717"/>
<stop offset="0.539" stop-color="#F7C617"/>
<stop offset="0.543" stop-color="#F7C616"/>
<stop offset="0.547" stop-color="#F7C616"/>
<stop offset="0.563" stop-color="#F7C616"/>
<stop offset="0.578" stop-color="#F7C616"/>
<stop offset="0.582" stop-color="#F6C516"/>
<stop offset="0.586" stop-color="#F6C516"/>
<stop offset="0.594" stop-color="#F6C516"/>
<stop offset="0.598" stop-color="#F5C516"/>
<stop offset="0.602" stop-color="#F5C516"/>
<stop offset="0.609" stop-color="#F5C516"/>
<stop offset="0.625" stop-color="#F5C516"/>
<stop offset="0.641" stop-color="#F5C516"/>
<stop offset="0.648" stop-color="#F5C516"/>
<stop offset="0.652" stop-color="#F5C416"/>
<stop offset="0.656" stop-color="#F5C417"/>
<stop offset="0.66" stop-color="#F5C318"/>
<stop offset="0.664" stop-color="#F4C318"/>
<stop offset="0.668" stop-color="#F4C219"/>
<stop offset="0.672" stop-color="#F4C21A"/>
<stop offset="0.676" stop-color="#F4C21B"/>
<stop offset="0.68" stop-color="#F4C21C"/>
<stop offset="0.684" stop-color="#F4C21D"/>
<stop offset="0.688" stop-color="#F4C11E"/>
<stop offset="0.691" stop-color="#F4C11F"/>
<stop offset="0.695" stop-color="#F4C020"/>
<stop offset="0.699" stop-color="#F3C021"/>
<stop offset="0.703" stop-color="#F3BF22"/>
<stop offset="0.707" stop-color="#F3BF23"/>
<stop offset="0.711" stop-color="#F2BF25"/>
<stop offset="0.715" stop-color="#F2BE26"/>
<stop offset="0.719" stop-color="#F2BE27"/>
<stop offset="0.723" stop-color="#F2BD28"/>
<stop offset="0.727" stop-color="#F2BD29"/>
<stop offset="0.73" stop-color="#F2BD2B"/>
<stop offset="0.734" stop-color="#F2BC2C"/>
<stop offset="0.738" stop-color="#F2BC2E"/>
<stop offset="0.742" stop-color="#F2BC2F"/>
<stop offset="0.746" stop-color="#F3BC30"/>
<stop offset="0.75" stop-color="#F3BB32"/>
<stop offset="0.754" stop-color="#F3BB33"/>
<stop offset="0.758" stop-color="#F3BA35"/>
<stop offset="0.762" stop-color="#F3BA37"/>
<stop offset="0.766" stop-color="#F3B938"/>
<stop offset="0.77" stop-color="#F0AB47"/>
<stop offset="0.773" stop-color="#ED9D55"/>
<stop offset="0.777" stop-color="#EC8F5C"/>
<stop offset="0.781" stop-color="#EB8163"/>
<stop offset="0.785" stop-color="#EA736A"/>
<stop offset="0.789" stop-color="#E96571"/>
<stop offset="0.793" stop-color="#E95678"/>
<stop offset="0.797" stop-color="#E8467D"/>
<stop offset="0.801" stop-color="#E73485"/>
<stop offset="0.805" stop-color="#E5218A"/>
<stop offset="0.809" stop-color="#E51F8B"/>
<stop offset="0.813" stop-color="#E51E8B"/>
<stop offset="0.816" stop-color="#E4228A"/>
<stop offset="0.82" stop-color="#E42588"/>
<stop offset="0.824" stop-color="#E42987"/>
<stop offset="0.828" stop-color="#E32D85"/>
<stop offset="0.832" stop-color="#E33184"/>
<stop offset="0.836" stop-color="#E33682"/>
<stop offset="0.84" stop-color="#E43981"/>
<stop offset="0.844" stop-color="#E53D7F"/>
<stop offset="0.848" stop-color="#E5407E"/>
<stop offset="0.852" stop-color="#E5437D"/>
<stop offset="0.855" stop-color="#E5467B"/>
<stop offset="0.859" stop-color="#E4497A"/>
<stop offset="0.863" stop-color="#E44C79"/>
<stop offset="0.867" stop-color="#E44F77"/>
<stop offset="0.871" stop-color="#E45276"/>
<stop offset="0.875" stop-color="#E45574"/>
<stop offset="0.879" stop-color="#E35973"/>
<stop offset="0.883" stop-color="#E35C72"/>
<stop offset="0.887" stop-color="#E35F70"/>
<stop offset="0.891" stop-color="#E4626F"/>
<stop offset="0.895" stop-color="#E4656D"/>
<stop offset="0.898" stop-color="#E4686C"/>
<stop offset="0.902" stop-color="#E36A6A"/>
<stop offset="0.906" stop-color="#E36C69"/>
<stop offset="0.91" stop-color="#E36F67"/>
<stop offset="0.914" stop-color="#E37166"/>
<stop offset="0.918" stop-color="#E37465"/>
<stop offset="0.922" stop-color="#E27664"/>
<stop offset="0.926" stop-color="#E27962"/>
<stop offset="0.93" stop-color="#E27B61"/>
<stop offset="0.934" stop-color="#E27E60"/>
<stop offset="0.938" stop-color="#E3805F"/>
<stop offset="0.941" stop-color="#E3825D"/>
<stop offset="0.945" stop-color="#E2845B"/>
<stop offset="0.949" stop-color="#E2875A"/>
<stop offset="0.953" stop-color="#E28959"/>
<stop offset="0.957" stop-color="#E28C58"/>
<stop offset="0.961" stop-color="#E28E56"/>
<stop offset="0.965" stop-color="#E29055"/>
<stop offset="0.969" stop-color="#E29354"/>
<stop offset="0.973" stop-color="#E29552"/>
<stop offset="0.977" stop-color="#E29751"/>
<stop offset="0.98" stop-color="#E2994F"/>
<stop offset="0.984" stop-color="#E29C4E"/>
<stop offset="0.988" stop-color="#E29D4C"/>
<stop offset="0.992" stop-color="#E19F4A"/>
<stop offset="0.996" stop-color="#E1A249"/>
<stop offset="1" stop-color="#E2A448"/>
</linearGradient>
<clipPath id="clip0_6728_1310">
<rect width="13.086" height="20.8643" fill="white"/>
</clipPath>
</defs>
</svg>
