<svg width="28" height="28" viewBox="0 0 28 28" fill="none" xmlns="http://www.w3.org/2000/svg">
<g clip-path="url(#clip0_874_181)">
<mask id="mask0_874_181" style="mask-type:luminance" maskUnits="userSpaceOnUse" x="0" y="0" width="28" height="28">
<path d="M28 0H0V28H28V0Z" fill="white"/>
</mask>
<g mask="url(#mask0_874_181)">
<path fill-rule="evenodd" clip-rule="evenodd" d="M19.9511 0.844637C18.6378 -0.307647 16.5034 -0.276026 15.2244 0.90936C16.0628 1.11763 16.82 1.5335 17.4375 2.09967C18.1281 1.46665 18.9932 1.02162 19.9511 0.844637ZM25.3814 24.1425C24.1933 25.0644 22.8961 25.7719 21.4498 26.3365L22.2338 27.2661C22.8852 28.0399 23.9976 28.2199 24.8597 27.7196C25.7293 27.2176 26.1128 26.1678 25.7718 25.2233L25.3814 24.1425ZM2.59191 24.1286L2.19649 25.2234C1.8554 26.1678 2.239 27.2177 3.10862 27.7197C3.97068 28.2199 5.08303 28.0399 5.73447 27.2662L6.5241 26.3299C5.07767 25.7635 3.77948 25.0534 2.59191 24.1286ZM27.7041 16.7705C27.7041 14.8739 26.8754 13.0555 25.3075 11.5118C24.4415 10.6591 24.0817 9.57335 24.2672 8.37219L24.3878 7.59136H24.9355C26.0243 7.548 26.0235 5.99312 24.9355 5.95019H3.05555C1.96678 5.99356 1.9676 7.54843 3.05555 7.59136H3.60327L3.7239 8.37214C3.90946 9.57335 3.54977 10.659 2.6836 11.5118C-1.16687 15.2451 -0.200697 20.4974 4.43268 23.4297C9.48029 26.8827 18.5109 26.8828 23.5585 23.4296C26.2318 21.6776 27.7041 19.3126 27.7041 16.7705ZM17.7877 4.31512H23.9702C22.7068 1.77487 19.0501 1.77629 17.7877 4.31512ZM12.7669 0.909578C11.486 -0.277777 9.34855 -0.307154 8.03572 0.848416C8.99138 1.02927 9.85369 1.47732 10.5413 2.11224C11.1611 1.53996 11.9229 1.11943 12.7669 0.909578ZM10.905 4.31512H17.0874C15.824 1.77487 12.1672 1.77629 10.905 4.31512ZM7.08645 2.40039C5.73633 2.40039 4.56354 3.18182 3.99525 4.31512H10.1777C9.60935 3.18182 8.43652 2.40039 7.08645 2.40039Z" fill="black"/>
</g>
</g>
<defs>
<clipPath id="clip0_874_181">
<rect width="28" height="28" fill="white"/>
</clipPath>
</defs>
</svg>
