<svg width="28" height="28" viewBox="0 0 28 28" fill="none" xmlns="http://www.w3.org/2000/svg">
<g clip-path="url(#clip0_2906_78)">
<path d="M2.51626 28C3.85647 28 5.44421 27.0051 7.37243 24.9575C8.49555 23.7631 10.0988 23.0782 11.6737 23.0782H16.3263C17.9013 23.0782 19.5044 23.7631 20.6276 24.9575C22.5558 27.005 24.1435 28 25.4837 28C26.3665 28 27.0851 27.4937 27.5057 26.5749C27.8213 25.8867 28 24.9535 28 23.8031C28 19.0471 24.9228 9.89856 20.2124 9.89856C18.7897 9.89856 18.1256 10.352 17.5392 10.7517C17.0801 11.065 16.6328 11.3581 15.7785 11.5134C16.1492 10.9311 16.4609 10.2313 16.4609 9.48846C16.4609 7.7317 14.7371 6.17197 14.5415 6.00134C14.1883 5.6897 13.1797 4.55197 13.1797 3.69162C13.1797 2.83128 14.1882 1.74823 14.5416 1.43661C14.8804 1.13784 14.9141 0.619556 14.6153 0.279914C14.3173 -0.0621161 13.7998 -0.0942329 13.4601 0.203053C13.2631 0.375221 11.5391 1.93497 11.5391 3.69171C11.5391 5.44844 13.263 7.06287 13.4585 7.23353C13.8118 7.54514 14.8204 8.62822 14.8204 9.48857C14.8204 10.2143 14.1057 11.0934 13.6691 11.5393H12.3995C11.3805 11.3791 10.9335 11.0747 10.4609 10.7519C9.87448 10.3521 9.21043 9.8987 7.78765 9.8987C3.07721 9.89867 0 19.0472 0 23.8031C0 27.5906 1.76564 28 2.51626 28ZM20.5625 19.7423C20.1095 19.7423 19.7422 19.375 19.7422 18.922C19.7422 18.469 20.1095 18.1017 20.5625 18.1017C21.0155 18.1017 21.3828 18.469 21.3828 18.922C21.3828 19.3749 21.0155 19.7423 20.5625 19.7423ZM22.2031 16.4611C22.6562 16.4611 23.0234 16.8284 23.0234 17.2814C23.0234 17.7344 22.6562 18.1017 22.2031 18.1017C21.7501 18.1017 21.3828 17.7344 21.3828 17.2814C21.3828 16.8284 21.7502 16.4611 22.2031 16.4611ZM20.5625 14.8204C21.0155 14.8204 21.3828 15.1877 21.3828 15.6407C21.3828 16.0938 21.0155 16.461 20.5625 16.461C20.1095 16.461 19.7422 16.0938 19.7422 15.6408C19.7422 15.1878 20.1095 14.8205 20.5625 14.8205V14.8204ZM18.9219 16.4611C19.3749 16.4611 19.7422 16.8284 19.7422 17.2814C19.7422 17.7344 19.3749 18.1017 18.9219 18.1017C18.4688 18.1017 18.1016 17.7344 18.1016 17.2814C18.1016 16.8284 18.4689 16.4611 18.9219 16.4611ZM12.3594 16.4611H15.6406C16.094 16.4611 16.4609 16.828 16.4609 17.2814C16.4609 17.7348 16.094 18.1017 15.6406 18.1017H12.3594C11.906 18.1017 11.5391 17.7348 11.5391 17.2814C11.5391 16.828 11.906 16.4611 12.3594 16.4611ZM5.79688 16.4611H6.61719V15.6408C6.61719 15.1874 6.98409 14.8205 7.4375 14.8205C7.89091 14.8205 8.25781 15.1874 8.25781 15.6408V16.461H9.07813C9.53154 16.461 9.89844 16.8279 9.89844 17.2813C9.89844 17.7347 9.53154 18.1016 9.07813 18.1016H8.25781V18.9219C8.25781 19.3754 7.89091 19.7423 7.4375 19.7423C6.98409 19.7423 6.61719 19.3754 6.61719 18.922V18.1017H5.79688C5.34347 18.1017 4.97656 17.7348 4.97656 17.2814C4.97656 16.828 5.34347 16.4611 5.79688 16.4611V16.4611Z" fill="white"/>
</g>
<defs>
<clipPath id="clip0_2906_78">
<rect width="28" height="28" fill="white"/>
</clipPath>
</defs>
</svg>
