<svg width="28" height="28" viewBox="0 0 28 28" fill="none" xmlns="http://www.w3.org/2000/svg">
<g clip-path="url(#clip0_874_233)">
<path d="M23.0058 0.0273771C21.9438 1.03226 17.0288 5.63917 17.0288 5.63917L17.5105 6.13973L17.0619 6.57235C16.5755 6.27324 15.9305 6.24069 15.3979 6.74691C14.5364 7.56497 13.2301 8.40426 11.9624 8.8416C11.8808 8.74583 11.7996 8.64864 11.718 8.55287C13.1537 7.80605 15.7456 6.26239 15.8069 6.22512L15.8121 6.22276L15.7635 6.2053L15.6272 6.15435C15.5729 6.13831 15.5182 6.12274 15.4602 6.11472C15.2639 6.08878 15.0478 6.11095 14.8153 6.19493C13.541 6.65538 12.1417 7.25784 10.7565 7.60507C9.04777 6.63557 6.86061 9.21477 8.392 11.0528C9.8196 12.7658 11.3024 14.3208 12.4082 16.2428C11.7718 17.3043 10.289 17.8785 9.36197 18.6338C7.55459 20.1062 7.29653 22.5406 6.56339 24.5919C5.9581 26.2837 8.64393 27.0041 9.24356 25.3298C9.96632 23.3072 10.1201 21.3489 12.0591 20.0897C12.2761 19.9487 12.4922 19.8067 12.7045 19.6637C12.4229 20.7261 12.1955 21.7957 12.3554 22.9473C12.5498 24.3466 12.9574 25.7204 13.4301 27.0484C14.025 28.7251 16.7113 28.0024 16.1098 26.3101C15.7083 25.1835 15.3757 24.0309 15.1379 22.86C14.7511 20.9578 15.7763 19.032 16.0806 17.1166C16.5929 16.5207 16.8104 15.6673 16.3589 14.7751C15.6659 13.4065 14.778 12.2002 13.8273 11.0387C15.145 10.4589 16.3801 9.64503 17.3624 8.71186C17.8191 8.27877 17.8719 7.75604 17.695 7.31304L18.1852 6.84079L18.6668 7.34135L24.6443 1.73002C24.6443 1.73002 24.9396 -0.252859 23.0058 0.0273771Z" fill="#010002"/>
<path d="M8.68592 7.13047C8.82179 6.97337 8.92841 6.80117 9.00956 6.62143L9.20534 6.59501C9.21855 6.59359 9.23176 6.58982 9.24403 6.58321C9.3799 6.51433 9.48794 6.42894 9.57286 6.33034C10.2107 5.59059 9.54125 4.15025 9.50822 4.0809C9.48039 4.02193 9.40962 3.99645 9.34971 4.02382L8.64157 4.35359C8.58779 4.29509 8.5307 4.23848 8.4689 4.18517C8.37407 4.10355 8.27358 4.03372 8.16979 3.97192L8.83453 3.20151L8.54108 2.94769L7.80605 3.80114C7.01724 3.51996 6.10388 3.73037 5.52406 4.40218C4.76969 5.27639 4.86735 6.59501 5.74061 7.34749C6.61387 8.10092 7.93249 8.00326 8.68592 7.13047ZM9.15298 6.36053L9.10297 6.36761C9.18223 6.10247 9.20676 5.82695 9.1794 5.55568L9.60305 5.43774C9.60919 5.8128 9.50539 6.17229 9.15298 6.36053ZM9.33791 4.2932C9.40868 4.46587 9.53795 4.82207 9.58512 5.19807C9.57569 5.19854 9.56625 5.19949 9.55635 5.20232L9.14118 5.3179C9.08079 5.04333 8.96521 4.78008 8.79537 4.54513L9.33791 4.2932Z" fill="#010002"/>
<path d="M3.82046 15.7074C3.55438 15.7074 3.33972 15.9221 3.33972 16.1886V25.7176C3.33972 25.9832 3.55438 26.1993 3.82046 26.1993C4.08655 26.1993 4.30215 25.9837 4.30215 25.7176V16.1886C4.30215 15.9221 4.08655 15.7074 3.82046 15.7074Z" fill="#010002"/>
<path d="M5.72738 15.7074C5.46177 15.7074 5.24664 15.9221 5.24664 16.1886V25.7176C5.24664 25.9832 5.46225 26.1993 5.72738 26.1993C5.82787 26.1993 5.92129 26.1686 5.99771 26.1153C5.78588 25.6704 5.76654 25.1562 5.95242 24.6358C6.04442 24.3801 6.12745 24.1173 6.2086 23.8489V16.1886C6.20907 15.9221 5.99394 15.7074 5.72738 15.7074Z" fill="#010002"/>
<path d="M7.14743 16.1886V20.9295C7.39559 20.3351 7.70271 19.7675 8.10986 19.2495V16.1886C8.10986 15.9235 7.8952 15.7074 7.62912 15.7074C7.36209 15.7074 7.14743 15.9221 7.14743 16.1886Z" fill="#010002"/>
<path d="M4.07806 15.7074H5.30987C5.45187 15.7074 5.56699 15.5922 5.56699 15.4493C5.56699 15.3082 5.45187 15.1931 5.30987 15.1931H4.07806C3.93558 15.1931 3.82047 15.3082 3.82047 15.4493C3.82047 15.5922 3.93511 15.7074 4.07806 15.7074Z" fill="#010002"/>
<path d="M7.37154 15.1931H6.13926C5.99725 15.1931 5.88214 15.3082 5.88214 15.4493C5.88214 15.5922 5.99725 15.7074 6.13926 15.7074H7.37154C7.51355 15.7074 7.62913 15.5922 7.62913 15.4493C7.62913 15.3096 7.51355 15.1931 7.37154 15.1931Z" fill="#010002"/>
<path d="M23.3185 7.1913C23.3167 7.31774 23.2945 7.47059 23.2808 7.64656C23.2539 7.82065 23.2275 8.01833 23.1756 8.22921C23.1289 8.44104 23.0595 8.66513 22.9803 8.89913C22.9326 9.01378 22.8855 9.13172 22.8354 9.25202C22.7784 9.36902 22.7203 9.48791 22.6604 9.60916C22.5297 9.84505 22.3844 10.0828 22.2155 10.3102C22.0481 10.5376 21.8636 10.7594 21.6626 10.965C20.8662 11.7996 19.8628 12.3959 19.0853 12.7569C18.6956 12.939 18.3592 13.0649 18.1233 13.147C17.8856 13.2277 17.752 13.2626 17.752 13.2626L17.8275 13.5301C17.8275 13.5301 17.9738 13.4872 18.2134 13.3971C18.455 13.3055 18.7937 13.1664 19.1862 12.9682C19.9703 12.5752 20.9776 11.9355 21.7636 11.0599C21.9617 10.8443 22.1429 10.6131 22.3071 10.3758C22.4722 10.1399 22.6118 9.8927 22.7373 9.64926C22.7944 9.52424 22.8496 9.40158 22.9043 9.28175C22.951 9.15861 22.9954 9.03784 23.0388 8.92036C23.1133 8.68023 23.177 8.45283 23.2166 8.23723C23.2624 8.02399 23.2836 7.82442 23.3044 7.64892C23.3143 7.47201 23.3313 7.31821 23.3303 7.1913C23.328 6.93701 23.3275 6.79218 23.3275 6.79218C23.3275 6.79218 23.3256 6.93748 23.3185 7.1913Z" fill="#010002"/>
</g>
<defs>
<clipPath id="clip0_874_233">
<rect width="28" height="28" fill="white"/>
</clipPath>
</defs>
</svg>
