<svg width="28" height="28" viewBox="0 0 28 28" fill="none" xmlns="http://www.w3.org/2000/svg">
<g clip-path="url(#clip0_874_188)">
<path d="M27.8624 4.47053L24.1702 8.16273L22.4902 6.48273L26.1824 2.75256C26.2715 2.66272 26.3928 2.61218 26.5193 2.61218C26.6459 2.61218 26.7672 2.66272 26.8563 2.75256L27.8624 3.79663C27.9522 3.88574 28.0028 4.00704 28.0028 4.13358C28.0028 4.26012 27.9522 4.38142 27.8624 4.47053Z" fill="black"/>
<path d="M13.7627 0.237305V1.18646H13.2882C12.5019 1.18646 11.8644 1.82388 11.8644 2.61019H10.9153C10.9153 1.82388 10.2778 1.18646 9.49154 1.18646H9.01697V0.711881C9.01697 0.44978 9.22944 0.237305 9.49154 0.237305H13.7627Z" fill="black"/>
<path d="M7.17087 7.57427C7.05932 7.35411 6.92576 7.14581 6.77222 6.95258L1.49493 12.2251C1.68839 12.3797 1.89663 12.5148 2.11663 12.6285L7.17087 7.57427Z" fill="black"/>
<path d="M5.47184 5.88L0.417603 10.9295C0.531871 11.1506 0.666944 11.3604 0.820992 11.5559L6.09828 6.28339C5.9032 6.12872 5.69337 5.9936 5.47184 5.88Z" fill="black"/>
<path d="M4.48 5.52883C4.25533 5.4812 4.02628 5.45734 3.79661 5.45764C1.71883 5.50288 0.0452426 7.17647 2.82476e-06 9.25425C-0.000298835 9.48392 0.0235613 9.71297 0.0711893 9.93764L4.48 5.52883Z" fill="black"/>
<path d="M3.10846 12.9797C3.33474 13.0273 3.56536 13.0511 3.79659 13.0508C5.87438 13.0056 7.54797 11.332 7.59321 9.25424C7.59138 9.02312 7.56754 8.7927 7.52202 8.5661L3.10846 12.9797Z" fill="black"/>
<path d="M18.5085 0.711881V1.18646H18.0339C17.2476 1.18646 16.6102 1.82388 16.6102 2.61019H15.661C15.661 1.82388 15.0236 1.18646 14.2373 1.18646H13.7627V0.237305H18.0339C18.296 0.237305 18.5085 0.44978 18.5085 0.711881Z" fill="black"/>
<path d="M19.4576 2.6102V6.16003L17.5593 8.05833V2.6102C17.5593 2.3481 17.7718 2.13562 18.0339 2.13562H18.9831C19.2452 2.13562 19.4576 2.3481 19.4576 2.6102Z" fill="black"/>
<path d="M19.4576 16.2258V27.2881C19.4576 27.5502 19.2452 27.7627 18.9831 27.7627H18.0339C17.7718 27.7627 17.5593 27.5502 17.5593 27.2881V18.1241L19.4576 16.2258Z" fill="black"/>
<path d="M14.7118 2.6102V10.8916L12.8135 12.7899V2.6102C12.8135 2.3481 13.026 2.13562 13.2881 2.13562H14.2373C14.4994 2.13562 14.7118 2.3481 14.7118 2.6102Z" fill="black"/>
<path d="M14.7118 20.9716V27.2882C14.7118 27.5503 14.4994 27.7627 14.2373 27.7627H13.2881C13.026 27.7627 12.8135 27.5503 12.8135 27.2882V22.8699L14.7118 20.9716Z" fill="black"/>
<path d="M9.96612 2.6102V15.6231L8.06781 17.5214V2.6102C8.06781 2.3481 8.28029 2.13562 8.54239 2.13562H9.49154C9.75364 2.13562 9.96612 2.3481 9.96612 2.6102Z" fill="black"/>
<path d="M9.96611 25.7173V27.2881C9.96611 27.5502 9.75364 27.7627 9.49153 27.7627H8.54238C8.3801 27.7614 8.22974 27.6773 8.14374 27.5397L9.96611 25.7173Z" fill="black"/>
<path d="M23.9281 10.417L6.72474 27.6203C6.63563 27.7102 6.51433 27.7607 6.38779 27.7607C6.26125 27.7607 6.13995 27.7102 6.05084 27.6203L2.99457 24.5925C2.81057 24.4074 2.81057 24.1085 2.99457 23.9234L20.2359 6.72475C20.3805 6.57863 20.6028 6.54223 20.7864 6.63458L21.8305 7.15661L23.5058 8.83187L24.0278 9.86644C24.1178 10.0521 24.0775 10.2746 23.9281 10.417Z" fill="black"/>
<path d="M23.9281 10.417L6.72474 27.6203C6.63563 27.7102 6.51433 27.7607 6.38779 27.7607C6.26125 27.7607 6.13995 27.7102 6.05084 27.6203L2.99457 24.5925C2.81057 24.4074 2.81057 24.1085 2.99457 23.9234L20.2359 6.72475C20.3805 6.57863 20.6028 6.54223 20.7864 6.63458L21.8305 7.15661L23.5058 8.83187L24.0278 9.86644C24.1178 10.0521 24.0775 10.2746 23.9281 10.417Z" fill="black"/>
</g>
<defs>
<clipPath id="clip0_874_188">
<rect width="28" height="28" fill="white"/>
</clipPath>
</defs>
</svg>
