<svg width="28" height="28" viewBox="0 0 28 28" fill="none" xmlns="http://www.w3.org/2000/svg">
<path d="M10.3341 27.7763C10.101 27.7676 9.54724 27.7203 9.24758 27.6817C7.77377 27.496 6.34379 27.0597 4.97866 26.378C4.81042 26.2938 4.67023 26.222 4.66672 26.2184C4.66146 26.2132 5.224 24.9164 5.59901 24.0734C6.21061 22.6943 6.63645 21.8777 7.3164 20.7825C7.55123 20.4039 7.91573 19.9115 8.29776 19.4575C8.56587 19.1404 9.22654 18.4833 9.5525 18.2134C11.191 16.8482 13.18 15.9755 15.707 15.5146C17.7959 15.1326 20.2283 15.0345 23.0252 15.2185C23.2792 15.2343 23.4948 15.2535 23.5071 15.2605C23.5439 15.2833 23.4457 16.2033 23.3442 16.7974C22.8762 19.5417 21.7879 21.8654 20.0915 23.7406C19.0945 24.8446 17.9186 25.7419 16.564 26.434C15.183 27.1402 13.6111 27.5906 12.0252 27.736C11.5152 27.7816 10.8878 27.7974 10.3341 27.7763Z" fill="black"/>
<path d="M19.1488 12.8299C17.852 12.7861 16.3168 12.6073 15.2408 12.376C13.6637 12.0378 12.3967 11.5769 11.205 10.9092C9.60329 10.012 8.27844 8.72569 7.2007 7.02059C6.70652 6.239 6.21934 5.30495 5.7164 4.18165C5.53765 3.78384 4.68247 1.81937 4.67019 1.78082C4.65093 1.71423 5.97225 1.1184 6.63292 0.899349C7.8053 0.506805 8.89705 0.287752 10.0344 0.214149C12.2407 0.0722034 14.3699 0.480519 16.3274 1.41982C18.1183 2.27851 19.6728 3.56304 20.8714 5.17352C22.3434 7.14851 23.2477 9.62994 23.4965 12.3725C23.5123 12.553 23.5228 12.7037 23.5193 12.7072C23.5105 12.7177 22.6046 12.7808 22.1191 12.8071C21.7775 12.8246 19.5186 12.8421 19.1488 12.8299Z" fill="black"/>
</svg>
