<svg width="8" height="8" viewBox="0 0 8 8" fill="none" xmlns="http://www.w3.org/2000/svg">
<g clip-path="url(#clip0_5211_144)">
<path d="M2.52268 2.66642C2.5369 2.66479 2.55118 2.66368 2.56548 2.66307C2.91305 2.64488 3.03634 2.81657 3.26345 3.036C3.52194 3.28576 3.76169 3.57376 4.06139 3.77293C4.16946 3.84474 4.30179 3.8993 4.42413 3.94107C4.56504 3.9905 4.75033 3.99483 4.86461 4.09542C4.92729 4.15058 4.96408 4.24923 4.96587 4.33157C4.96806 4.42613 4.93255 4.51768 4.86716 4.58601C4.70562 4.75421 4.46739 4.6679 4.27192 4.61275C3.75976 4.46826 3.44256 4.16431 3.07838 3.80227L2.29441 4.58393C2.34071 4.63905 2.40865 4.69739 2.45804 4.75055C2.61915 4.92396 2.84706 5.11765 2.99594 5.29305C2.9976 5.31152 2.9993 5.33392 2.99938 5.35241C3.00154 5.86128 3.00087 6.37056 3.00052 6.87942C3.00044 7.00453 2.99629 7.0927 2.90617 7.18913C2.77276 7.33187 2.56442 7.3257 2.42727 7.19391C2.31397 7.08502 2.33173 6.90552 2.33215 6.76171L2.33298 6.02865C2.33309 5.89017 2.33815 5.71617 2.3268 5.58087C2.20113 5.44924 2.04162 5.30653 1.90859 5.17629C1.89573 5.35508 1.922 5.72618 1.89419 5.90323C1.88892 5.93678 1.66869 6.14768 1.62131 6.19507L1.18159 6.63482L0.890623 6.92562C0.781553 7.03461 0.667469 7.18407 0.505144 7.19032C0.411925 7.19449 0.321071 7.16027 0.253765 7.09564C0.186738 7.0312 0.158258 6.9585 0.156675 6.86675C0.153967 6.7098 0.245423 6.62484 0.348244 6.52327C0.411666 6.46061 0.476039 6.39552 0.539771 6.33188L1.22625 5.64585C1.19792 5.58674 1.09468 5.29771 1.06965 5.22193C1.0143 5.05423 0.870264 4.71601 0.843053 4.5593C0.811483 4.37777 0.854678 4.19119 0.962811 4.04201C1.00358 3.98546 1.11883 3.87468 1.17115 3.82228L1.54225 3.45111L1.96889 3.02458C2.15326 2.84009 2.25101 2.70829 2.52268 2.66642Z" fill="black"/>
<path d="M3.75232 1.47323C4.11805 1.44945 4.43439 1.72535 4.46053 2.09092C4.48668 2.45649 4.21282 2.7746 3.84743 2.80311C3.47869 2.83187 3.15702 2.55495 3.13063 2.18603C3.10425 1.81711 3.38324 1.49724 3.75232 1.47323Z" fill="black"/>
<path d="M5.45641 0.12829C5.8221 0.104765 6.1382 0.38085 6.16408 0.746377C6.18996 1.1119 5.91592 1.42978 5.55057 1.45801C5.18187 1.4865 4.86045 1.2094 4.83433 0.840527C4.80822 0.471656 5.08738 0.152032 5.45641 0.12829Z" fill="black"/>
<path d="M3.96582 3.26331C4.0975 3.25047 4.30526 3.17476 4.42353 3.11629C4.63941 3.00943 4.82914 2.85639 4.97926 2.668C5.10214 2.51296 5.22202 2.28428 5.33477 2.11493C5.40069 2.0159 5.43756 1.93654 5.52545 1.8472C5.59621 1.77515 5.68164 1.71918 5.77595 1.68307C5.90873 1.6328 6.05282 1.62017 6.19234 1.64655C6.30666 1.66868 6.70927 1.84643 6.83959 1.90249C7.2228 2.06735 7.61923 2.22614 8.00001 2.3947V3.70103C7.92329 3.83175 7.86821 3.95178 7.68627 3.96315C7.56515 3.97955 7.36837 3.85951 7.35095 3.7303C7.31295 3.44875 7.33859 3.11058 7.32913 2.82605C7.13009 2.74712 6.93041 2.66982 6.73012 2.59415C6.73328 2.604 6.73613 2.61396 6.73868 2.624C6.80008 2.86626 6.85719 3.21279 6.9075 3.46579L7.23909 5.13251L7.47619 6.32708C7.51391 6.51763 7.55712 6.70915 7.58763 6.9004C7.61638 7.08061 7.4922 7.24501 7.31867 7.28822C7.17631 7.32368 6.99124 7.23705 6.9333 7.09933C6.89566 7.00521 6.87563 6.89265 6.85325 6.79326L6.7497 6.33309L6.36663 4.62943C6.1782 4.79776 5.99855 4.97879 5.81414 5.15165C5.76455 5.19811 5.70998 5.24842 5.66726 5.30083C5.65885 5.42902 5.6645 5.62431 5.66453 5.75705L5.6643 6.57482C5.66451 6.7153 5.67813 6.92338 5.6497 7.05837C5.61612 7.21783 5.3961 7.33892 5.2387 7.28096C5.09275 7.22721 4.99631 7.11862 5.0022 6.9569C5.00058 6.80421 4.99989 6.6569 4.99984 6.50656L4.99986 5.68522L5.00007 5.121C5.00009 5.02255 4.99559 4.88306 5.00563 4.78976C5.02413 4.76654 5.04404 4.74694 5.0659 4.72697C5.27815 4.53296 5.48029 4.3238 5.69515 4.13311C5.68673 4.04467 5.64472 3.85865 5.62596 3.76438C5.5855 3.55468 5.54285 3.34541 5.49803 3.13661C5.26205 3.37592 5.10118 3.51704 4.80259 3.67648C4.48927 3.66106 4.18011 3.48764 3.96582 3.26331Z" fill="black"/>
</g>
<defs>
<clipPath id="clip0_5211_144">
<rect width="8" height="8" fill="white"/>
</clipPath>
</defs>
</svg>
