<svg width="28" height="28" viewBox="0 0 28 28" fill="none" xmlns="http://www.w3.org/2000/svg">
<g clip-path="url(#clip0_49_5586)">
<path d="M8.97214 25.009V15.9141C8.97214 15.6985 8.82902 15.5772 8.76389 15.5364C8.6157 15.4436 8.49059 15.3561 8.39732 15.2776C8.01266 14.9539 7.69268 14.5656 7.55065 13.9726C7.29916 12.923 7.85 11.8315 8.88448 11.5244C8.90022 11.5197 8.97214 11.4999 8.97214 11.3492V3.98483C8.97214 3.15571 9.34676 2.4129 9.93523 1.91543C9.9944 1.86522 10.0859 1.76779 9.84124 1.85527L1.17464 4.42856C0.308611 4.68567 -0.189402 5.60461 0.0677013 6.47064L6.05209 26.625C6.30928 27.491 7.22814 27.9891 8.09417 27.7321L9.52841 27.3062C10.0021 27.1402 9.63046 26.7785 9.68157 26.8345C9.24118 26.3528 8.97214 25.7119 8.97214 25.009ZM5.06158 6.7576C4.93204 7.18659 4.16959 8.34174 3.94931 8.40715C3.73373 8.4712 2.45418 7.919 2.11412 7.63267C1.94387 7.48946 1.8022 7.31749 1.73923 7.05505C1.62796 6.59051 1.88977 6.10172 2.3478 5.96575C2.81858 5.82598 3.24187 6.24692 3.30112 6.22937C3.36879 6.20929 3.50548 5.62198 3.956 5.48828C4.41403 5.35231 4.9001 5.619 5.06032 6.06888C5.15096 6.32327 5.12608 6.54383 5.06158 6.7576Z" fill="black"/>
<path d="M16.9318 1.27484C17.2261 1.27484 17.142 1.14466 17.11 1.08341C16.7538 0.402118 15.9511 0.0413416 15.1881 0.267958L12.1177 1.17967C12.1177 1.17967 11.8298 1.27484 12.1583 1.27484C13.4175 1.27484 16.9318 1.27484 16.9318 1.27484Z" fill="black"/>
<path d="M26.4569 3.39571H12.7256C11.8769 3.39571 11.1826 4.09004 11.1826 4.93869V24.3019C11.1826 25.1505 11.8769 25.8448 12.7256 25.8448H26.4569C27.3055 25.8448 27.9998 25.1505 27.9998 24.1475V4.93869C27.9998 4.24446 27.3055 3.39571 26.4569 3.39571ZM15.603 6.53216C15.3717 6.88379 14.3762 7.72006 14.1605 7.72006C13.9491 7.72006 12.9446 6.88081 12.7148 6.53216C12.5999 6.35756 12.5183 6.16496 12.5319 5.91174C12.5559 5.46367 12.9223 5.09357 13.371 5.09357C13.8324 5.09357 14.1009 5.58579 14.159 5.58579C14.2252 5.58579 14.5054 5.09357 14.9469 5.09357C15.3959 5.09357 15.7622 5.46367 15.7861 5.91174C15.7997 6.16496 15.7183 6.35683 15.603 6.53216ZM22.8537 14.942C22.3313 15.7366 20.0822 17.6259 19.5946 17.6259C19.1174 17.6259 16.8478 15.7297 16.3288 14.942C16.0689 14.5477 15.8846 14.1125 15.9151 13.5405C15.9693 12.5282 16.7972 11.6919 17.811 11.6919C18.8534 11.6919 19.4603 12.804 19.5914 12.804C19.741 12.804 20.374 11.6919 21.3716 11.6919C22.3856 11.6919 23.2134 12.5282 23.2675 13.5405C23.2979 14.1124 23.1142 14.546 22.8537 14.942ZM26.6508 23.3692C26.6272 23.8112 26.2658 24.1763 25.8232 24.1763C25.3683 24.1763 25.1033 23.6907 25.046 23.6907C24.9806 23.6907 24.7044 24.1763 24.2689 24.1763C23.8262 24.1763 23.4649 23.8112 23.4412 23.3692C23.4279 23.1196 23.5082 22.9304 23.6218 22.7574C23.8499 22.4106 24.8317 21.5858 25.0447 21.5858C25.253 21.5858 26.2437 22.4135 26.4703 22.7574C26.5837 22.9297 26.6642 23.1196 26.6508 23.3692Z" fill="black"/>
</g>
<defs>
<clipPath id="clip0_49_5586">
<rect width="28" height="28" fill="white"/>
</clipPath>
</defs>
</svg>
