<svg width="28" height="29" viewBox="0 0 28 29" fill="none" xmlns="http://www.w3.org/2000/svg">
<path fill-rule="evenodd" clip-rule="evenodd" d="M17.5366 11.4862C17.826 11.7825 17.8203 12.2574 17.524 12.5468L13.4278 16.5468C13.2841 16.6871 13.0901 16.764 12.8892 16.76C12.6883 16.7561 12.4974 16.6718 12.3593 16.5259L10.4555 14.5158C10.1706 14.215 10.1835 13.7403 10.4842 13.4555C10.785 13.1707 11.2597 13.1835 11.5445 13.4843L12.9247 14.9415L16.476 11.4736C16.7723 11.1842 17.2472 11.1898 17.5366 11.4862Z" fill="black"/>
<path fill-rule="evenodd" clip-rule="evenodd" d="M26.5 7.57907V13.7295C26.4147 17.1794 25.2242 20.5111 23.1033 23.2359C20.9824 25.9608 18.0427 27.9352 14.7155 28.8697C14.2469 28.9958 13.7531 28.9958 13.2845 28.8697C9.95705 27.9352 7.01717 25.9605 4.89625 23.2354C2.77533 20.5103 1.58502 17.1782 1.5 13.7281V7.57907C1.53071 6.96814 1.72705 6.37702 2.06803 5.86882C2.40901 5.36062 2.88184 4.95444 3.43603 4.69363L11.2503 1.50004C13.0087 0.785631 14.9772 0.785631 16.7357 1.50004L24.5499 4.69363C25.1078 4.9511 25.5844 5.3561 25.9282 5.86473C26.2719 6.37336 26.4697 6.96622 26.5 7.57907ZM19.13 17.0905C19.7009 16.1611 20.0021 15.0912 20 14.0003C20 12.409 19.3678 10.8828 18.2426 9.75748C17.1174 8.6322 15.5913 8.00002 14 8.00002C12.4087 8.00002 10.8826 8.6322 9.75737 9.75748C8.63215 10.8828 8.00001 12.409 8.00001 14.0003C7.99787 15.0912 8.29909 16.1611 8.87001 17.0905C9.40057 17.9777 10.1521 18.7121 11.0512 19.222C11.9504 19.732 12.9663 20 14 20C15.0337 20 16.0496 19.732 16.9488 19.222C17.8479 18.7121 18.5994 17.9777 19.13 17.0905ZM17.524 12.5468C17.8203 12.2574 17.826 11.7825 17.5366 11.4862C17.2472 11.1898 16.7723 11.1842 16.476 11.4736L12.9247 14.9415L11.5445 13.4843C11.2597 13.1835 10.785 13.1707 10.4842 13.4555C10.1835 13.7403 10.1706 14.215 10.4555 14.5158L12.3593 16.5259C12.4974 16.6718 12.6883 16.7561 12.8892 16.76C13.0901 16.764 13.2841 16.6871 13.4278 16.5468L17.524 12.5468Z" fill="black"/>
</svg>
