<?xml version="1.0" encoding="UTF-8" ?>
<!DOCTYPE svg PUBLIC "-//W3C//DTD SVG 1.1//EN" "http://www.w3.org/Graphics/SVG/1.1/DTD/svg11.dtd">
<svg width="225pt" height="225pt" viewBox="0 0 225 225" version="1.1" xmlns="http://www.w3.org/2000/svg">
<g id="#ffffffff">
<path fill="#ffffff" opacity="1.00" d=" M 54.28 49.28 C 92.85 49.29 131.42 49.28 169.99 49.28 C 169.92 58.73 170.10 68.17 169.89 77.62 C 155.78 77.46 141.66 77.63 127.55 77.53 C 127.71 83.72 127.44 89.93 127.73 96.12 C 119.46 101.40 112.78 109.07 108.93 118.11 C 104.91 118.15 100.90 118.14 96.88 118.13 C 96.93 111.29 96.81 104.46 96.98 97.63 C 82.25 98.52 67.37 99.82 53.17 104.05 C 49.92 105.23 46.26 106.35 44.11 109.25 C 43.17 111.02 44.48 112.88 45.92 113.89 C 49.36 116.40 53.56 117.54 57.61 118.68 C 73.75 122.68 90.47 123.93 107.07 123.67 C 104.94 132.47 105.21 141.94 108.43 150.45 C 111.96 160.08 118.94 168.26 127.57 173.74 C 127.62 178.13 127.60 182.52 127.60 186.90 C 117.36 186.95 107.13 186.92 96.89 186.92 C 96.89 167.29 96.91 147.66 96.88 128.02 C 88.84 128.14 80.85 127.13 72.88 126.23 C 63.27 124.83 53.54 123.24 44.56 119.39 C 41.61 117.94 38.19 116.25 36.97 112.97 C 36.15 110.44 38.14 108.26 40.03 106.90 C 43.76 104.32 48.12 102.83 52.43 101.51 C 66.90 97.49 81.96 96.30 96.89 95.56 C 96.93 89.57 96.80 83.58 97.00 77.59 C 82.76 77.50 68.53 77.59 54.30 77.55 C 54.26 68.12 54.30 58.70 54.28 49.28 Z" />
<path fill="#ffffff" opacity="1.00" d=" M 153.62 103.79 C 160.12 109.80 166.16 116.30 172.53 122.45 C 170.26 124.82 167.96 127.16 165.52 129.36 C 161.54 125.42 157.77 121.26 153.54 117.59 C 149.79 121.64 145.77 125.44 141.90 129.38 C 139.56 127.09 137.25 124.78 134.95 122.45 C 141.23 116.28 147.47 110.08 153.62 103.79 Z" />
<path fill="#ffffff" opacity="1.00" d=" M 153.29 127.82 C 155.87 130.07 158.22 132.56 160.63 135.00 C 158.34 137.33 156.03 139.64 153.70 141.94 C 151.44 139.61 149.14 137.32 146.85 135.02 C 149.04 132.66 151.19 130.26 153.29 127.82 Z" />
<path fill="#ffffff" opacity="1.00" d=" M 177.49 128.07 C 179.78 130.39 182.08 132.69 184.38 135.00 C 182.08 137.31 179.77 139.62 177.48 141.93 C 175.20 139.60 172.91 137.30 170.62 134.99 C 172.92 132.69 175.21 130.39 177.49 128.07 Z" />
<path fill="#ffffff" opacity="1.00" d=" M 123.05 135.00 C 125.37 132.68 127.68 130.36 129.99 128.05 C 132.30 130.38 134.62 132.69 136.95 135.00 C 134.62 137.31 132.30 139.62 129.99 141.95 C 127.68 139.64 125.36 137.32 123.05 135.00 Z" />
<path fill="#ffffff" opacity="1.00" d=" M 134.94 146.89 C 137.25 144.56 139.57 142.23 141.92 139.93 C 145.81 143.94 149.83 147.82 153.70 151.84 C 157.73 147.93 161.70 143.95 165.62 139.93 C 167.91 142.25 170.21 144.56 172.50 146.88 C 166.25 153.17 159.95 159.42 153.69 165.71 C 147.49 159.40 141.21 153.15 134.94 146.89 Z" />
</g>
<g id="#0db46eff">
<path fill="#0db46e" opacity="1.00" d=" M 111.28 0.00 L 113.70 0.00 C 137.80 0.42 161.74 8.47 180.85 23.23 C 204.95 41.54 221.11 69.96 224.20 100.10 C 224.54 103.85 224.84 107.61 225.00 111.38 L 225.00 113.69 C 224.61 142.98 212.55 172.03 191.49 192.47 C 171.12 212.93 142.55 224.57 113.75 225.00 L 111.31 225.00 C 87.71 224.59 64.26 216.92 45.37 202.70 C 20.87 184.62 4.34 156.18 0.89 125.93 C 0.53 122.18 0.22 118.44 0.00 114.69 L 0.00 111.28 C 0.17 107.19 0.50 103.11 0.91 99.03 C 4.37 68.54 21.15 39.89 45.98 21.86 C 64.75 7.94 87.95 0.43 111.28 0.00 M 54.28 49.28 C 54.30 58.70 54.26 68.12 54.30 77.55 C 68.53 77.59 82.76 77.50 97.00 77.59 C 96.80 83.58 96.93 89.57 96.89 95.56 C 81.96 96.30 66.90 97.49 52.43 101.51 C 48.12 102.83 43.76 104.32 40.03 106.90 C 38.14 108.26 36.15 110.44 36.97 112.97 C 38.19 116.25 41.61 117.94 44.56 119.39 C 53.54 123.24 63.27 124.83 72.88 126.23 C 80.85 127.13 88.84 128.14 96.88 128.02 C 96.91 147.66 96.89 167.29 96.89 186.92 C 107.13 186.92 117.36 186.95 127.60 186.90 C 127.60 182.52 127.62 178.13 127.57 173.74 C 143.48 184.08 165.44 183.68 181.17 173.17 C 190.89 166.76 198.19 156.63 200.72 145.22 C 203.72 133.23 201.11 120.08 194.18 109.89 C 185.90 97.65 171.75 89.64 157.00 88.83 C 146.80 88.14 136.39 90.70 127.73 96.12 C 127.44 89.93 127.71 83.72 127.55 77.53 C 141.66 77.63 155.78 77.46 169.89 77.62 C 170.10 68.17 169.92 58.73 169.99 49.28 C 131.42 49.28 92.85 49.29 54.28 49.28 Z" />
<path fill="#0db46e" opacity="1.00" d=" M 53.17 104.05 C 67.37 99.82 82.25 98.52 96.98 97.63 C 96.81 104.46 96.93 111.29 96.88 118.13 C 100.90 118.14 104.91 118.15 108.93 118.11 C 108.18 119.92 107.56 121.78 107.07 123.67 C 90.47 123.93 73.75 122.68 57.61 118.68 C 53.56 117.54 49.36 116.40 45.92 113.89 C 44.48 112.88 43.17 111.02 44.11 109.25 C 46.26 106.35 49.92 105.23 53.17 104.05 Z" />
</g>
<g id="#f3ba2fff">
<path fill="#f3ba2f" opacity="1.00" d=" M 127.73 96.12 C 136.39 90.70 146.80 88.14 157.00 88.83 C 171.75 89.64 185.90 97.65 194.18 109.89 C 201.11 120.08 203.72 133.23 200.72 145.22 C 198.19 156.63 190.89 166.76 181.17 173.17 C 165.44 183.68 143.48 184.08 127.57 173.74 C 118.94 168.26 111.96 160.08 108.43 150.45 C 105.21 141.94 104.94 132.47 107.07 123.67 C 107.56 121.78 108.18 119.92 108.93 118.11 C 112.78 109.07 119.46 101.40 127.73 96.12 M 153.62 103.79 C 147.47 110.08 141.23 116.28 134.95 122.45 C 137.25 124.78 139.56 127.09 141.90 129.38 C 145.77 125.44 149.79 121.64 153.54 117.59 C 157.77 121.26 161.54 125.42 165.52 129.36 C 167.96 127.16 170.26 124.82 172.53 122.45 C 166.16 116.30 160.12 109.80 153.62 103.79 M 153.29 127.82 C 151.19 130.26 149.04 132.66 146.85 135.02 C 149.14 137.32 151.44 139.61 153.70 141.94 C 156.03 139.64 158.34 137.33 160.63 135.00 C 158.22 132.56 155.87 130.07 153.29 127.82 M 177.49 128.07 C 175.21 130.39 172.92 132.69 170.62 134.99 C 172.91 137.30 175.20 139.60 177.48 141.93 C 179.77 139.62 182.08 137.31 184.38 135.00 C 182.08 132.69 179.78 130.39 177.49 128.07 M 123.05 135.00 C 125.36 137.32 127.68 139.64 129.99 141.95 C 132.30 139.62 134.62 137.31 136.95 135.00 C 134.62 132.69 132.30 130.38 129.99 128.05 C 127.68 130.36 125.37 132.68 123.05 135.00 M 134.94 146.89 C 141.21 153.15 147.49 159.40 153.69 165.71 C 159.95 159.42 166.25 153.17 172.50 146.88 C 170.21 144.56 167.91 142.25 165.62 139.93 C 161.70 143.95 157.73 147.93 153.70 151.84 C 149.83 147.82 145.81 143.94 141.92 139.93 C 139.57 142.23 137.25 144.56 134.94 146.89 Z" />
</g>
</svg>
