<?xml version="1.0" encoding="UTF-8" ?>
<!DOCTYPE svg PUBLIC "-//W3C//DTD SVG 1.1//EN" "http://www.w3.org/Graphics/SVG/1.1/DTD/svg11.dtd">
<svg width="100pt" height="100pt" viewBox="0 0 100 100" version="1.1" xmlns="http://www.w3.org/2000/svg">
<g id="#ff832eff">
<path fill="#ff832e" opacity="1.00" d=" M 47.54 0.00 L 53.43 0.00 C 67.45 1.31 81.04 8.11 89.59 19.44 C 95.33 26.66 98.61 35.54 100.00 44.60 L 100.00 56.41 C 97.72 70.05 90.46 83.01 78.95 90.93 C 72.32 95.78 64.39 98.42 56.41 100.00 L 42.65 100.00 C 34.41 97.88 26.13 95.04 19.44 89.60 C 8.12 81.04 1.33 67.44 0.00 53.43 L 0.00 46.58 C 1.20 35.93 5.11 25.43 12.30 17.36 C 21.06 7.06 34.13 0.96 47.54 0.00 M 49.28 16.60 C 46.36 17.52 43.59 19.51 42.37 22.39 C 40.42 26.11 43.30 30.55 46.64 32.32 C 50.57 34.54 55.65 32.31 57.51 28.41 C 60.74 23.08 54.78 16.41 49.28 16.60 M 43.34 39.23 C 43.33 54.02 43.25 68.82 43.38 83.61 C 47.82 83.73 52.26 83.73 56.70 83.63 C 57.20 78.77 57.01 73.88 57.01 69.00 C 56.85 59.07 57.33 49.12 56.79 39.20 C 52.31 38.74 47.81 38.73 43.34 39.23 Z" />
</g>
<g id="#ffffffff">
<path fill="#ffffff" opacity="1.00" d=" M 49.28 16.60 C 54.78 16.41 60.74 23.08 57.51 28.41 C 55.65 32.31 50.57 34.54 46.64 32.32 C 43.30 30.55 40.42 26.11 42.37 22.39 C 43.59 19.51 46.36 17.52 49.28 16.60 Z" />
<path fill="#ffffff" opacity="1.00" d=" M 43.34 39.23 C 47.81 38.73 52.31 38.74 56.79 39.20 C 57.33 49.12 56.85 59.07 57.01 69.00 C 57.01 73.88 57.20 78.77 56.70 83.63 C 52.26 83.73 47.82 83.73 43.38 83.61 C 43.25 68.82 43.33 54.02 43.34 39.23 Z" />
</g>
</svg>
