<?xml version="1.0" encoding="UTF-8" ?>
<!DOCTYPE svg PUBLIC "-//W3C//DTD SVG 1.1//EN" "http://www.w3.org/Graphics/SVG/1.1/DTD/svg11.dtd">
<svg width="812pt" height="699pt" viewBox="0 0 812 699" version="1.1" xmlns="http://www.w3.org/2000/svg">
<g id="#ffffffff">
<path fill="#ffffff" opacity="1.00" d=" M 191.77 173.25 C 293.71 173.22 395.66 173.20 497.61 173.26 C 497.69 183.14 497.47 193.02 497.75 202.90 C 482.65 215.77 469.33 230.79 458.85 247.67 C 433.18 247.50 407.50 247.50 381.84 247.66 C 381.83 263.68 381.60 279.69 381.96 295.70 C 400.28 296.69 418.59 297.99 436.84 300.03 C 436.07 303.08 435.16 306.09 434.57 309.18 C 434.69 307.68 434.78 306.18 434.83 304.68 C 417.24 302.46 399.53 300.96 381.80 300.55 C 381.75 318.95 381.82 337.35 381.78 355.75 C 357.06 355.83 332.35 355.87 307.63 355.75 C 307.32 337.34 307.63 318.92 307.47 300.50 C 286.73 301.32 266.02 303.12 245.44 305.88 C 227.04 308.51 208.50 311.49 191.03 318.07 C 185.16 320.44 179.09 323.01 174.63 327.65 C 171.65 330.51 171.40 335.70 174.28 338.72 C 178.54 343.57 184.72 346.02 190.56 348.41 C 205.34 353.93 220.89 356.99 236.41 359.59 C 258.12 362.96 280.04 365.09 302.00 365.87 C 312.96 367.06 324.02 366.16 335.00 367.09 C 341.99 367.36 349.00 367.34 356.00 367.11 C 367.63 366.11 379.34 367.08 390.95 365.74 C 404.80 365.46 418.59 364.11 432.35 362.55 C 432.85 367.84 433.47 373.14 434.72 378.32 C 424.91 379.07 415.16 380.44 405.33 380.81 C 397.62 381.80 389.81 381.26 382.10 382.24 C 381.53 389.48 381.86 396.75 381.79 404.00 C 381.77 448.59 381.81 493.17 381.77 537.75 C 357.05 537.89 332.34 537.84 307.62 537.78 C 307.35 485.93 307.60 434.08 307.49 382.24 C 300.54 381.23 293.48 381.81 286.51 380.90 C 255.76 378.85 225.01 374.85 195.14 367.06 C 182.33 363.49 169.24 359.54 158.33 351.67 C 154.03 348.54 149.97 343.78 150.34 338.15 C 151.01 332.43 155.50 328.12 160.10 325.13 C 172.68 317.11 187.16 312.80 201.55 309.31 C 231.90 302.17 262.96 298.50 294.04 296.55 C 298.53 296.43 303.02 296.28 307.48 295.72 C 307.56 279.73 307.46 263.74 307.53 247.76 C 268.96 247.32 230.38 247.67 191.81 247.58 C 191.56 222.81 191.63 198.03 191.77 173.25 Z" />
<path fill="#ffffff" opacity="1.00" d=" M 508.80 239.66 C 510.07 237.89 512.33 236.31 514.60 236.89 C 537.70 240.79 560.74 245.02 583.75 249.41 C 617.43 255.57 651.12 261.66 684.75 268.14 C 688.92 269.00 693.56 269.15 696.97 272.04 C 703.57 277.39 709.49 283.51 715.60 289.39 C 723.04 296.29 730.27 303.40 737.55 310.45 C 739.90 312.56 741.64 315.68 741.11 318.93 C 740.29 321.83 738.24 324.13 736.44 326.46 C 697.66 374.30 658.31 421.67 619.30 469.31 C 615.33 474.01 611.72 479.05 607.03 483.07 C 605.37 482.04 603.57 481.00 602.89 479.06 C 587.32 438.48 570.11 398.55 553.51 358.39 C 538.37 322.10 523.16 285.83 509.07 249.11 C 507.92 246.14 507.66 242.66 508.80 239.66 M 545.10 258.13 C 571.65 280.12 598.33 301.96 625.05 323.75 C 638.37 312.15 652.05 300.97 665.48 289.50 C 668.49 287.05 671.55 284.65 674.20 281.79 C 640.49 275.12 606.57 269.51 572.84 262.96 C 563.57 261.44 554.44 259.09 545.10 258.13 M 533.26 265.20 C 549.10 304.13 565.10 342.99 580.97 381.91 C 589.25 401.60 596.76 421.60 605.46 441.10 C 606.54 436.92 606.62 432.60 607.24 428.35 C 610.78 397.89 614.18 367.40 617.86 336.95 C 589.69 313.00 561.56 288.99 533.26 265.20 M 683.55 293.63 C 670.86 304.51 657.71 314.84 645.06 325.77 C 649.73 325.60 654.28 324.44 658.88 323.65 C 674.94 320.73 690.96 317.62 707.03 314.75 C 710.47 314.27 713.87 313.52 717.16 312.40 C 708.62 303.99 699.47 296.21 690.79 287.94 C 688.30 289.74 685.89 291.64 683.55 293.63 M 698.03 331.25 C 676.20 334.64 654.44 338.49 632.61 341.81 C 629.26 366.59 626.92 391.49 623.76 416.29 C 623.20 424.34 621.44 432.29 621.42 440.38 C 624.06 438.34 626.25 435.81 628.24 433.15 C 656.81 398.47 685.78 364.11 714.20 329.31 C 708.72 329.10 703.40 330.44 698.03 331.25 Z" />
</g>
<g id="#1ba27aff">
<path fill="#1ba27a" opacity="1.00" d=" M 229.85 32.12 C 274.25 14.78 322.58 7.96 370.06 11.48 C 442.87 16.36 513.33 47.67 566.50 97.51 C 580.00 110.42 592.79 124.14 603.91 139.18 C 608.89 146.13 614.29 152.88 618.24 160.50 C 605.03 159.90 591.91 161.62 578.99 164.20 C 549.17 169.84 521.20 183.76 497.75 202.90 C 497.47 193.02 497.69 183.14 497.61 173.26 C 395.66 173.20 293.71 173.22 191.77 173.25 C 191.63 198.03 191.56 222.81 191.81 247.58 C 230.38 247.67 268.96 247.32 307.53 247.76 C 307.46 263.74 307.56 279.73 307.48 295.72 C 303.02 296.28 298.53 296.43 294.04 296.55 C 262.96 298.50 231.90 302.17 201.55 309.31 C 187.16 312.80 172.68 317.11 160.10 325.13 C 155.50 328.12 151.01 332.43 150.34 338.15 C 149.97 343.78 154.03 348.54 158.33 351.67 C 169.24 359.54 182.33 363.49 195.14 367.06 C 225.01 374.85 255.76 378.85 286.51 380.90 C 293.48 381.81 300.54 381.23 307.49 382.24 C 307.60 434.08 307.35 485.93 307.62 537.78 C 332.34 537.84 357.05 537.89 381.77 537.75 C 381.81 493.17 381.77 448.59 381.79 404.00 C 381.86 396.75 381.53 389.48 382.10 382.24 C 389.81 381.26 397.62 381.80 405.33 380.81 C 415.16 380.44 424.91 379.07 434.72 378.32 C 440.00 408.33 453.55 436.66 472.57 460.38 C 498.30 492.10 534.83 514.93 574.72 523.83 C 580.46 524.82 586.12 526.47 591.98 526.62 C 595.84 526.81 599.65 527.50 603.48 528.06 C 593.81 541.62 582.44 553.91 570.54 565.55 C 540.47 594.77 504.64 617.97 465.73 633.58 C 432.98 646.43 398.17 654.46 362.99 655.95 C 347.05 657.32 331.08 656.09 315.17 655.14 C 292.88 652.92 270.84 648.40 249.47 641.69 C 231.01 636.32 213.45 628.37 196.33 619.73 C 161.46 601.40 129.95 576.69 103.97 547.07 C 71.69 510.82 48.16 466.98 35.04 420.28 C 21.62 371.30 19.64 319.17 29.72 269.37 C 42.32 205.07 75.71 145.24 123.01 99.99 C 153.68 70.64 190.18 47.28 229.85 32.12 Z" />
<path fill="#1ba27a" opacity="1.00" d=" M 381.84 247.66 C 407.50 247.50 433.18 247.50 458.85 247.67 C 448.93 263.89 441.39 281.56 436.84 300.03 C 418.59 297.99 400.28 296.69 381.96 295.70 C 381.60 279.69 381.83 263.68 381.84 247.66 Z" />
<path fill="#1ba27a" opacity="1.00" d=" M 245.44 305.88 C 266.02 303.12 286.73 301.32 307.47 300.50 C 307.63 318.92 307.32 337.34 307.63 355.75 C 332.35 355.87 357.06 355.83 381.78 355.75 C 381.82 337.35 381.75 318.95 381.80 300.55 C 399.53 300.96 417.24 302.46 434.83 304.68 C 434.78 306.18 434.69 307.68 434.57 309.18 C 431.62 326.77 430.44 344.78 432.35 362.55 C 418.59 364.11 404.80 365.46 390.95 365.74 C 379.34 367.08 367.63 366.11 356.00 367.11 C 349.00 367.34 341.99 367.36 335.00 367.09 C 324.02 366.16 312.96 367.06 302.00 365.87 C 280.04 365.09 258.12 362.96 236.41 359.59 C 220.89 356.99 205.34 353.93 190.56 348.41 C 184.72 346.02 178.54 343.57 174.28 338.72 C 171.40 335.70 171.65 330.51 174.63 327.65 C 179.09 323.01 185.16 320.44 191.03 318.07 C 208.50 311.49 227.04 308.51 245.44 305.88 Z" />
</g>
<g id="#ff060aff">
<path fill="#ff060a" opacity="1.00" d=" M 578.99 164.20 C 591.91 161.62 605.03 159.90 618.24 160.50 C 654.32 161.04 690.20 172.41 719.78 193.14 C 752.33 215.42 777.13 248.65 789.63 286.03 C 797.32 310.10 800.92 335.75 798.30 360.96 C 795.12 396.79 781.28 431.69 758.54 459.60 C 735.83 488.15 704.29 509.53 669.42 520.20 C 648.16 526.83 625.68 529.46 603.48 528.06 C 599.65 527.50 595.84 526.81 591.98 526.62 C 586.12 526.47 580.46 524.82 574.72 523.83 C 534.83 514.93 498.30 492.10 472.57 460.38 C 453.55 436.66 440.00 408.33 434.72 378.32 C 433.47 373.14 432.85 367.84 432.35 362.55 C 430.44 344.78 431.62 326.77 434.57 309.18 C 435.16 306.09 436.07 303.08 436.84 300.03 C 441.39 281.56 448.93 263.89 458.85 247.67 C 469.33 230.79 482.65 215.77 497.75 202.90 C 521.20 183.76 549.17 169.84 578.99 164.20 M 508.80 239.66 C 507.66 242.66 507.92 246.14 509.07 249.11 C 523.16 285.83 538.37 322.10 553.51 358.39 C 570.11 398.55 587.32 438.48 602.89 479.06 C 603.57 481.00 605.37 482.04 607.03 483.07 C 611.72 479.05 615.33 474.01 619.30 469.31 C 658.31 421.67 697.66 374.30 736.44 326.46 C 738.24 324.13 740.29 321.83 741.11 318.93 C 741.64 315.68 739.90 312.56 737.55 310.45 C 730.27 303.40 723.04 296.29 715.60 289.39 C 709.49 283.51 703.57 277.39 696.97 272.04 C 693.56 269.15 688.92 269.00 684.75 268.14 C 651.12 261.66 617.43 255.57 583.75 249.41 C 560.74 245.02 537.70 240.79 514.60 236.89 C 512.33 236.31 510.07 237.89 508.80 239.66 Z" />
<path fill="#ff060a" opacity="1.00" d=" M 545.10 258.13 C 554.44 259.09 563.57 261.44 572.84 262.96 C 606.57 269.51 640.49 275.12 674.20 281.79 C 671.55 284.65 668.49 287.05 665.48 289.50 C 652.05 300.97 638.37 312.15 625.05 323.75 C 598.33 301.96 571.65 280.12 545.10 258.13 Z" />
<path fill="#ff060a" opacity="1.00" d=" M 533.26 265.20 C 561.56 288.99 589.69 313.00 617.86 336.95 C 614.18 367.40 610.78 397.89 607.24 428.35 C 606.62 432.60 606.54 436.92 605.46 441.10 C 596.76 421.60 589.25 401.60 580.97 381.91 C 565.10 342.99 549.10 304.13 533.26 265.20 Z" />
<path fill="#ff060a" opacity="1.00" d=" M 683.55 293.63 C 685.89 291.64 688.30 289.74 690.79 287.94 C 699.47 296.21 708.62 303.99 717.16 312.40 C 713.87 313.52 710.47 314.27 707.03 314.75 C 690.96 317.62 674.94 320.73 658.88 323.65 C 654.28 324.44 649.73 325.60 645.06 325.77 C 657.71 314.84 670.86 304.51 683.55 293.63 Z" />
<path fill="#ff060a" opacity="1.00" d=" M 698.03 331.25 C 703.40 330.44 708.72 329.10 714.20 329.31 C 685.78 364.11 656.81 398.47 628.24 433.15 C 626.25 435.81 624.06 438.34 621.42 440.38 C 621.44 432.29 623.20 424.34 623.76 416.29 C 626.92 391.49 629.26 366.59 632.61 341.81 C 654.44 338.49 676.20 334.64 698.03 331.25 Z" />
</g>
</svg>
